<svg width="438" height="174" viewBox="0 0 438 174" fill="none" xmlns="http://www.w3.org/2000/svg">
<g clip-path="url(#clip0_885_2163)">
<rect y="42" width="438" height="132" rx="32" fill="#F64B3C"/>
<g clip-path="url(#clip1_885_2163)">
<path d="M402 77.5561L407.778 71.7781L408.761 72.7613L402.983 78.5394L408.761 84.3174L407.778 85.3006L402 79.5226L396.222 85.3006L395.239 84.3174L401.017 78.5394L395.239 72.7613L396.222 71.7781L402 77.5561Z" fill="white"/>
</g>
<path d="M140.368 78.944C142.736 78.944 144.56 78.432 146.352 77.76V88H149.936V64H146.352V74.496C144.464 75.264 142.832 75.616 140.944 75.616C137.328 75.616 135.44 74.176 135.44 70.432V64H131.856V71.36C131.856 76.192 134.704 78.944 140.368 78.944ZM158.08 88H161.408V74.976H166.656V72.096H152.832V74.976H158.08V88ZM175.579 71.808C170.779 71.808 167.227 75.296 167.227 80.032C167.227 84.8 170.779 88.288 175.579 88.288C180.411 88.288 183.931 84.8 183.931 80.032C183.931 75.296 180.411 71.808 175.579 71.808ZM175.579 74.848C178.491 74.848 180.475 76.928 180.475 80.032C180.475 83.136 178.491 85.248 175.579 85.248C172.667 85.248 170.683 83.136 170.683 80.032C170.683 76.928 172.667 74.848 175.579 74.848ZM185.326 80.672V78.176H193.07V80.672H185.326ZM199.127 88H202.455V74.976H207.703V72.096H193.879V74.976H199.127V88ZM216.625 71.808C211.825 71.808 208.273 75.296 208.273 80.032C208.273 84.8 211.825 88.288 216.625 88.288C221.457 88.288 224.977 84.8 224.977 80.032C224.977 75.296 221.457 71.808 216.625 71.808ZM216.625 74.848C219.537 74.848 221.521 76.928 221.521 80.032C221.521 83.136 219.537 85.248 216.625 85.248C213.713 85.248 211.729 83.136 211.729 80.032C211.729 76.928 213.713 74.848 216.625 74.848ZM233.5 88H236.796V81.152H244.156V88H247.484V72.096H244.156V78.272H236.796V72.096H233.5V88ZM258.357 88.288C262.197 88.288 264.949 86.368 265.813 83.2L262.645 82.624C262.069 84.32 260.693 85.376 258.357 85.376C255.701 85.376 253.813 83.904 253.493 80.96H265.813C265.877 80.448 265.941 79.904 265.941 79.424C265.941 74.912 262.741 71.808 258.165 71.808C253.461 71.808 250.069 75.296 250.069 80.032C250.069 84.832 253.237 88.288 258.357 88.288ZM258.165 74.592C260.501 74.592 262.101 76 262.421 78.304H253.621C254.165 75.84 256.053 74.592 258.165 74.592ZM277.969 88H281.297V74.976H286.545V72.096H272.721V74.976H277.969V88ZM298.279 88H301.255V78.272C301.255 74.016 298.567 71.808 294.471 71.808C290.663 71.808 288.135 73.76 287.367 76.8L290.535 77.376C291.015 75.488 292.391 74.624 294.439 74.624C296.327 74.624 297.671 75.488 297.991 77.44L293.703 78.432C290.151 79.264 287.463 80.544 287.463 83.712C287.463 86.592 289.607 88.288 292.551 88.288C294.919 88.288 296.871 87.2 298.119 85.376L298.279 88ZM290.855 83.488C290.855 82.112 291.975 81.504 293.799 81.056L298.055 80V80.384C298.055 83.776 295.591 85.504 293.127 85.504C291.719 85.504 290.855 84.768 290.855 83.488ZM304.775 72.096V88H308.071V81.344H309.959L315.335 88H319.335L312.679 79.552L318.919 72.096H314.983L310.055 78.144H308.071V72.096H304.775ZM322.346 88.32C323.69 88.32 324.65 87.424 324.65 86.08C324.65 84.704 323.69 83.808 322.346 83.808C321.002 83.808 320.01 84.704 320.01 86.08C320.01 87.424 321.002 88.32 322.346 88.32ZM329.132 88.32C330.476 88.32 331.436 87.424 331.436 86.08C331.436 84.704 330.476 83.808 329.132 83.808C327.788 83.808 326.796 84.704 326.796 86.08C326.796 87.424 327.788 88.32 329.132 88.32ZM335.918 88.32C337.262 88.32 338.222 87.424 338.222 86.08C338.222 84.704 337.262 83.808 335.918 83.808C334.574 83.808 333.582 84.704 333.582 86.08C333.582 87.424 334.574 88.32 335.918 88.32Z" fill="white"/>
<path d="M137.42 116.498V112.2H138.4V122H137.42V117.422H132.1V122H131.12V112.2H132.1V116.498H137.42ZM143.73 114.832C144.775 114.832 145.61 115.201 146.236 115.938C146.88 116.666 147.202 117.529 147.202 118.528C147.202 118.575 147.192 118.719 147.174 118.962H141.028C141.121 119.662 141.42 120.222 141.924 120.642C142.428 121.062 143.058 121.272 143.814 121.272C144.878 121.272 145.629 120.875 146.068 120.082L146.88 120.558C146.572 121.062 146.147 121.459 145.606 121.748C145.074 122.028 144.472 122.168 143.8 122.168C142.698 122.168 141.802 121.823 141.112 121.132C140.421 120.441 140.076 119.564 140.076 118.5C140.076 117.445 140.416 116.573 141.098 115.882C141.779 115.182 142.656 114.832 143.73 114.832ZM143.73 115.728C143.002 115.728 142.39 115.943 141.896 116.372C141.41 116.801 141.121 117.366 141.028 118.066H146.25C146.147 117.319 145.862 116.745 145.396 116.344C144.91 115.933 144.355 115.728 143.73 115.728ZM152.171 115H158.051V122H157.127V115.896H153.095V122H152.171V115ZM165.871 121.118C165.153 121.818 164.285 122.168 163.267 122.168C162.231 122.168 161.359 121.818 160.649 121.118C159.94 120.409 159.585 119.536 159.585 118.5C159.585 117.464 159.94 116.596 160.649 115.896C161.359 115.187 162.231 114.832 163.267 114.832C164.294 114.832 165.162 115.187 165.871 115.896C166.59 116.596 166.949 117.464 166.949 118.5C166.949 119.527 166.59 120.399 165.871 121.118ZM161.307 120.474C161.839 121.006 162.493 121.272 163.267 121.272C164.042 121.272 164.695 121.006 165.227 120.474C165.759 119.923 166.025 119.265 166.025 118.5C166.025 117.725 165.759 117.072 165.227 116.54C164.695 115.999 164.042 115.728 163.267 115.728C162.493 115.728 161.839 115.999 161.307 116.54C160.775 117.072 160.509 117.725 160.509 118.5C160.509 119.265 160.775 119.923 161.307 120.474ZM168.95 115H173.962V122H173.038V115.896H169.874V119.018C169.874 120.185 169.65 120.987 169.202 121.426C168.764 121.865 168.157 122.056 167.382 122V121.132C167.924 121.188 168.32 121.057 168.572 120.74C168.824 120.423 168.95 119.849 168.95 119.018V115ZM178.691 120.866L180.959 115H181.939L178.943 122.644C178.663 123.353 178.271 123.899 177.767 124.282C177.273 124.674 176.722 124.847 176.115 124.8V123.932C176.955 124.035 177.595 123.549 178.033 122.476L178.215 122.042L175.079 115H176.059L178.691 120.866ZM187.592 118.486V115H188.516V122H187.592V119.34C187.051 119.62 186.384 119.76 185.59 119.76C184.666 119.76 183.966 119.55 183.49 119.13C183.014 118.701 182.776 118.071 182.776 117.24V115H183.7V117.24C183.7 117.819 183.85 118.239 184.148 118.5C184.456 118.761 184.928 118.892 185.562 118.892C186.272 118.892 186.948 118.757 187.592 118.486ZM191.404 120.39L195.576 115H196.36V122H195.436V116.61L191.264 122H190.48V115H191.404V120.39ZM199.042 115H204.054V122H203.13V115.896H199.966V119.018C199.966 120.185 199.742 120.987 199.294 121.426C198.855 121.865 198.249 122.056 197.474 122V121.132C198.015 121.188 198.412 121.057 198.664 120.74C198.916 120.423 199.042 119.849 199.042 119.018V115ZM211.877 121.118C211.159 121.818 210.291 122.168 209.273 122.168C208.237 122.168 207.365 121.818 206.655 121.118C205.946 120.409 205.591 119.536 205.591 118.5C205.591 117.464 205.946 116.596 206.655 115.896C207.365 115.187 208.237 114.832 209.273 114.832C210.3 114.832 211.168 115.187 211.877 115.896C212.596 116.596 212.955 117.464 212.955 118.5C212.955 119.527 212.596 120.399 211.877 121.118ZM207.313 120.474C207.845 121.006 208.499 121.272 209.273 121.272C210.048 121.272 210.701 121.006 211.233 120.474C211.765 119.923 212.031 119.265 212.031 118.5C212.031 117.725 211.765 117.072 211.233 116.54C210.701 115.999 210.048 115.728 209.273 115.728C208.499 115.728 207.845 115.999 207.313 116.54C206.781 117.072 206.515 117.725 206.515 118.5C206.515 119.265 206.781 119.923 207.313 120.474ZM217.763 122.168C216.709 122.168 215.831 121.818 215.131 121.118C214.431 120.399 214.081 119.527 214.081 118.5C214.081 117.464 214.431 116.596 215.131 115.896C215.831 115.187 216.709 114.832 217.763 114.832C218.454 114.832 219.075 115 219.625 115.336C220.176 115.663 220.577 116.106 220.829 116.666L220.073 117.1C219.887 116.68 219.583 116.349 219.163 116.106C218.753 115.854 218.286 115.728 217.763 115.728C216.989 115.728 216.335 115.999 215.803 116.54C215.271 117.072 215.005 117.725 215.005 118.5C215.005 119.265 215.271 119.923 215.803 120.474C216.335 121.006 216.989 121.272 217.763 121.272C218.277 121.272 218.739 121.151 219.149 120.908C219.569 120.665 219.896 120.329 220.129 119.9L220.899 120.348C220.61 120.908 220.185 121.351 219.625 121.678C219.065 122.005 218.445 122.168 217.763 122.168ZM223.15 117.66H225.068C225.712 117.66 226.263 117.865 226.72 118.276C227.177 118.677 227.406 119.195 227.406 119.83C227.406 120.474 227.177 120.997 226.72 121.398C226.281 121.799 225.731 122 225.068 122H222.226V115H223.15V117.66ZM223.15 121.104H225.068C225.469 121.104 225.805 120.987 226.076 120.754C226.347 120.511 226.482 120.203 226.482 119.83C226.482 119.457 226.347 119.153 226.076 118.92C225.805 118.677 225.469 118.556 225.068 118.556H223.15V121.104ZM238.168 121.118C237.45 121.818 236.582 122.168 235.564 122.168C234.528 122.168 233.656 121.818 232.946 121.118C232.237 120.409 231.882 119.536 231.882 118.5C231.882 117.464 232.237 116.596 232.946 115.896C233.656 115.187 234.528 114.832 235.564 114.832C236.591 114.832 237.459 115.187 238.168 115.896C238.887 116.596 239.246 117.464 239.246 118.5C239.246 119.527 238.887 120.399 238.168 121.118ZM233.604 120.474C234.136 121.006 234.79 121.272 235.564 121.272C236.339 121.272 236.992 121.006 237.524 120.474C238.056 119.923 238.322 119.265 238.322 118.5C238.322 117.725 238.056 117.072 237.524 116.54C236.992 115.999 236.339 115.728 235.564 115.728C234.79 115.728 234.136 115.999 233.604 116.54C233.072 117.072 232.806 117.725 232.806 118.5C232.806 119.265 233.072 119.923 233.604 120.474ZM239.679 115H245.559V115.896H243.081V122H242.157V115.896H239.679V115ZM250.437 114.832C251.436 114.832 252.285 115.187 252.985 115.896C253.694 116.605 254.049 117.473 254.049 118.5C254.049 119.527 253.694 120.395 252.985 121.104C252.285 121.813 251.436 122.168 250.437 122.168C249.196 122.168 248.253 121.655 247.609 120.628V124.8H246.685V115H247.609V116.372C248.253 115.345 249.196 114.832 250.437 114.832ZM248.407 120.474C248.939 121.006 249.592 121.272 250.367 121.272C251.142 121.272 251.795 121.006 252.327 120.474C252.859 119.923 253.125 119.265 253.125 118.5C253.125 117.725 252.859 117.072 252.327 116.54C251.795 115.999 251.142 115.728 250.367 115.728C249.592 115.728 248.939 115.999 248.407 116.54C247.875 117.072 247.609 117.725 247.609 118.5C247.609 119.265 247.875 119.923 248.407 120.474ZM258.819 114.832C259.865 114.832 260.7 115.201 261.325 115.938C261.969 116.666 262.291 117.529 262.291 118.528C262.291 118.575 262.282 118.719 262.263 118.962H256.117C256.211 119.662 256.509 120.222 257.013 120.642C257.517 121.062 258.147 121.272 258.903 121.272C259.967 121.272 260.719 120.875 261.157 120.082L261.969 120.558C261.661 121.062 261.237 121.459 260.695 121.748C260.163 122.028 259.561 122.168 258.889 122.168C257.788 122.168 256.892 121.823 256.201 121.132C255.511 120.441 255.165 119.564 255.165 118.5C255.165 117.445 255.506 116.573 256.187 115.882C256.869 115.182 257.746 114.832 258.819 114.832ZM258.819 115.728C258.091 115.728 257.48 115.943 256.985 116.372C256.5 116.801 256.211 117.366 256.117 118.066H261.339C261.237 117.319 260.952 116.745 260.485 116.344C260 115.933 259.445 115.728 258.819 115.728ZM269.368 115V121.104H270.348V123.876H269.424V122H263.712V123.876H262.788V121.104H263.642C264.118 120.469 264.356 119.587 264.356 118.458V115H269.368ZM264.762 121.104H268.444V115.896H265.28V118.458C265.28 119.541 265.107 120.423 264.762 121.104ZM277.492 116.372V115H278.416V122H277.492V120.628C276.848 121.655 275.906 122.168 274.664 122.168C273.666 122.168 272.812 121.813 272.102 121.104C271.402 120.395 271.052 119.527 271.052 118.5C271.052 117.473 271.402 116.605 272.102 115.896C272.812 115.187 273.666 114.832 274.664 114.832C275.906 114.832 276.848 115.345 277.492 116.372ZM272.774 120.474C273.306 121.006 273.96 121.272 274.734 121.272C275.509 121.272 276.162 121.006 276.694 120.474C277.226 119.923 277.492 119.265 277.492 118.5C277.492 117.725 277.226 117.072 276.694 116.54C276.162 115.999 275.509 115.728 274.734 115.728C273.96 115.728 273.306 115.999 272.774 116.54C272.242 117.072 271.976 117.725 271.976 118.5C271.976 119.265 272.242 119.923 272.774 120.474ZM282.277 118.36L286.029 122H284.797L281.297 118.626V122H280.373V115H281.297V118.094L284.629 115H285.889L282.277 118.36ZM286.451 115H292.331V115.896H289.853V122H288.929V115.896H286.451V115ZM294.381 120.39L298.553 115H299.337V122H298.413V116.61L294.241 122H293.457V115H294.381V120.39ZM305.043 114.832C306.041 114.832 306.891 115.187 307.591 115.896C308.3 116.605 308.655 117.473 308.655 118.5C308.655 119.527 308.3 120.395 307.591 121.104C306.891 121.813 306.041 122.168 305.043 122.168C303.801 122.168 302.859 121.655 302.215 120.628V124.8H301.291V115H302.215V116.372C302.859 115.345 303.801 114.832 305.043 114.832ZM303.013 120.474C303.545 121.006 304.198 121.272 304.973 121.272C305.747 121.272 306.401 121.006 306.933 120.474C307.465 119.923 307.731 119.265 307.731 118.5C307.731 117.725 307.465 117.072 306.933 116.54C306.401 115.999 305.747 115.728 304.973 115.728C304.198 115.728 303.545 115.999 303.013 116.54C302.481 117.072 302.215 117.725 302.215 118.5C302.215 119.265 302.481 119.923 303.013 120.474ZM316.057 121.118C315.338 121.818 314.47 122.168 313.453 122.168C312.417 122.168 311.544 121.818 310.835 121.118C310.126 120.409 309.771 119.536 309.771 118.5C309.771 117.464 310.126 116.596 310.835 115.896C311.544 115.187 312.417 114.832 313.453 114.832C314.48 114.832 315.348 115.187 316.057 115.896C316.776 116.596 317.135 117.464 317.135 118.5C317.135 119.527 316.776 120.399 316.057 121.118ZM311.493 120.474C312.025 121.006 312.678 121.272 313.453 121.272C314.228 121.272 314.881 121.006 315.413 120.474C315.945 119.923 316.211 119.265 316.211 118.5C316.211 117.725 315.945 117.072 315.413 116.54C314.881 115.999 314.228 115.728 313.453 115.728C312.678 115.728 312.025 115.999 311.493 116.54C310.961 117.072 310.695 117.725 310.695 118.5C310.695 119.265 310.961 119.923 311.493 120.474ZM323.133 118.402C323.899 118.682 324.281 119.228 324.281 120.04C324.281 120.619 324.085 121.09 323.693 121.454C323.311 121.818 322.774 122 322.083 122H318.681V115H321.803C322.475 115 322.998 115.173 323.371 115.518C323.754 115.863 323.945 116.316 323.945 116.876C323.945 117.576 323.675 118.085 323.133 118.402ZM321.803 115.896H319.605V118.024H321.803C322.615 118.024 323.021 117.66 323.021 116.932C323.021 116.605 322.914 116.353 322.699 116.176C322.494 115.989 322.195 115.896 321.803 115.896ZM319.605 121.104H322.083C322.494 121.104 322.807 121.006 323.021 120.81C323.245 120.614 323.357 120.339 323.357 119.984C323.357 119.648 323.245 119.387 323.021 119.2C322.807 119.013 322.494 118.92 322.083 118.92H319.605V121.104ZM331.701 116.372V115H332.625V122H331.701V120.628C331.057 121.655 330.115 122.168 328.873 122.168C327.875 122.168 327.021 121.813 326.311 121.104C325.611 120.395 325.261 119.527 325.261 118.5C325.261 117.473 325.611 116.605 326.311 115.896C327.021 115.187 327.875 114.832 328.873 114.832C330.115 114.832 331.057 115.345 331.701 116.372ZM326.983 120.474C327.515 121.006 328.169 121.272 328.943 121.272C329.718 121.272 330.371 121.006 330.903 120.474C331.435 119.923 331.701 119.265 331.701 118.5C331.701 117.725 331.435 117.072 330.903 116.54C330.371 115.999 329.718 115.728 328.943 115.728C328.169 115.728 327.515 115.999 326.983 116.54C326.451 117.072 326.185 117.725 326.185 118.5C326.185 119.265 326.451 119.923 326.983 120.474ZM333.742 115H339.622V115.896H337.144V122H336.22V115.896H333.742V115ZM341.672 117.66H343.59C344.234 117.66 344.784 117.865 345.242 118.276C345.699 118.677 345.928 119.195 345.928 119.83C345.928 120.474 345.699 120.997 345.242 121.398C344.803 121.799 344.252 122 343.59 122H340.748V115H341.672V117.66ZM341.672 121.104H343.59C343.991 121.104 344.327 120.987 344.598 120.754C344.868 120.511 345.004 120.203 345.004 119.83C345.004 119.457 344.868 119.153 344.598 118.92C344.327 118.677 343.991 118.556 343.59 118.556H341.672V121.104ZM136.846 143.118C136.127 143.818 135.259 144.168 134.242 144.168C133.206 144.168 132.333 143.818 131.624 143.118C130.915 142.409 130.56 141.536 130.56 140.5C130.56 139.464 130.915 138.596 131.624 137.896C132.333 137.187 133.206 136.832 134.242 136.832C135.269 136.832 136.137 137.187 136.846 137.896C137.565 138.596 137.924 139.464 137.924 140.5C137.924 141.527 137.565 142.399 136.846 143.118ZM132.282 142.474C132.814 143.006 133.467 143.272 134.242 143.272C135.017 143.272 135.67 143.006 136.202 142.474C136.734 141.923 137 141.265 137 140.5C137 139.725 136.734 139.072 136.202 138.54C135.67 137.999 135.017 137.728 134.242 137.728C133.467 137.728 132.814 137.999 132.282 138.54C131.75 139.072 131.484 139.725 131.484 140.5C131.484 141.265 131.75 141.923 132.282 142.474ZM138.357 137H144.237V137.896H141.759V144H140.835V137.896H138.357V137ZM148.701 140.402C149.513 140.71 149.919 141.27 149.919 142.082C149.919 142.67 149.691 143.165 149.233 143.566C148.795 143.967 148.151 144.168 147.301 144.168C145.883 144.168 144.959 143.608 144.529 142.488L145.313 142.026C145.612 142.857 146.275 143.272 147.301 143.272C147.833 143.272 148.249 143.16 148.547 142.936C148.846 142.703 148.995 142.399 148.995 142.026C148.995 141.69 148.874 141.424 148.631 141.228C148.389 141.023 148.062 140.92 147.651 140.92H146.629V140.024H147.371C147.773 140.024 148.085 139.926 148.309 139.73C148.543 139.525 148.659 139.245 148.659 138.89C148.659 138.554 148.519 138.279 148.239 138.064C147.969 137.84 147.609 137.728 147.161 137.728C146.293 137.728 145.71 138.078 145.411 138.778L144.641 138.33C145.108 137.331 145.948 136.832 147.161 136.832C147.908 136.832 148.496 137.028 148.925 137.42C149.364 137.803 149.583 138.274 149.583 138.834C149.583 139.553 149.289 140.075 148.701 140.402ZM152.248 139.66H154.166C154.81 139.66 155.36 139.865 155.818 140.276C156.275 140.677 156.504 141.195 156.504 141.83C156.504 142.474 156.275 142.997 155.818 143.398C155.379 143.799 154.828 144 154.166 144H151.324V137H152.248V139.66ZM157.484 144V137H158.408V144H157.484ZM152.248 143.104H154.166C154.567 143.104 154.903 142.987 155.174 142.754C155.444 142.511 155.58 142.203 155.58 141.83C155.58 141.457 155.444 141.153 155.174 140.92C154.903 140.677 154.567 140.556 154.166 140.556H152.248V143.104ZM164.827 140.402C165.592 140.682 165.975 141.228 165.975 142.04C165.975 142.619 165.779 143.09 165.387 143.454C165.004 143.818 164.467 144 163.777 144H160.375V137H163.497C164.169 137 164.691 137.173 165.065 137.518C165.447 137.863 165.639 138.316 165.639 138.876C165.639 139.576 165.368 140.085 164.827 140.402ZM163.497 137.896H161.299V140.024H163.497C164.309 140.024 164.715 139.66 164.715 138.932C164.715 138.605 164.607 138.353 164.393 138.176C164.187 137.989 163.889 137.896 163.497 137.896ZM161.299 143.104H163.777C164.187 143.104 164.5 143.006 164.715 142.81C164.939 142.614 165.051 142.339 165.051 141.984C165.051 141.648 164.939 141.387 164.715 141.2C164.5 141.013 164.187 140.92 163.777 140.92H161.299V143.104ZM168.638 143.37C168.638 143.585 168.563 143.767 168.414 143.916C168.264 144.065 168.082 144.14 167.868 144.14C167.653 144.14 167.471 144.065 167.322 143.916C167.172 143.767 167.098 143.585 167.098 143.37C167.098 143.155 167.172 142.973 167.322 142.824C167.471 142.675 167.653 142.6 167.868 142.6C168.082 142.6 168.264 142.675 168.414 142.824C168.563 142.973 168.638 143.155 168.638 143.37ZM174.104 134.2H181.104V144H180.124V135.124H175.084V144H174.104V134.2ZM189.073 143.118C188.354 143.818 187.486 144.168 186.469 144.168C185.433 144.168 184.56 143.818 183.851 143.118C183.141 142.409 182.787 141.536 182.787 140.5C182.787 139.464 183.141 138.596 183.851 137.896C184.56 137.187 185.433 136.832 186.469 136.832C187.495 136.832 188.363 137.187 189.073 137.896C189.791 138.596 190.151 139.464 190.151 140.5C190.151 141.527 189.791 142.399 189.073 143.118ZM184.509 142.474C185.041 143.006 185.694 143.272 186.469 143.272C187.243 143.272 187.897 143.006 188.429 142.474C188.961 141.923 189.227 141.265 189.227 140.5C189.227 139.725 188.961 139.072 188.429 138.54C187.897 137.999 187.243 137.728 186.469 137.728C185.694 137.728 185.041 137.999 184.509 138.54C183.977 139.072 183.711 139.725 183.711 140.5C183.711 141.265 183.977 141.923 184.509 142.474ZM191.697 137H197.577V144H196.653V137.896H192.621V144H191.697V137ZM203.283 136.832C204.281 136.832 205.131 137.187 205.831 137.896C206.54 138.605 206.895 139.473 206.895 140.5C206.895 141.527 206.54 142.395 205.831 143.104C205.131 143.813 204.281 144.168 203.283 144.168C202.041 144.168 201.099 143.655 200.455 142.628V146.8H199.531V137H200.455V138.372C201.099 137.345 202.041 136.832 203.283 136.832ZM201.253 142.474C201.785 143.006 202.438 143.272 203.213 143.272C203.987 143.272 204.641 143.006 205.173 142.474C205.705 141.923 205.971 141.265 205.971 140.5C205.971 139.725 205.705 139.072 205.173 138.54C204.641 137.999 203.987 137.728 203.213 137.728C202.438 137.728 201.785 137.999 201.253 138.54C200.721 139.072 200.455 139.725 200.455 140.5C200.455 141.265 200.721 141.923 201.253 142.474ZM214.297 143.118C213.579 143.818 212.711 144.168 211.693 144.168C210.657 144.168 209.785 143.818 209.075 143.118C208.366 142.409 208.011 141.536 208.011 140.5C208.011 139.464 208.366 138.596 209.075 137.896C209.785 137.187 210.657 136.832 211.693 136.832C212.72 136.832 213.588 137.187 214.297 137.896C215.016 138.596 215.375 139.464 215.375 140.5C215.375 141.527 215.016 142.399 214.297 143.118ZM209.733 142.474C210.265 143.006 210.919 143.272 211.693 143.272C212.468 143.272 213.121 143.006 213.653 142.474C214.185 141.923 214.451 141.265 214.451 140.5C214.451 139.725 214.185 139.072 213.653 138.54C213.121 137.999 212.468 137.728 211.693 137.728C210.919 137.728 210.265 137.999 209.733 138.54C209.201 139.072 208.935 139.725 208.935 140.5C208.935 141.265 209.201 141.923 209.733 142.474ZM220.029 144.168C219.031 144.168 218.191 143.837 217.509 143.174C216.837 142.502 216.501 141.634 216.501 140.57C216.501 139.375 216.679 138.461 217.033 137.826C217.388 137.182 218.107 136.599 219.189 136.076C219.535 135.917 219.805 135.796 220.001 135.712C220.328 135.581 220.585 135.469 220.771 135.376C221.583 135.003 221.994 134.541 222.003 133.99L222.731 134.41C222.685 134.643 222.61 134.853 222.507 135.04C222.386 135.245 222.265 135.409 222.143 135.53C222.031 135.651 221.854 135.782 221.611 135.922C221.453 136.015 221.261 136.118 221.037 136.23L220.337 136.524L219.679 136.804C219.035 137.084 218.555 137.378 218.237 137.686C217.929 137.985 217.71 138.377 217.579 138.862C217.878 138.461 218.27 138.157 218.755 137.952C219.241 137.737 219.731 137.63 220.225 137.63C221.159 137.63 221.929 137.938 222.535 138.554C223.151 139.161 223.459 139.94 223.459 140.892C223.459 141.835 223.133 142.619 222.479 143.244C221.835 143.86 221.019 144.168 220.029 144.168ZM218.209 142.558C218.695 143.015 219.301 143.244 220.029 143.244C220.757 143.244 221.355 143.025 221.821 142.586C222.297 142.138 222.535 141.573 222.535 140.892C222.535 140.201 222.311 139.637 221.863 139.198C221.425 138.75 220.837 138.526 220.099 138.526C219.437 138.526 218.835 138.736 218.293 139.156C217.752 139.557 217.481 140.108 217.481 140.808C217.481 141.517 217.724 142.101 218.209 142.558ZM227.363 142.866L229.631 137H230.611L227.615 144.644C227.335 145.353 226.943 145.899 226.439 146.282C225.945 146.674 225.394 146.847 224.787 146.8V145.932C225.627 146.035 226.267 145.549 226.705 144.476L226.887 144.042L223.751 137H224.731L227.363 142.866ZM236.488 135.88H232.848V135.068H236.488V135.88ZM232.652 142.39L236.824 137H237.608V144H236.684V138.61L232.512 144H231.728V137H232.652V142.39ZM238.722 137H244.602V137.896H242.124V144H241.2V137.896H238.722V137ZM248.689 136.832C249.734 136.832 250.569 137.201 251.195 137.938C251.839 138.666 252.161 139.529 252.161 140.528C252.161 140.575 252.151 140.719 252.133 140.962H245.987C246.08 141.662 246.379 142.222 246.883 142.642C247.387 143.062 248.017 143.272 248.773 143.272C249.837 143.272 250.588 142.875 251.027 142.082L251.839 142.558C251.531 143.062 251.106 143.459 250.565 143.748C250.033 144.028 249.431 144.168 248.759 144.168C247.657 144.168 246.761 143.823 246.071 143.132C245.38 142.441 245.035 141.564 245.035 140.5C245.035 139.445 245.375 138.573 246.057 137.882C246.738 137.182 247.615 136.832 248.689 136.832ZM248.689 137.728C247.961 137.728 247.349 137.943 246.855 138.372C246.369 138.801 246.08 139.366 245.987 140.066H251.209C251.106 139.319 250.821 138.745 250.355 138.344C249.869 137.933 249.314 137.728 248.689 137.728ZM260.364 136.832C261.41 136.832 262.245 137.201 262.87 137.938C263.514 138.666 263.836 139.529 263.836 140.528C263.836 140.575 263.827 140.719 263.808 140.962H257.662C257.756 141.662 258.054 142.222 258.558 142.642C259.062 143.062 259.692 143.272 260.448 143.272C261.512 143.272 262.264 142.875 262.702 142.082L263.514 142.558C263.206 143.062 262.782 143.459 262.24 143.748C261.708 144.028 261.106 144.168 260.434 144.168C259.333 144.168 258.437 143.823 257.746 143.132C257.056 142.441 256.71 141.564 256.71 140.5C256.71 139.445 257.051 138.573 257.732 137.882C258.414 137.182 259.291 136.832 260.364 136.832ZM260.364 137.728C259.636 137.728 259.025 137.943 258.53 138.372C258.045 138.801 257.756 139.366 257.662 140.066H262.884C262.782 139.319 262.497 138.745 262.03 138.344C261.545 137.933 260.99 137.728 260.364 137.728ZM274.686 137V143.104H275.666V145.876H274.742V144H265.306V137H266.23V143.104H269.534V137H270.458V143.104H273.762V137H274.686ZM280.025 136.832C281.07 136.832 281.905 137.201 282.531 137.938C283.175 138.666 283.497 139.529 283.497 140.528C283.497 140.575 283.487 140.719 283.469 140.962H277.323C277.416 141.662 277.715 142.222 278.219 142.642C278.723 143.062 279.353 143.272 280.109 143.272C281.173 143.272 281.924 142.875 282.363 142.082L283.175 142.558C282.867 143.062 282.442 143.459 281.901 143.748C281.369 144.028 280.767 144.168 280.095 144.168C278.993 144.168 278.097 143.823 277.407 143.132C276.716 142.441 276.371 141.564 276.371 140.5C276.371 139.445 276.711 138.573 277.393 137.882C278.074 137.182 278.951 136.832 280.025 136.832ZM280.025 137.728C279.297 137.728 278.685 137.943 278.191 138.372C277.705 138.801 277.416 139.366 277.323 140.066H282.545C282.442 139.319 282.157 138.745 281.691 138.344C281.205 137.933 280.65 137.728 280.025 137.728ZM292.218 136.832C293.217 136.832 294.066 137.187 294.766 137.896C295.476 138.605 295.83 139.473 295.83 140.5C295.83 141.527 295.476 142.395 294.766 143.104C294.066 143.813 293.217 144.168 292.218 144.168C290.977 144.168 290.034 143.655 289.39 142.628V146.8H288.466V137H289.39V138.372C290.034 137.345 290.977 136.832 292.218 136.832ZM290.188 142.474C290.72 143.006 291.374 143.272 292.148 143.272C292.923 143.272 293.576 143.006 294.108 142.474C294.64 141.923 294.906 141.265 294.906 140.5C294.906 139.725 294.64 139.072 294.108 138.54C293.576 137.999 292.923 137.728 292.148 137.728C291.374 137.728 290.72 137.999 290.188 138.54C289.656 139.072 289.39 139.725 289.39 140.5C289.39 141.265 289.656 141.923 290.188 142.474ZM303.387 138.372V137H304.311V144H303.387V142.628C302.743 143.655 301.8 144.168 300.559 144.168C299.56 144.168 298.706 143.813 297.997 143.104C297.297 142.395 296.947 141.527 296.947 140.5C296.947 139.473 297.297 138.605 297.997 137.896C298.706 137.187 299.56 136.832 300.559 136.832C301.8 136.832 302.743 137.345 303.387 138.372ZM298.669 142.474C299.201 143.006 299.854 143.272 300.629 143.272C301.403 143.272 302.057 143.006 302.589 142.474C303.121 141.923 303.387 141.265 303.387 140.5C303.387 139.725 303.121 139.072 302.589 138.54C302.057 137.999 301.403 137.728 300.629 137.728C299.854 137.728 299.201 137.999 298.669 138.54C298.137 139.072 297.871 139.725 297.871 140.5C297.871 141.265 298.137 141.923 298.669 142.474ZM309.879 140.402C310.691 140.71 311.097 141.27 311.097 142.082C311.097 142.67 310.868 143.165 310.411 143.566C309.972 143.967 309.328 144.168 308.479 144.168C307.06 144.168 306.136 143.608 305.707 142.488L306.491 142.026C306.79 142.857 307.452 143.272 308.479 143.272C309.011 143.272 309.426 143.16 309.725 142.936C310.024 142.703 310.173 142.399 310.173 142.026C310.173 141.69 310.052 141.424 309.809 141.228C309.566 141.023 309.24 140.92 308.829 140.92H307.807V140.024H308.549C308.95 140.024 309.263 139.926 309.487 139.73C309.72 139.525 309.837 139.245 309.837 138.89C309.837 138.554 309.697 138.279 309.417 138.064C309.146 137.84 308.787 137.728 308.339 137.728C307.471 137.728 306.888 138.078 306.589 138.778L305.819 138.33C306.286 137.331 307.126 136.832 308.339 136.832C309.086 136.832 309.674 137.028 310.103 137.42C310.542 137.803 310.761 138.274 310.761 138.834C310.761 139.553 310.467 140.075 309.879 140.402ZM313.481 141.34H312.781L312.571 137V134.2H313.691V137L313.481 141.34ZM313.901 143.37C313.901 143.585 313.827 143.767 313.677 143.916C313.528 144.065 313.346 144.14 313.131 144.14C312.917 144.14 312.735 144.065 312.585 143.916C312.436 143.767 312.361 143.585 312.361 143.37C312.361 143.155 312.436 142.973 312.585 142.824C312.735 142.675 312.917 142.6 313.131 142.6C313.346 142.6 313.528 142.675 313.677 142.824C313.827 142.973 313.901 143.155 313.901 143.37Z" fill="white"/>
<circle cx="33.9425" cy="123.829" r="6.82918" fill="#C81912"/>
<circle cx="79" cy="114" r="13" fill="#C81912"/>
<path fill-rule="evenodd" clip-rule="evenodd" d="M32.5511 136.439C32.4191 135.778 31.9357 135.243 31.2918 135.044V135.044C30.5686 134.821 29.7827 135.065 29.3124 135.658L26.6097 139.065C24.7585 141.398 21.7904 142.502 18.8235 142.237C11.5519 141.589 4.04597 142.17 -3.42021 144.141C-37.9518 153.255 -58.5567 188.637 -49.4425 223.169C-40.3282 257.7 -4.9463 278.305 29.5853 269.191C64.1169 260.077 84.7218 224.695 75.6076 190.163C70.3813 170.362 56.5177 155.14 39.13 147.475C36.2342 146.198 34.0008 143.697 33.3809 140.593L32.5511 136.439Z" fill="#C81912"/>
<circle cx="21.5475" cy="91.5476" r="3.49096" transform="rotate(-22.0902 21.5475 91.5476)" fill="#C81912"/>
</g>
<path fill-rule="evenodd" clip-rule="evenodd" d="M67.8052 67.6794C68.1341 67.4706 68.4931 67.3124 68.8662 67.2006C83.0115 62.962 93.3197 49.8448 93.3197 34.32C93.3197 15.3656 77.9541 0 58.9997 0C40.0453 0 24.6797 15.3656 24.6797 34.32C24.6797 47.8227 32.4775 59.5042 43.8155 65.1068C43.8284 65.1132 43.8231 65.1326 43.8089 65.1315V65.1315C43.7997 65.1308 43.7927 65.1396 43.7955 65.1483L46.9035 74.9903C47.6944 77.4949 50.6435 78.5705 52.8611 77.1631L67.8052 67.6794Z" fill="#C81912"/>
<path d="M68.8137 27.6379C69.6421 26.8095 69.6421 25.4664 68.8137 24.638L68.3622 24.1865C67.5338 23.3581 66.1907 23.3581 65.3623 24.1865L59.0002 30.5486L52.6381 24.1865C51.8097 23.3581 50.4666 23.3581 49.6382 24.1865L49.1867 24.638C48.3583 25.4664 48.3583 26.8095 49.1867 27.6379L55.5488 34L49.1867 40.362C48.3583 41.1904 48.3583 42.5336 49.1867 43.362L49.6382 43.8134C50.4666 44.6419 51.8097 44.6419 52.6381 43.8134L59.0002 37.4514L65.3623 43.8134C66.1907 44.6419 67.5338 44.6419 68.3622 43.8134L68.8137 43.362C69.6421 42.5336 69.6421 41.1904 68.8137 40.362L62.4516 34L68.8137 27.6379Z" fill="white"/>
<defs>
<clipPath id="clip0_885_2163">
<rect y="42" width="438" height="132" rx="32" fill="white"/>
</clipPath>
<clipPath id="clip1_885_2163">
<rect width="24" height="24" fill="white" transform="translate(390 66)"/>
</clipPath>
</defs>
</svg>
