<svg width="52" height="52" viewBox="0 0 52 52" fill="none" xmlns="http://www.w3.org/2000/svg">
<rect width="52" height="52" rx="2" fill="white"/>
<path fill-rule="evenodd" clip-rule="evenodd" d="M31.1024 23.9115C31.1024 24.4526 31.5357 24.8854 32.0774 24.8854C32.619 24.8854 33.0632 24.4526 33.0632 23.9115C33.0632 23.3704 32.619 22.9268 32.0774 22.9268C31.5357 22.9268 31.1024 23.3704 31.1024 23.9115ZM29.0007 30.4476C28.2315 31.2159 27.1699 31.692 25.9999 31.692C24.8624 31.692 23.8007 31.2483 22.9882 30.4476C22.1865 29.636 21.7424 28.5755 21.7424 27.4392C21.7315 26.3138 22.1757 25.2533 22.9774 24.4417C23.7899 23.6301 24.8624 23.1865 25.9999 23.1865C27.1374 23.1865 28.2099 23.6301 29.0115 24.4309C29.8132 25.2425 30.2574 26.3138 30.2574 27.4392C30.2465 28.6188 29.7699 29.6793 29.0007 30.4476ZM25.9999 24.8097C25.2957 24.8097 24.6349 25.0802 24.1257 25.5888C23.6274 26.0866 23.3565 26.7467 23.3674 27.4284V27.4392C23.3674 28.1426 23.6382 28.8027 24.1365 29.3005C24.6349 29.7983 25.2957 30.0688 25.9999 30.0688C27.4515 30.0688 28.6215 28.8893 28.6324 27.4392C28.6324 26.7359 28.3615 26.0758 27.8632 25.578C27.3649 25.0802 26.704 24.8097 25.9999 24.8097Z" fill="#8A8A8A"/>
<path opacity="0.4" d="M31.8932 19.7561L31.7848 19.518C31.4923 18.9012 31.1565 18.187 30.9507 17.7758C30.4523 16.8019 29.5965 16.2608 28.5457 16.25H23.4432C22.3923 16.2608 21.5473 16.8019 21.049 17.7758C20.8323 18.2087 20.464 18.9878 20.1607 19.6262L20.0957 19.7561C20.0632 19.8427 19.9765 19.886 19.8898 19.886C17.279 19.886 15.1665 22.0069 15.1665 24.6041V31.0319C15.1665 33.629 17.279 35.75 19.8898 35.75H32.1098C34.7098 35.75 36.8332 33.629 36.8332 31.0319V24.6041C36.8332 22.0069 34.7098 19.886 32.1098 19.886C32.0123 19.886 31.9365 19.8319 31.8932 19.7561Z" fill="#8A8A8A"/>
</svg>
