<svg width="20" height="20" viewBox="0 0 20 20" fill="none" xmlns="http://www.w3.org/2000/svg">
<path d="M7.7911 12.3813C4.48793 12.3813 1.66666 12.8916 1.66666 14.931C1.66666 16.9721 4.46999 17.4999 7.7911 17.4999C11.0943 17.4999 13.9155 16.9896 13.9155 14.9502C13.9155 12.9092 11.1122 12.3813 7.7911 12.3813Z" fill="#585CC6"/>
<path opacity="0.4" d="M7.79111 10.4374C10.0408 10.4374 11.8436 8.67181 11.8436 6.46868C11.8436 4.26554 10.0408 2.5 7.79111 2.5C5.54224 2.5 3.73859 4.26554 3.73859 6.46868C3.73859 8.67181 5.54224 10.4374 7.79111 10.4374Z" fill="#585CC6"/>
<path opacity="0.4" d="M13.4778 6.54061C13.4778 7.66254 13.1337 8.70941 12.5303 9.579C12.4676 9.66844 12.523 9.78901 12.6323 9.80818C12.7839 9.83293 12.9397 9.8481 13.0987 9.8513C14.6805 9.89202 16.1002 8.89466 16.4924 7.39264C17.0737 5.16395 15.3679 3.16284 13.1949 3.16284C12.9592 3.16284 12.7334 3.1868 12.5132 3.23072C12.4831 3.2371 12.4504 3.25148 12.4341 3.27703C12.4129 3.30977 12.4284 3.35209 12.4496 3.38004C13.1028 4.27679 13.4778 5.36837 13.4778 6.54061Z" fill="#585CC6"/>
<path d="M18.1492 12.6411C17.8598 12.0366 17.161 11.6222 16.0977 11.4186C15.5962 11.2988 14.2378 11.1287 12.9747 11.1527C12.956 11.1551 12.9454 11.1678 12.9438 11.1758C12.9413 11.1886 12.947 11.2078 12.9715 11.2213C13.5553 11.504 15.8115 12.7338 15.5277 15.3274C15.5155 15.4408 15.6077 15.5366 15.7226 15.5206C16.2779 15.4432 17.7065 15.1421 18.1492 14.2062C18.3947 13.7111 18.3947 13.1362 18.1492 12.6411Z" fill="#585CC6"/>
</svg>
