<svg width="20" height="20" viewBox="0 0 20 20" fill="none" xmlns="http://www.w3.org/2000/svg">
<path opacity="0.4" d="M15.6741 7.51758C15.2978 7.51758 14.7995 7.50925 14.179 7.50925C12.6657 7.50925 11.4214 6.25675 11.4214 4.72925V2.04925C11.4214 1.83841 11.253 1.66675 11.0443 1.66675H6.63644C4.57939 1.66675 2.91675 3.35508 2.91675 5.42425V14.4034C2.91675 16.5742 4.6586 18.3334 6.80806 18.3334H13.372C15.4216 18.3334 17.0834 16.6559 17.0834 14.5851V7.89258C17.0834 7.68092 16.9159 7.51008 16.7063 7.51091C16.354 7.51341 15.9315 7.51758 15.6741 7.51758Z" fill="#585CC6"/>
<path opacity="0.4" d="M13.4034 2.13947C13.1542 1.88031 12.7192 2.05864 12.7192 2.41781V4.61531C12.7192 5.53698 13.4784 6.29531 14.4001 6.29531C14.9809 6.30198 15.7876 6.30364 16.4726 6.30198C16.8234 6.30114 17.0017 5.88198 16.7584 5.62864C15.8792 4.71448 14.3051 3.07614 13.4034 2.13947Z" fill="#585CC6"/>
<path fill-rule="evenodd" clip-rule="evenodd" d="M7.4784 9.48986H10.2992C10.6417 9.48986 10.9201 9.21236 10.9201 8.86986C10.9201 8.52736 10.6417 8.24902 10.2992 8.24902H7.4784C7.1359 8.24902 6.8584 8.52736 6.8584 8.86986C6.8584 9.21236 7.1359 9.48986 7.4784 9.48986ZM7.47848 13.6517H12.0151C12.3576 13.6517 12.636 13.3742 12.636 13.0317C12.636 12.6892 12.3576 12.4109 12.0151 12.4109H7.47848C7.13598 12.4109 6.85848 12.6892 6.85848 13.0317C6.85848 13.3742 7.13598 13.6517 7.47848 13.6517Z" fill="#585CC6"/>
</svg>
