<svg width="20" height="20" viewBox="0 0 20 20" fill="none" xmlns="http://www.w3.org/2000/svg">
<path opacity="0.4" d="M10.0167 1.66669C5.17499 1.66669 1.66666 5.61669 1.66666 10C1.66666 11.4 2.07499 12.8417 2.79166 14.1584C2.92499 14.375 2.94166 14.65 2.84999 14.9084L2.29166 16.775C2.16666 17.225 2.54999 17.5584 2.97499 17.425L4.65832 16.925C5.11666 16.775 5.47499 16.9667 5.90082 17.225C7.11749 17.9417 8.63332 18.3084 9.99999 18.3084C14.1333 18.3084 18.3333 15.1167 18.3333 9.97502C18.3333 5.54169 14.75 1.66669 10.0167 1.66669Z" fill="#585CC6"/>
<path fill-rule="evenodd" clip-rule="evenodd" d="M9.98374 11.0751C9.39207 11.0668 8.91707 10.5918 8.91707 10.0001C8.91707 9.41676 9.40041 8.93342 9.98374 8.94176C10.5754 8.94176 11.0504 9.41676 11.0504 10.0084C11.0504 10.5918 10.5754 11.0751 9.98374 11.0751ZM6.14174 11.0751C5.55841 11.0751 5.07507 10.5918 5.07507 10.0084C5.07507 9.41678 5.55007 8.94178 6.14174 8.94178C6.73341 8.94178 7.20841 9.41678 7.20841 10.0084C7.20841 10.5918 6.73341 11.0668 6.14174 11.0751ZM12.7586 10.0084C12.7586 10.5918 13.2336 11.0751 13.8252 11.0751C14.4169 11.0751 14.8919 10.5918 14.8919 10.0084C14.8919 9.41676 14.4169 8.94176 13.8252 8.94176C13.2336 8.94176 12.7586 9.41676 12.7586 10.0084Z" fill="#585CC6"/>
</svg>
