<svg width="438" height="174" viewBox="0 0 438 174" fill="none" xmlns="http://www.w3.org/2000/svg">
<g clip-path="url(#clip0_623_502)">
<rect y="42" width="438" height="132" rx="32" fill="#B5FFA2"/>
<circle cx="20.6075" cy="108.295" r="9.29547" fill="#7DED61"/>
<circle cx="80.0986" cy="146.717" r="3.71819" fill="#7DED61"/>
<path d="M79.4438 110.025C82.4971 117.548 78.8737 126.122 71.3507 129.175C70.5208 129.512 69.6781 129.768 68.8315 129.946C64.1204 130.937 58.8591 132.284 56.3382 136.386C53.3951 141.174 55.0036 147.393 59.3496 150.957C68.015 158.064 75.0268 167.432 79.3829 178.619C92.9059 213.348 75.7149 252.464 40.9856 265.987C6.25636 279.51 -32.8599 262.319 -46.3829 227.59C-59.9059 192.861 -42.7149 153.745 -7.98562 140.222C7.18342 134.315 23.1894 134.268 37.5341 138.982C42.7299 140.69 48.6536 139.072 51.5174 134.413L52.5823 132.68C54.694 129.244 53.7172 124.819 52.2006 121.082C49.1473 113.559 52.7707 104.985 60.2937 101.932C67.8167 98.8789 76.3906 102.502 79.4438 110.025Z" fill="#7DED61"/>
<path d="M133.392 88H136.976V67.296H149.2V88H152.784V64H133.392V88ZM167.26 88H170.236V78.272C170.236 74.016 167.548 71.808 163.452 71.808C159.644 71.808 157.116 73.76 156.348 76.8L159.516 77.376C159.996 75.488 161.372 74.624 163.42 74.624C165.308 74.624 166.652 75.488 166.972 77.44L162.684 78.432C159.132 79.264 156.444 80.544 156.444 83.712C156.444 86.592 158.588 88.288 161.532 88.288C163.9 88.288 165.852 87.2 167.1 85.376L167.26 88ZM159.836 83.488C159.836 82.112 160.956 81.504 162.78 81.056L167.036 80V80.384C167.036 83.776 164.572 85.504 162.108 85.504C160.7 85.504 159.836 84.768 159.836 83.488ZM173.756 72.096V95.04H177.052V85.888C178.332 87.392 180.188 88.288 182.332 88.288C186.748 88.288 190.108 84.8 190.108 80.032C190.108 75.296 186.748 71.808 182.332 71.808C180.124 71.808 178.268 72.768 176.956 74.336L176.828 72.096H173.756ZM181.852 74.848C184.7 74.848 186.652 76.928 186.652 80.032C186.652 83.136 184.7 85.248 181.852 85.248C178.972 85.248 177.052 83.136 177.052 80.032C177.052 76.928 178.972 74.848 181.852 74.848ZM199.834 71.808C195.034 71.808 191.482 75.296 191.482 80.032C191.482 84.8 195.034 88.288 199.834 88.288C204.666 88.288 208.186 84.8 208.186 80.032C208.186 75.296 204.666 71.808 199.834 71.808ZM199.834 74.848C202.746 74.848 204.73 76.928 204.73 80.032C204.73 83.136 202.746 85.248 199.834 85.248C196.922 85.248 194.938 83.136 194.938 80.032C194.938 76.928 196.922 74.848 199.834 74.848ZM208.845 85.184L208.429 88.064C208.909 88.224 209.293 88.288 209.869 88.288C213.293 88.288 214.797 86.144 215.117 78.24L215.245 74.976H220.653V88H223.949V72.096H212.077L211.853 77.632C211.565 84.448 210.829 85.248 209.357 85.248C209.133 85.248 209.005 85.216 208.845 85.184ZM227.834 88H235.13C238.618 88 240.954 85.792 240.954 82.528C240.954 79.232 238.618 77.024 235.13 77.024H231.13V72.096H227.834V88ZM234.618 79.904C236.506 79.904 237.53 80.832 237.53 82.528C237.53 84.192 236.506 85.12 234.618 85.12H231.13V79.904H234.618ZM249 88H252.168L259.656 76.864V88H262.856V72.096H259.656L252.168 83.264V72.096H249V88ZM272.163 88.288C275.843 88.288 278.979 86.72 278.979 83.456C278.979 81.6 277.955 80.288 276.131 79.744C277.795 79.104 278.691 77.888 278.691 76.32C278.691 73.664 276.227 71.808 272.323 71.808C268.675 71.808 266.115 73.472 265.379 76.256L268.483 76.992C268.931 75.36 270.243 74.592 272.195 74.592C274.147 74.592 275.331 75.328 275.331 76.64C275.331 77.792 274.403 78.464 272.931 78.464H270.275V81.344H272.963C274.595 81.344 275.555 81.984 275.555 83.296C275.555 84.736 274.275 85.504 272.163 85.504C270.243 85.504 268.835 84.832 268.291 83.04L265.091 84C265.987 86.72 268.419 88.288 272.163 88.288ZM281.635 88H284.803V76.64L289.923 83.52H290.627L295.811 76.512V88H298.979V72.096H295.587L290.339 79.232L285.027 72.096H281.635V88ZM309.899 88.288C313.739 88.288 316.491 86.368 317.355 83.2L314.187 82.624C313.611 84.32 312.235 85.376 309.899 85.376C307.243 85.376 305.355 83.904 305.035 80.96H317.355C317.419 80.448 317.483 79.904 317.483 79.424C317.483 74.912 314.283 71.808 309.707 71.808C305.003 71.808 301.611 75.296 301.611 80.032C301.611 84.832 304.779 88.288 309.899 88.288ZM309.707 74.592C312.043 74.592 313.643 76 313.963 78.304H305.163C305.707 75.84 307.595 74.592 309.707 74.592ZM320.207 88H323.503V81.152H330.863V88H334.191V72.096H330.863V78.272H323.503V72.096H320.207V88ZM345.065 88.288C348.905 88.288 351.657 86.368 352.521 83.2L349.353 82.624C348.777 84.32 347.401 85.376 345.065 85.376C342.409 85.376 340.521 83.904 340.201 80.96H352.521C352.585 80.448 352.649 79.904 352.649 79.424C352.649 74.912 349.449 71.808 344.873 71.808C340.169 71.808 336.777 75.296 336.777 80.032C336.777 84.832 339.945 88.288 345.065 88.288ZM344.873 74.592C347.209 74.592 348.809 76 349.129 78.304H340.329C340.873 75.84 342.761 74.592 344.873 74.592ZM355.374 88H358.67V81.152H366.03V88H369.358V72.096H366.03V78.272H358.67V72.096H355.374V88Z" fill="#333333"/>
<path d="M133.136 116.96L137.98 122H136.692L132.1 117.254V122H131.12V112.2H132.1V116.68L136.552 112.2H137.84L133.136 116.96ZM144.338 121.118C143.62 121.818 142.752 122.168 141.734 122.168C140.698 122.168 139.826 121.818 139.116 121.118C138.407 120.409 138.052 119.536 138.052 118.5C138.052 117.464 138.407 116.596 139.116 115.896C139.826 115.187 140.698 114.832 141.734 114.832C142.761 114.832 143.629 115.187 144.338 115.896C145.057 116.596 145.416 117.464 145.416 118.5C145.416 119.527 145.057 120.399 144.338 121.118ZM139.774 120.474C140.306 121.006 140.96 121.272 141.734 121.272C142.509 121.272 143.162 121.006 143.694 120.474C144.226 119.923 144.492 119.265 144.492 118.5C144.492 117.725 144.226 117.072 143.694 116.54C143.162 115.999 142.509 115.728 141.734 115.728C140.96 115.728 140.306 115.999 139.774 116.54C139.242 117.072 138.976 117.725 138.976 118.5C138.976 119.265 139.242 119.923 139.774 120.474ZM152.569 115V121.104H153.549V123.876H152.625V122H146.913V123.876H145.989V121.104H146.843C147.319 120.469 147.557 119.587 147.557 118.458V115H152.569ZM147.963 121.104H151.645V115.896H148.481V118.458C148.481 119.541 148.308 120.423 147.963 121.104ZM161.219 120.866L163.487 115H164.467L161.471 122.644C161.191 123.353 160.799 123.899 160.295 124.282C159.8 124.674 159.249 124.847 158.643 124.8V123.932C159.483 124.035 160.122 123.549 160.561 122.476L160.743 122.042L157.607 115H158.587L161.219 120.866ZM168.572 122.168C167.517 122.168 166.64 121.818 165.94 121.118C165.24 120.399 164.89 119.527 164.89 118.5C164.89 117.464 165.24 116.596 165.94 115.896C166.64 115.187 167.517 114.832 168.572 114.832C169.263 114.832 169.883 115 170.434 115.336C170.985 115.663 171.386 116.106 171.638 116.666L170.882 117.1C170.695 116.68 170.392 116.349 169.972 116.106C169.561 115.854 169.095 115.728 168.572 115.728C167.797 115.728 167.144 115.999 166.612 116.54C166.08 117.072 165.814 117.725 165.814 118.5C165.814 119.265 166.08 119.923 166.612 120.474C167.144 121.006 167.797 121.272 168.572 121.272C169.085 121.272 169.547 121.151 169.958 120.908C170.378 120.665 170.705 120.329 170.938 119.9L171.708 120.348C171.419 120.908 170.994 121.351 170.434 121.678C169.874 122.005 169.253 122.168 168.572 122.168ZM173.035 115H178.915V122H177.991V115.896H173.959V122H173.035V115ZM184.103 114.832C185.148 114.832 185.983 115.201 186.609 115.938C187.253 116.666 187.575 117.529 187.575 118.528C187.575 118.575 187.565 118.719 187.547 118.962H181.401C181.494 119.662 181.793 120.222 182.297 120.642C182.801 121.062 183.431 121.272 184.187 121.272C185.251 121.272 186.002 120.875 186.441 120.082L187.253 120.558C186.945 121.062 186.52 121.459 185.979 121.748C185.447 122.028 184.845 122.168 184.173 122.168C183.071 122.168 182.175 121.823 181.485 121.132C180.794 120.441 180.449 119.564 180.449 118.5C180.449 117.445 180.789 116.573 181.471 115.882C182.152 115.182 183.029 114.832 184.103 114.832ZM184.103 115.728C183.375 115.728 182.763 115.943 182.269 116.372C181.783 116.801 181.494 117.366 181.401 118.066H186.623C186.52 117.319 186.235 116.745 185.769 116.344C185.283 115.933 184.728 115.728 184.103 115.728ZM197.5 121.104V115H198.424V122H189.044V115H189.968V121.104H193.272V115H194.196V121.104H197.5ZM205.334 118.052V115H206.258V122H205.334V118.948H201.302V122H200.378V115H201.302V118.052H205.334ZM214.078 121.118C213.36 121.818 212.492 122.168 211.474 122.168C210.438 122.168 209.566 121.818 208.856 121.118C208.147 120.409 207.792 119.536 207.792 118.5C207.792 117.464 208.147 116.596 208.856 115.896C209.566 115.187 210.438 114.832 211.474 114.832C212.501 114.832 213.369 115.187 214.078 115.896C214.797 116.596 215.156 117.464 215.156 118.5C215.156 119.527 214.797 120.399 214.078 121.118ZM209.514 120.474C210.046 121.006 210.7 121.272 211.474 121.272C212.249 121.272 212.902 121.006 213.434 120.474C213.966 119.923 214.232 119.265 214.232 118.5C214.232 117.725 213.966 117.072 213.434 116.54C212.902 115.999 212.249 115.728 211.474 115.728C210.7 115.728 210.046 115.999 209.514 116.54C208.982 117.072 208.716 117.725 208.716 118.5C208.716 119.265 208.982 119.923 209.514 120.474ZM226.069 121.118C225.35 121.818 224.482 122.168 223.465 122.168C222.429 122.168 221.556 121.818 220.847 121.118C220.137 120.409 219.783 119.536 219.783 118.5C219.783 117.464 220.137 116.596 220.847 115.896C221.556 115.187 222.429 114.832 223.465 114.832C224.491 114.832 225.359 115.187 226.069 115.896C226.787 116.596 227.147 117.464 227.147 118.5C227.147 119.527 226.787 120.399 226.069 121.118ZM221.505 120.474C222.037 121.006 222.69 121.272 223.465 121.272C224.239 121.272 224.893 121.006 225.425 120.474C225.957 119.923 226.223 119.265 226.223 118.5C226.223 117.725 225.957 117.072 225.425 116.54C224.893 115.999 224.239 115.728 223.465 115.728C222.69 115.728 222.037 115.999 221.505 116.54C220.973 117.072 220.707 117.725 220.707 118.5C220.707 119.265 220.973 119.923 221.505 120.474ZM227.579 115H233.459V115.896H230.981V122H230.057V115.896H227.579V115ZM234.585 115H240.465V122H239.541V115.896H235.509V122H234.585V115ZM246.171 114.832C247.17 114.832 248.019 115.187 248.719 115.896C249.429 116.605 249.783 117.473 249.783 118.5C249.783 119.527 249.429 120.395 248.719 121.104C248.019 121.813 247.17 122.168 246.171 122.168C244.93 122.168 243.987 121.655 243.343 120.628V124.8H242.419V115H243.343V116.372C243.987 115.345 244.93 114.832 246.171 114.832ZM244.141 120.474C244.673 121.006 245.327 121.272 246.101 121.272C246.876 121.272 247.529 121.006 248.061 120.474C248.593 119.923 248.859 119.265 248.859 118.5C248.859 117.725 248.593 117.072 248.061 116.54C247.529 115.999 246.876 115.728 246.101 115.728C245.327 115.728 244.673 115.999 244.141 116.54C243.609 117.072 243.343 117.725 243.343 118.5C243.343 119.265 243.609 119.923 244.141 120.474ZM257.34 116.372V115H258.264V122H257.34V120.628C256.696 121.655 255.753 122.168 254.512 122.168C253.513 122.168 252.659 121.813 251.95 121.104C251.25 120.395 250.9 119.527 250.9 118.5C250.9 117.473 251.25 116.605 251.95 115.896C252.659 115.187 253.513 114.832 254.512 114.832C255.753 114.832 256.696 115.345 257.34 116.372ZM252.622 120.474C253.154 121.006 253.807 121.272 254.582 121.272C255.357 121.272 256.01 121.006 256.542 120.474C257.074 119.923 257.34 119.265 257.34 118.5C257.34 117.725 257.074 117.072 256.542 116.54C256.01 115.999 255.357 115.728 254.582 115.728C253.807 115.728 253.154 115.999 252.622 116.54C252.09 117.072 251.824 117.725 251.824 118.5C251.824 119.265 252.09 119.923 252.622 120.474ZM264.672 118.402C265.438 118.682 265.82 119.228 265.82 120.04C265.82 120.619 265.624 121.09 265.232 121.454C264.85 121.818 264.313 122 263.622 122H260.22V115H263.342C264.014 115 264.537 115.173 264.91 115.518C265.293 115.863 265.484 116.316 265.484 116.876C265.484 117.576 265.214 118.085 264.672 118.402ZM263.342 115.896H261.144V118.024H263.342C264.154 118.024 264.56 117.66 264.56 116.932C264.56 116.605 264.453 116.353 264.238 116.176C264.033 115.989 263.734 115.896 263.342 115.896ZM261.144 121.104H263.622C264.033 121.104 264.346 121.006 264.56 120.81C264.784 120.614 264.896 120.339 264.896 119.984C264.896 119.648 264.784 119.387 264.56 119.2C264.346 119.013 264.033 118.92 263.622 118.92H261.144V121.104ZM267.675 115H272.687V122H271.763V115.896H268.599V119.018C268.599 120.185 268.375 120.987 267.927 121.426C267.488 121.865 266.881 122.056 266.107 122V121.132C266.648 121.188 267.045 121.057 267.297 120.74C267.549 120.423 267.675 119.849 267.675 119.018V115ZM277.878 114.832C278.923 114.832 279.759 115.201 280.384 115.938C281.028 116.666 281.35 117.529 281.35 118.528C281.35 118.575 281.341 118.719 281.322 118.962H275.176C275.269 119.662 275.568 120.222 276.072 120.642C276.576 121.062 277.206 121.272 277.962 121.272C279.026 121.272 279.777 120.875 280.216 120.082L281.028 120.558C280.72 121.062 280.295 121.459 279.754 121.748C279.222 122.028 278.62 122.168 277.948 122.168C276.847 122.168 275.951 121.823 275.26 121.132C274.569 120.441 274.224 119.564 274.224 118.5C274.224 117.445 274.565 116.573 275.246 115.882C275.927 115.182 276.805 114.832 277.878 114.832ZM277.878 115.728C277.15 115.728 276.539 115.943 276.044 116.372C275.559 116.801 275.269 117.366 275.176 118.066H280.398C280.295 117.319 280.011 116.745 279.544 116.344C279.059 115.933 278.503 115.728 277.878 115.728ZM287.776 118.052V115H288.7V122H287.776V118.948H283.744V122H282.82V115H283.744V118.052H287.776ZM299.11 118.052V115H300.034V122H299.11V118.948H295.078V122H294.154V115H295.078V118.052H299.11ZM308.008 116.372V115H308.932V122H308.008V120.628C307.364 121.655 306.421 122.168 305.18 122.168C304.181 122.168 303.327 121.813 302.618 121.104C301.918 120.395 301.568 119.527 301.568 118.5C301.568 117.473 301.918 116.605 302.618 115.896C303.327 115.187 304.181 114.832 305.18 114.832C306.421 114.832 307.364 115.345 308.008 116.372ZM303.29 120.474C303.822 121.006 304.475 121.272 305.25 121.272C306.024 121.272 306.678 121.006 307.21 120.474C307.742 119.923 308.008 119.265 308.008 118.5C308.008 117.725 307.742 117.072 307.21 116.54C306.678 115.999 306.024 115.728 305.25 115.728C304.475 115.728 303.822 115.999 303.29 116.54C302.758 117.072 302.492 117.725 302.492 118.5C302.492 119.265 302.758 119.923 303.29 120.474ZM318.84 118.402C319.606 118.682 319.988 119.228 319.988 120.04C319.988 120.619 319.792 121.09 319.4 121.454C319.018 121.818 318.481 122 317.79 122H314.388V115H317.51C318.182 115 318.705 115.173 319.078 115.518C319.461 115.863 319.652 116.316 319.652 116.876C319.652 117.576 319.382 118.085 318.84 118.402ZM317.51 115.896H315.312V118.024H317.51C318.322 118.024 318.728 117.66 318.728 116.932C318.728 116.605 318.621 116.353 318.406 116.176C318.201 115.989 317.902 115.896 317.51 115.896ZM315.312 121.104H317.79C318.201 121.104 318.514 121.006 318.728 120.81C318.952 120.614 319.064 120.339 319.064 119.984C319.064 119.648 318.952 119.387 318.728 119.2C318.514 119.013 318.201 118.92 317.79 118.92H315.312V121.104ZM327.408 116.372V115H328.332V122H327.408V120.628C326.764 121.655 325.822 122.168 324.58 122.168C323.582 122.168 322.728 121.813 322.018 121.104C321.318 120.395 320.968 119.527 320.968 118.5C320.968 117.473 321.318 116.605 322.018 115.896C322.728 115.187 323.582 114.832 324.58 114.832C325.822 114.832 326.764 115.345 327.408 116.372ZM322.69 120.474C323.222 121.006 323.876 121.272 324.65 121.272C325.425 121.272 326.078 121.006 326.61 120.474C327.142 119.923 327.408 119.265 327.408 118.5C327.408 117.725 327.142 117.072 326.61 116.54C326.078 115.999 325.425 115.728 324.65 115.728C323.876 115.728 323.222 115.999 322.69 116.54C322.158 117.072 321.892 117.725 321.892 118.5C321.892 119.265 322.158 119.923 322.69 120.474ZM338.745 121.104V115H339.669V122H330.289V115H331.213V121.104H334.517V115H335.441V121.104H338.745ZM344.395 120.866L346.663 115H347.643L344.647 122.644C344.367 123.353 343.975 123.899 343.471 124.282C342.976 124.674 342.425 124.847 341.819 124.8V123.932C342.659 124.035 343.298 123.549 343.737 122.476L343.919 122.042L340.783 115H341.763L344.395 120.866ZM130.98 137H136.86V144H135.936V137.896H131.904V144H130.98V137ZM144.68 143.118C143.961 143.818 143.093 144.168 142.076 144.168C141.04 144.168 140.167 143.818 139.458 143.118C138.749 142.409 138.394 141.536 138.394 140.5C138.394 139.464 138.749 138.596 139.458 137.896C140.167 137.187 141.04 136.832 142.076 136.832C143.103 136.832 143.971 137.187 144.68 137.896C145.399 138.596 145.758 139.464 145.758 140.5C145.758 141.527 145.399 142.399 144.68 143.118ZM140.116 142.474C140.648 143.006 141.301 143.272 142.076 143.272C142.851 143.272 143.504 143.006 144.036 142.474C144.568 141.923 144.834 141.265 144.834 140.5C144.834 139.725 144.568 139.072 144.036 138.54C143.504 137.999 142.851 137.728 142.076 137.728C141.301 137.728 140.648 137.999 140.116 138.54C139.584 139.072 139.318 139.725 139.318 140.5C139.318 141.265 139.584 141.923 140.116 142.474ZM151.704 140.486V137H152.628V144H151.704V141.34C151.162 141.62 150.495 141.76 149.702 141.76C148.778 141.76 148.078 141.55 147.602 141.13C147.126 140.701 146.888 140.071 146.888 139.24V137H147.812V139.24C147.812 139.819 147.961 140.239 148.26 140.5C148.568 140.761 149.039 140.892 149.674 140.892C150.383 140.892 151.06 140.757 151.704 140.486ZM153.751 137H159.631V137.896H157.153V144H156.229V137.896H153.751V137ZM163.529 142.866L165.797 137H166.777L163.781 144.644C163.501 145.353 163.109 145.899 162.605 146.282C162.111 146.674 161.56 146.847 160.953 146.8V145.932C161.793 146.035 162.433 145.549 162.871 144.476L163.053 144.042L159.917 137H160.897L163.529 142.866ZM168.874 141.34H168.174L167.964 137V134.2H169.084V137L168.874 141.34ZM169.294 143.37C169.294 143.585 169.219 143.767 169.07 143.916C168.921 144.065 168.739 144.14 168.524 144.14C168.309 144.14 168.127 144.065 167.978 143.916C167.829 143.767 167.754 143.585 167.754 143.37C167.754 143.155 167.829 142.973 167.978 142.824C168.127 142.675 168.309 142.6 168.524 142.6C168.739 142.6 168.921 142.675 169.07 142.824C169.219 142.973 169.294 143.155 169.294 143.37Z" fill="#333333"/>
<g clip-path="url(#clip1_623_502)">
<path d="M402 77.5561L407.778 71.7781L408.761 72.7613L402.983 78.5394L408.761 84.3174L407.778 85.3006L402 79.5226L396.222 85.3006L395.239 84.3174L401.017 78.5394L395.239 72.7613L396.222 71.7781L402 77.5561Z" fill="#333333"/>
</g>
</g>
<path fill-rule="evenodd" clip-rule="evenodd" d="M59.0002 68.64C77.9546 68.64 93.3202 53.2744 93.3202 34.32C93.3202 15.3656 77.9546 0 59.0002 0C40.0458 0 24.6802 15.3656 24.6802 34.32C24.6802 44.9926 29.5517 54.5274 37.1925 60.822C37.2047 60.832 37.1939 60.8515 37.1789 60.8464V60.8464C37.1698 60.8433 37.1602 60.8501 37.1602 60.8598V71.5042C37.1602 74.4834 40.3004 76.4171 42.9607 75.076L54.9722 69.0212C55.6356 68.6867 56.3788 68.5494 57.1207 68.5894C57.743 68.623 58.3696 68.64 59.0002 68.64Z" fill="#7DED61"/>
<path fill-rule="evenodd" clip-rule="evenodd" d="M70.3012 24.3463C71.3603 25.1584 71.5625 26.6744 70.7531 27.7356L58.7427 43.4829C58.3193 44.0381 57.6774 44.3832 56.9817 44.4295C56.2861 44.4757 55.6044 44.2188 55.1114 43.7245L47.4884 36.0814C46.5456 35.1362 46.5456 33.6063 47.4884 32.6611V32.6611C48.4346 31.7124 49.9715 31.7124 50.9177 32.6611L56.5784 38.3367L66.9033 24.7994C67.7155 23.7344 69.2382 23.5313 70.3012 24.3463V24.3463Z" fill="white"/>
<defs>
<clipPath id="clip0_623_502">
<rect y="42" width="438" height="132" rx="32" fill="white"/>
</clipPath>
<clipPath id="clip1_623_502">
<rect width="24" height="24" fill="white" transform="translate(390 66)"/>
</clipPath>
</defs>
</svg>
