<svg width="288" height="166" viewBox="0 0 288 166" fill="none" xmlns="http://www.w3.org/2000/svg">
<g clip-path="url(#clip0_623_581)">
<rect y="34" width="288" height="132" rx="32" fill="#F64B3C"/>
<g clip-path="url(#clip1_623_581)">
<path d="M260 61.5561L265.778 55.7781L266.761 56.7613L260.983 62.5394L266.761 68.3174L265.778 69.3006L260 63.5226L254.222 69.3006L253.239 68.3174L259.017 62.5394L253.239 56.7613L254.222 55.7781L260 61.5561Z" fill="white"/>
</g>
<path d="M85.776 63.208C87.552 63.208 88.92 62.824 90.264 62.32V70H92.952V52H90.264V59.872C88.848 60.448 87.624 60.712 86.208 60.712C83.496 60.712 82.08 59.632 82.08 56.824V52H79.392V57.52C79.392 61.144 81.528 63.208 85.776 63.208ZM99.0604 70H101.556V60.232H105.492V58.072H95.1244V60.232H99.0604V70ZM112.184 57.856C108.584 57.856 105.92 60.472 105.92 64.024C105.92 67.6 108.584 70.216 112.184 70.216C115.808 70.216 118.448 67.6 118.448 64.024C118.448 60.472 115.808 57.856 112.184 57.856ZM112.184 60.136C114.368 60.136 115.856 61.696 115.856 64.024C115.856 66.352 114.368 67.936 112.184 67.936C110 67.936 108.512 66.352 108.512 64.024C108.512 61.696 110 60.136 112.184 60.136ZM119.495 64.504V62.632H125.303V64.504H119.495ZM129.845 70H132.341V60.232H136.277V58.072H125.909V60.232H129.845V70ZM142.969 57.856C139.369 57.856 136.705 60.472 136.705 64.024C136.705 67.6 139.369 70.216 142.969 70.216C146.593 70.216 149.233 67.6 149.233 64.024C149.233 60.472 146.593 57.856 142.969 57.856ZM142.969 60.136C145.153 60.136 146.641 61.696 146.641 64.024C146.641 66.352 145.153 67.936 142.969 67.936C140.785 67.936 139.297 66.352 139.297 64.024C139.297 61.696 140.785 60.136 142.969 60.136ZM155.625 70H158.097V64.864H163.617V70H166.113V58.072H163.617V62.704H158.097V58.072H155.625V70ZM174.268 70.216C177.148 70.216 179.212 68.776 179.86 66.4L177.484 65.968C177.052 67.24 176.02 68.032 174.268 68.032C172.276 68.032 170.86 66.928 170.62 64.72H179.86C179.908 64.336 179.956 63.928 179.956 63.568C179.956 60.184 177.556 57.856 174.124 57.856C170.596 57.856 168.052 60.472 168.052 64.024C168.052 67.624 170.428 70.216 174.268 70.216ZM174.124 59.944C175.876 59.944 177.076 61 177.316 62.728H170.716C171.124 60.88 172.54 59.944 174.124 59.944ZM188.977 70H191.473V60.232H195.409V58.072H185.041V60.232H188.977V70ZM204.209 70H206.441V62.704C206.441 59.512 204.425 57.856 201.353 57.856C198.497 57.856 196.601 59.32 196.025 61.6L198.401 62.032C198.761 60.616 199.793 59.968 201.329 59.968C202.745 59.968 203.753 60.616 203.993 62.08L200.777 62.824C198.113 63.448 196.097 64.408 196.097 66.784C196.097 68.944 197.705 70.216 199.913 70.216C201.689 70.216 203.153 69.4 204.089 68.032L204.209 70ZM198.641 66.616C198.641 65.584 199.481 65.128 200.849 64.792L204.041 64V64.288C204.041 66.832 202.193 68.128 200.345 68.128C199.289 68.128 198.641 67.576 198.641 66.616ZM209.081 58.072V70H211.553V65.008H212.969L217.001 70H220.001L215.009 63.664L219.689 58.072H216.737L213.041 62.608H211.553V58.072H209.081ZM222.259 70.24C223.267 70.24 223.987 69.568 223.987 68.56C223.987 67.528 223.267 66.856 222.259 66.856C221.251 66.856 220.507 67.528 220.507 68.56C220.507 69.568 221.251 70.24 222.259 70.24ZM227.349 70.24C228.357 70.24 229.077 69.568 229.077 68.56C229.077 67.528 228.357 66.856 227.349 66.856C226.341 66.856 225.597 67.528 225.597 68.56C225.597 69.568 226.341 70.24 227.349 70.24ZM232.438 70.24C233.446 70.24 234.166 69.568 234.166 68.56C234.166 67.528 233.446 66.856 232.438 66.856C231.43 66.856 230.686 67.528 230.686 68.56C230.686 69.568 231.43 70.24 232.438 70.24Z" fill="white"/>
<path d="M85.42 88.498V84.2H86.4V94H85.42V89.422H80.1V94H79.12V84.2H80.1V88.498H85.42ZM91.7296 86.832C92.775 86.832 93.6103 87.2007 94.2356 87.938C94.8796 88.666 95.2016 89.5293 95.2016 90.528C95.2016 90.5747 95.1923 90.7193 95.1736 90.962H89.0276C89.121 91.662 89.4196 92.222 89.9236 92.642C90.4276 93.062 91.0576 93.272 91.8136 93.272C92.8776 93.272 93.629 92.8753 94.0676 92.082L94.8796 92.558C94.5716 93.062 94.147 93.4587 93.6056 93.748C93.0736 94.028 92.4716 94.168 91.7996 94.168C90.6983 94.168 89.8023 93.8227 89.1116 93.132C88.421 92.4413 88.0756 91.564 88.0756 90.5C88.0756 89.4453 88.4163 88.5727 89.0976 87.882C89.779 87.182 90.6563 86.832 91.7296 86.832ZM91.7296 87.728C91.0016 87.728 90.3903 87.9427 89.8956 88.372C89.4103 88.8013 89.121 89.366 89.0276 90.066H94.2496C94.147 89.3193 93.8623 88.7453 93.3956 88.344C92.9103 87.9333 92.355 87.728 91.7296 87.728ZM100.171 87H106.051V94H105.127V87.896H101.095V94H100.171V87ZM113.871 93.118C113.153 93.818 112.285 94.168 111.267 94.168C110.231 94.168 109.359 93.818 108.649 93.118C107.94 92.4087 107.585 91.536 107.585 90.5C107.585 89.464 107.94 88.596 108.649 87.896C109.359 87.1867 110.231 86.832 111.267 86.832C112.294 86.832 113.162 87.1867 113.871 87.896C114.59 88.596 114.949 89.464 114.949 90.5C114.949 91.5267 114.59 92.3993 113.871 93.118ZM109.307 92.474C109.839 93.006 110.493 93.272 111.267 93.272C112.042 93.272 112.695 93.006 113.227 92.474C113.759 91.9233 114.025 91.2653 114.025 90.5C114.025 89.7253 113.759 89.072 113.227 88.54C112.695 87.9987 112.042 87.728 111.267 87.728C110.493 87.728 109.839 87.9987 109.307 88.54C108.775 89.072 108.509 89.7253 108.509 90.5C108.509 91.2653 108.775 91.9233 109.307 92.474ZM116.95 87H121.962V94H121.038V87.896H117.874V91.018C117.874 92.1847 117.65 92.9873 117.202 93.426C116.764 93.8647 116.157 94.056 115.382 94V93.132C115.924 93.188 116.32 93.0573 116.572 92.74C116.824 92.4227 116.95 91.8487 116.95 91.018V87ZM126.691 92.866L128.959 87H129.939L126.943 94.644C126.663 95.3533 126.271 95.8993 125.767 96.282C125.273 96.674 124.722 96.8467 124.115 96.8V95.932C124.955 96.0347 125.595 95.5493 126.033 94.476L126.215 94.042L123.079 87H124.059L126.691 92.866ZM135.592 90.486V87H136.516V94H135.592V91.34C135.051 91.62 134.384 91.76 133.59 91.76C132.666 91.76 131.966 91.55 131.49 91.13C131.014 90.7007 130.776 90.0707 130.776 89.24V87H131.7V89.24C131.7 89.8187 131.85 90.2387 132.148 90.5C132.456 90.7613 132.928 90.892 133.562 90.892C134.272 90.892 134.948 90.7567 135.592 90.486ZM139.404 92.39L143.576 87H144.36V94H143.436V88.61L139.264 94H138.48V87H139.404V92.39ZM147.042 87H152.054V94H151.13V87.896H147.966V91.018C147.966 92.1847 147.742 92.9873 147.294 93.426C146.855 93.8647 146.249 94.056 145.474 94V93.132C146.015 93.188 146.412 93.0573 146.664 92.74C146.916 92.4227 147.042 91.8487 147.042 91.018V87ZM159.877 93.118C159.159 93.818 158.291 94.168 157.273 94.168C156.237 94.168 155.365 93.818 154.655 93.118C153.946 92.4087 153.591 91.536 153.591 90.5C153.591 89.464 153.946 88.596 154.655 87.896C155.365 87.1867 156.237 86.832 157.273 86.832C158.3 86.832 159.168 87.1867 159.877 87.896C160.596 88.596 160.955 89.464 160.955 90.5C160.955 91.5267 160.596 92.3993 159.877 93.118ZM155.313 92.474C155.845 93.006 156.499 93.272 157.273 93.272C158.048 93.272 158.701 93.006 159.233 92.474C159.765 91.9233 160.031 91.2653 160.031 90.5C160.031 89.7253 159.765 89.072 159.233 88.54C158.701 87.9987 158.048 87.728 157.273 87.728C156.499 87.728 155.845 87.9987 155.313 88.54C154.781 89.072 154.515 89.7253 154.515 90.5C154.515 91.2653 154.781 91.9233 155.313 92.474ZM165.763 94.168C164.709 94.168 163.831 93.818 163.131 93.118C162.431 92.3993 162.081 91.5267 162.081 90.5C162.081 89.464 162.431 88.596 163.131 87.896C163.831 87.1867 164.709 86.832 165.763 86.832C166.454 86.832 167.075 87 167.625 87.336C168.176 87.6627 168.577 88.106 168.829 88.666L168.073 89.1C167.887 88.68 167.583 88.3487 167.163 88.106C166.753 87.854 166.286 87.728 165.763 87.728C164.989 87.728 164.335 87.9987 163.803 88.54C163.271 89.072 163.005 89.7253 163.005 90.5C163.005 91.2653 163.271 91.9233 163.803 92.474C164.335 93.006 164.989 93.272 165.763 93.272C166.277 93.272 166.739 93.1507 167.149 92.908C167.569 92.6653 167.896 92.3293 168.129 91.9L168.899 92.348C168.61 92.908 168.185 93.3513 167.625 93.678C167.065 94.0047 166.445 94.168 165.763 94.168ZM171.15 89.66H173.068C173.712 89.66 174.263 89.8653 174.72 90.276C175.177 90.6773 175.406 91.1953 175.406 91.83C175.406 92.474 175.177 92.9967 174.72 93.398C174.281 93.7993 173.731 94 173.068 94H170.226V87H171.15V89.66ZM171.15 93.104H173.068C173.469 93.104 173.805 92.9873 174.076 92.754C174.347 92.5113 174.482 92.2033 174.482 91.83C174.482 91.4567 174.347 91.1533 174.076 90.92C173.805 90.6773 173.469 90.556 173.068 90.556H171.15V93.104ZM84.846 115.118C84.1273 115.818 83.2593 116.168 82.242 116.168C81.206 116.168 80.3333 115.818 79.624 115.118C78.9147 114.409 78.56 113.536 78.56 112.5C78.56 111.464 78.9147 110.596 79.624 109.896C80.3333 109.187 81.206 108.832 82.242 108.832C83.2687 108.832 84.1367 109.187 84.846 109.896C85.5647 110.596 85.924 111.464 85.924 112.5C85.924 113.527 85.5647 114.399 84.846 115.118ZM80.282 114.474C80.814 115.006 81.4673 115.272 82.242 115.272C83.0167 115.272 83.67 115.006 84.202 114.474C84.734 113.923 85 113.265 85 112.5C85 111.725 84.734 111.072 84.202 110.54C83.67 109.999 83.0167 109.728 82.242 109.728C81.4673 109.728 80.814 109.999 80.282 110.54C79.75 111.072 79.484 111.725 79.484 112.5C79.484 113.265 79.75 113.923 80.282 114.474ZM86.3568 109H92.2368V109.896H89.7588V116H88.8348V109.896H86.3568V109ZM93.3628 109H99.2428V116H98.3188V109.896H94.2868V116H93.3628V109ZM104.949 108.832C105.947 108.832 106.797 109.187 107.497 109.896C108.206 110.605 108.561 111.473 108.561 112.5C108.561 113.527 108.206 114.395 107.497 115.104C106.797 115.813 105.947 116.168 104.949 116.168C103.707 116.168 102.765 115.655 102.121 114.628V118.8H101.197V109H102.121V110.372C102.765 109.345 103.707 108.832 104.949 108.832ZM102.919 114.474C103.451 115.006 104.104 115.272 104.879 115.272C105.653 115.272 106.307 115.006 106.839 114.474C107.371 113.923 107.637 113.265 107.637 112.5C107.637 111.725 107.371 111.072 106.839 110.54C106.307 109.999 105.653 109.728 104.879 109.728C104.104 109.728 103.451 109.999 102.919 110.54C102.387 111.072 102.121 111.725 102.121 112.5C102.121 113.265 102.387 113.923 102.919 114.474ZM116.117 110.372V109H117.041V116H116.117V114.628C115.473 115.655 114.531 116.168 113.289 116.168C112.291 116.168 111.437 115.813 110.727 115.104C110.027 114.395 109.677 113.527 109.677 112.5C109.677 111.473 110.027 110.605 110.727 109.896C111.437 109.187 112.291 108.832 113.289 108.832C114.531 108.832 115.473 109.345 116.117 110.372ZM111.399 114.474C111.931 115.006 112.585 115.272 113.359 115.272C114.134 115.272 114.787 115.006 115.319 114.474C115.851 113.923 116.117 113.265 116.117 112.5C116.117 111.725 115.851 111.072 115.319 110.54C114.787 109.999 114.134 109.728 113.359 109.728C112.585 109.728 111.931 109.999 111.399 110.54C110.867 111.072 110.601 111.725 110.601 112.5C110.601 113.265 110.867 113.923 111.399 114.474ZM123.45 112.402C124.215 112.682 124.598 113.228 124.598 114.04C124.598 114.619 124.402 115.09 124.01 115.454C123.627 115.818 123.09 116 122.4 116H118.998V109H122.12C122.792 109 123.314 109.173 123.688 109.518C124.07 109.863 124.262 110.316 124.262 110.876C124.262 111.576 123.991 112.085 123.45 112.402ZM122.12 109.896H119.922V112.024H122.12C122.932 112.024 123.338 111.66 123.338 110.932C123.338 110.605 123.23 110.353 123.016 110.176C122.81 109.989 122.512 109.896 122.12 109.896ZM119.922 115.104H122.4C122.81 115.104 123.123 115.006 123.338 114.81C123.562 114.614 123.674 114.339 123.674 113.984C123.674 113.648 123.562 113.387 123.338 113.2C123.123 113.013 122.81 112.92 122.4 112.92H119.922V115.104ZM126.922 114.39L131.094 109H131.878V116H130.954V110.61L126.782 116H125.998V109H126.922V114.39ZM132.992 109H138.872V109.896H136.394V116H135.47V109.896H132.992V109ZM140.922 111.66H142.84C143.484 111.66 144.034 111.865 144.492 112.276C144.949 112.677 145.178 113.195 145.178 113.83C145.178 114.474 144.949 114.997 144.492 115.398C144.053 115.799 143.502 116 142.84 116H139.998V109H140.922V111.66ZM140.922 115.104H142.84C143.241 115.104 143.577 114.987 143.848 114.754C144.118 114.511 144.254 114.203 144.254 113.83C144.254 113.457 144.118 113.153 143.848 112.92C143.577 112.677 143.241 112.556 142.84 112.556H140.922V115.104ZM151.978 112.36L155.73 116H154.498L150.998 112.626V116H150.074V109H150.998V112.094L154.33 109H155.59L151.978 112.36ZM162.16 115.118C161.442 115.818 160.574 116.168 159.556 116.168C158.52 116.168 157.648 115.818 156.938 115.118C156.229 114.409 155.874 113.536 155.874 112.5C155.874 111.464 156.229 110.596 156.938 109.896C157.648 109.187 158.52 108.832 159.556 108.832C160.583 108.832 161.451 109.187 162.16 109.896C162.879 110.596 163.238 111.464 163.238 112.5C163.238 113.527 162.879 114.399 162.16 115.118ZM157.596 114.474C158.128 115.006 158.782 115.272 159.556 115.272C160.331 115.272 160.984 115.006 161.516 114.474C162.048 113.923 162.314 113.265 162.314 112.5C162.314 111.725 162.048 111.072 161.516 110.54C160.984 109.999 160.331 109.728 159.556 109.728C158.782 109.728 158.128 109.999 157.596 110.54C157.064 111.072 156.798 111.725 156.798 112.5C156.798 113.265 157.064 113.923 157.596 114.474ZM170.391 109V115.104H171.371V117.876H170.447V116H164.735V117.876H163.811V115.104H164.665C165.141 114.469 165.379 113.587 165.379 112.458V109H170.391ZM165.785 115.104H169.467V109.896H166.303V112.458C166.303 113.541 166.131 114.423 165.785 115.104ZM174.169 115.37C174.169 115.585 174.094 115.767 173.945 115.916C173.796 116.065 173.614 116.14 173.399 116.14C173.184 116.14 173.002 116.065 172.853 115.916C172.704 115.767 172.629 115.585 172.629 115.37C172.629 115.155 172.704 114.973 172.853 114.824C173.002 114.675 173.184 114.6 173.399 114.6C173.614 114.6 173.796 114.675 173.945 114.824C174.094 114.973 174.169 115.155 174.169 115.37ZM79.12 128.2H86.12V138H85.14V129.124H80.1V138H79.12V128.2ZM94.0882 137.118C93.3695 137.818 92.5015 138.168 91.4842 138.168C90.4482 138.168 89.5755 137.818 88.8662 137.118C88.1569 136.409 87.8022 135.536 87.8022 134.5C87.8022 133.464 88.1569 132.596 88.8662 131.896C89.5755 131.187 90.4482 130.832 91.4842 130.832C92.5109 130.832 93.3789 131.187 94.0882 131.896C94.8069 132.596 95.1662 133.464 95.1662 134.5C95.1662 135.527 94.8069 136.399 94.0882 137.118ZM89.5242 136.474C90.0562 137.006 90.7095 137.272 91.4842 137.272C92.2589 137.272 92.9122 137.006 93.4442 136.474C93.9762 135.923 94.2422 135.265 94.2422 134.5C94.2422 133.725 93.9762 133.072 93.4442 132.54C92.9122 131.999 92.2589 131.728 91.4842 131.728C90.7095 131.728 90.0562 131.999 89.5242 132.54C88.9922 133.072 88.7262 133.725 88.7262 134.5C88.7262 135.265 88.9922 135.923 89.5242 136.474ZM96.7124 131H102.592V138H101.668V131.896H97.6364V138H96.7124V131ZM108.298 130.832C109.297 130.832 110.146 131.187 110.846 131.896C111.556 132.605 111.91 133.473 111.91 134.5C111.91 135.527 111.556 136.395 110.846 137.104C110.146 137.813 109.297 138.168 108.298 138.168C107.057 138.168 106.114 137.655 105.47 136.628V140.8H104.546V131H105.47V132.372C106.114 131.345 107.057 130.832 108.298 130.832ZM106.268 136.474C106.8 137.006 107.454 137.272 108.228 137.272C109.003 137.272 109.656 137.006 110.188 136.474C110.72 135.923 110.986 135.265 110.986 134.5C110.986 133.725 110.72 133.072 110.188 132.54C109.656 131.999 109.003 131.728 108.228 131.728C107.454 131.728 106.8 131.999 106.268 132.54C105.736 133.072 105.47 133.725 105.47 134.5C105.47 135.265 105.736 135.923 106.268 136.474ZM119.313 137.118C118.594 137.818 117.726 138.168 116.709 138.168C115.673 138.168 114.8 137.818 114.091 137.118C113.381 136.409 113.027 135.536 113.027 134.5C113.027 133.464 113.381 132.596 114.091 131.896C114.8 131.187 115.673 130.832 116.709 130.832C117.735 130.832 118.603 131.187 119.313 131.896C120.031 132.596 120.391 133.464 120.391 134.5C120.391 135.527 120.031 136.399 119.313 137.118ZM114.749 136.474C115.281 137.006 115.934 137.272 116.709 137.272C117.483 137.272 118.137 137.006 118.669 136.474C119.201 135.923 119.467 135.265 119.467 134.5C119.467 133.725 119.201 133.072 118.669 132.54C118.137 131.999 117.483 131.728 116.709 131.728C115.934 131.728 115.281 131.999 114.749 132.54C114.217 133.072 113.951 133.725 113.951 134.5C113.951 135.265 114.217 135.923 114.749 136.474ZM125.045 138.168C124.046 138.168 123.206 137.837 122.525 137.174C121.853 136.502 121.517 135.634 121.517 134.57C121.517 133.375 121.694 132.461 122.049 131.826C122.404 131.182 123.122 130.599 124.205 130.076C124.55 129.917 124.821 129.796 125.017 129.712C125.344 129.581 125.6 129.469 125.787 129.376C126.599 129.003 127.01 128.541 127.019 127.99L127.747 128.41C127.7 128.643 127.626 128.853 127.523 129.04C127.402 129.245 127.28 129.409 127.159 129.53C127.047 129.651 126.87 129.782 126.627 129.922C126.468 130.015 126.277 130.118 126.053 130.23L125.353 130.524L124.695 130.804C124.051 131.084 123.57 131.378 123.253 131.686C122.945 131.985 122.726 132.377 122.595 132.862C122.894 132.461 123.286 132.157 123.771 131.952C124.256 131.737 124.746 131.63 125.241 131.63C126.174 131.63 126.944 131.938 127.551 132.554C128.167 133.161 128.475 133.94 128.475 134.892C128.475 135.835 128.148 136.619 127.495 137.244C126.851 137.86 126.034 138.168 125.045 138.168ZM123.225 136.558C123.71 137.015 124.317 137.244 125.045 137.244C125.773 137.244 126.37 137.025 126.837 136.586C127.313 136.138 127.551 135.573 127.551 134.892C127.551 134.201 127.327 133.637 126.879 133.198C126.44 132.75 125.852 132.526 125.115 132.526C124.452 132.526 123.85 132.736 123.309 133.156C122.768 133.557 122.497 134.108 122.497 134.808C122.497 135.517 122.74 136.101 123.225 136.558ZM132.379 136.866L134.647 131H135.627L132.631 138.644C132.351 139.353 131.959 139.899 131.455 140.282C130.96 140.674 130.41 140.847 129.803 140.8V139.932C130.643 140.035 131.282 139.549 131.721 138.476L131.903 138.042L128.767 131H129.747L132.379 136.866ZM141.504 129.88H137.864V129.068H141.504V129.88ZM137.668 136.39L141.84 131H142.624V138H141.7V132.61L137.528 138H136.744V131H137.668V136.39ZM143.738 131H149.618V131.896H147.14V138H146.216V131.896H143.738V131ZM153.704 130.832C154.75 130.832 155.585 131.201 156.21 131.938C156.854 132.666 157.176 133.529 157.176 134.528C157.176 134.575 157.167 134.719 157.148 134.962H151.002C151.096 135.662 151.394 136.222 151.898 136.642C152.402 137.062 153.032 137.272 153.788 137.272C154.852 137.272 155.604 136.875 156.042 136.082L156.854 136.558C156.546 137.062 156.122 137.459 155.58 137.748C155.048 138.028 154.446 138.168 153.774 138.168C152.673 138.168 151.777 137.823 151.086 137.132C150.396 136.441 150.05 135.564 150.05 134.5C150.05 133.445 150.391 132.573 151.072 131.882C151.754 131.182 152.631 130.832 153.704 130.832ZM153.704 131.728C152.976 131.728 152.365 131.943 151.87 132.372C151.385 132.801 151.096 133.366 151.002 134.066H156.224C156.122 133.319 155.837 132.745 155.37 132.344C154.885 131.933 154.33 131.728 153.704 131.728ZM165.38 130.832C166.425 130.832 167.261 131.201 167.886 131.938C168.53 132.666 168.852 133.529 168.852 134.528C168.852 134.575 168.843 134.719 168.824 134.962H162.678C162.771 135.662 163.07 136.222 163.574 136.642C164.078 137.062 164.708 137.272 165.464 137.272C166.528 137.272 167.279 136.875 167.718 136.082L168.53 136.558C168.222 137.062 167.797 137.459 167.256 137.748C166.724 138.028 166.122 138.168 165.45 138.168C164.349 138.168 163.453 137.823 162.762 137.132C162.071 136.441 161.726 135.564 161.726 134.5C161.726 133.445 162.067 132.573 162.748 131.882C163.429 131.182 164.307 130.832 165.38 130.832ZM165.38 131.728C164.652 131.728 164.041 131.943 163.546 132.372C163.061 132.801 162.771 133.366 162.678 134.066H167.9C167.797 133.319 167.513 132.745 167.046 132.344C166.561 131.933 166.005 131.728 165.38 131.728ZM179.702 131V137.104H180.682V139.876H179.758V138H170.322V131H171.246V137.104H174.55V131H175.474V137.104H178.778V131H179.702ZM185.04 130.832C186.086 130.832 186.921 131.201 187.546 131.938C188.19 132.666 188.512 133.529 188.512 134.528C188.512 134.575 188.503 134.719 188.484 134.962H182.338C182.432 135.662 182.73 136.222 183.234 136.642C183.738 137.062 184.368 137.272 185.124 137.272C186.188 137.272 186.94 136.875 187.378 136.082L188.19 136.558C187.882 137.062 187.458 137.459 186.916 137.748C186.384 138.028 185.782 138.168 185.11 138.168C184.009 138.168 183.113 137.823 182.422 137.132C181.732 136.441 181.386 135.564 181.386 134.5C181.386 133.445 181.727 132.573 182.408 131.882C183.09 131.182 183.967 130.832 185.04 130.832ZM185.04 131.728C184.312 131.728 183.701 131.943 183.206 132.372C182.721 132.801 182.432 133.366 182.338 134.066H187.56C187.458 133.319 187.173 132.745 186.706 132.344C186.221 131.933 185.666 131.728 185.04 131.728ZM197.234 130.832C198.233 130.832 199.082 131.187 199.782 131.896C200.491 132.605 200.846 133.473 200.846 134.5C200.846 135.527 200.491 136.395 199.782 137.104C199.082 137.813 198.233 138.168 197.234 138.168C195.993 138.168 195.05 137.655 194.406 136.628V140.8H193.482V131H194.406V132.372C195.05 131.345 195.993 130.832 197.234 130.832ZM195.204 136.474C195.736 137.006 196.389 137.272 197.164 137.272C197.939 137.272 198.592 137.006 199.124 136.474C199.656 135.923 199.922 135.265 199.922 134.5C199.922 133.725 199.656 133.072 199.124 132.54C198.592 131.999 197.939 131.728 197.164 131.728C196.389 131.728 195.736 131.999 195.204 132.54C194.672 133.072 194.406 133.725 194.406 134.5C194.406 135.265 194.672 135.923 195.204 136.474ZM208.402 132.372V131H209.326V138H208.402V136.628C207.758 137.655 206.816 138.168 205.574 138.168C204.576 138.168 203.722 137.813 203.012 137.104C202.312 136.395 201.962 135.527 201.962 134.5C201.962 133.473 202.312 132.605 203.012 131.896C203.722 131.187 204.576 130.832 205.574 130.832C206.816 130.832 207.758 131.345 208.402 132.372ZM203.684 136.474C204.216 137.006 204.87 137.272 205.644 137.272C206.419 137.272 207.072 137.006 207.604 136.474C208.136 135.923 208.402 135.265 208.402 134.5C208.402 133.725 208.136 133.072 207.604 132.54C207.072 131.999 206.419 131.728 205.644 131.728C204.87 131.728 204.216 131.999 203.684 132.54C203.152 133.072 202.886 133.725 202.886 134.5C202.886 135.265 203.152 135.923 203.684 136.474ZM214.895 134.402C215.707 134.71 216.113 135.27 216.113 136.082C216.113 136.67 215.884 137.165 215.427 137.566C214.988 137.967 214.344 138.168 213.495 138.168C212.076 138.168 211.152 137.608 210.723 136.488L211.507 136.026C211.805 136.857 212.468 137.272 213.495 137.272C214.027 137.272 214.442 137.16 214.741 136.936C215.039 136.703 215.189 136.399 215.189 136.026C215.189 135.69 215.067 135.424 214.825 135.228C214.582 135.023 214.255 134.92 213.845 134.92H212.823V134.024H213.565C213.966 134.024 214.279 133.926 214.503 133.73C214.736 133.525 214.853 133.245 214.853 132.89C214.853 132.554 214.713 132.279 214.433 132.064C214.162 131.84 213.803 131.728 213.355 131.728C212.487 131.728 211.903 132.078 211.605 132.778L210.835 132.33C211.301 131.331 212.141 130.832 213.355 130.832C214.101 130.832 214.689 131.028 215.119 131.42C215.557 131.803 215.777 132.274 215.777 132.834C215.777 133.553 215.483 134.075 214.895 134.402ZM218.497 135.34H217.797L217.587 131V128.2H218.707V131L218.497 135.34ZM218.917 137.37C218.917 137.585 218.842 137.767 218.693 137.916C218.544 138.065 218.362 138.14 218.147 138.14C217.932 138.14 217.75 138.065 217.601 137.916C217.452 137.767 217.377 137.585 217.377 137.37C217.377 137.155 217.452 136.973 217.601 136.824C217.75 136.675 217.932 136.6 218.147 136.6C218.362 136.6 218.544 136.675 218.693 136.824C218.842 136.973 218.917 137.155 218.917 137.37Z" fill="white"/>
<circle cx="16.3192" cy="116.23" r="5.41999" fill="#C81912"/>
<circle cx="52.0792" cy="108.429" r="10.3175" fill="#C81912"/>
<path fill-rule="evenodd" clip-rule="evenodd" d="M15.2155 126.237C15.1108 125.713 14.7271 125.288 14.2161 125.13C13.6421 124.953 13.0184 125.147 12.6452 125.617L10.5001 128.321C9.03091 130.173 6.67521 131.049 4.32052 130.839C-1.45066 130.325 -7.40783 130.786 -13.3335 132.35C-40.7395 139.583 -57.0926 167.664 -49.8591 195.07C-42.6256 222.476 -14.5446 238.83 12.8615 231.596C40.2675 224.363 56.6206 196.282 49.3871 168.876C45.2393 153.16 34.2365 141.079 20.4369 134.996C18.1387 133.983 16.3661 131.998 15.8742 129.535L15.2155 126.237Z" fill="#C81912"/>
<circle cx="6.48196" cy="90.6092" r="2.77061" transform="rotate(-22.0902 6.48196 90.6092)" fill="#C81912"/>
</g>
<path fill-rule="evenodd" clip-rule="evenodd" d="M49.1361 55.5883C49.465 55.3796 49.8239 55.2217 50.1966 55.1085C61.7511 51.5987 70.1601 40.8614 70.1601 28.16C70.1601 12.6077 57.5524 0 42.0001 0C26.4477 0 13.8401 12.6077 13.8401 28.16C13.8401 39.2392 20.2383 48.824 29.5413 53.421C29.5518 53.4262 29.5475 53.4421 29.5358 53.4412C29.5283 53.4406 29.5226 53.4478 29.5248 53.455L31.7939 60.6403C32.5848 63.1449 35.5339 64.2205 37.7515 62.8131L49.1361 55.5883Z" fill="#C81912"/>
<path d="M51.8134 20.6379C52.6418 19.8095 52.6418 18.4664 51.8134 17.638L51.362 17.1865C50.5336 16.3581 49.1904 16.3581 48.362 17.1865L42 23.5486L35.6379 17.1865C34.8095 16.3581 33.4664 16.3581 32.638 17.1865L32.1865 17.638C31.3581 18.4664 31.3581 19.8095 32.1865 20.6379L38.5486 27L32.1865 33.3621C31.3581 34.1905 31.3581 35.5336 32.1865 36.362L32.638 36.8135C33.4664 37.6419 34.8095 37.6419 35.6379 36.8135L42 30.4514L48.362 36.8135C49.1904 37.6419 50.5336 37.6419 51.362 36.8135L51.8134 36.362C52.6419 35.5336 52.6418 34.1905 51.8134 33.3621L45.4514 27L51.8134 20.6379Z" fill="white"/>
<defs>
<clipPath id="clip0_623_581">
<rect y="34" width="288" height="132" rx="32" fill="white"/>
</clipPath>
<clipPath id="clip1_623_581">
<rect width="24" height="24" fill="white" transform="translate(248 50)"/>
</clipPath>
</defs>
</svg>
