<svg width="288" height="161" viewBox="0 0 288 161" fill="none" xmlns="http://www.w3.org/2000/svg">
<g clip-path="url(#clip0_623_631)">
<rect y="29" width="288" height="132" rx="32" fill="#B5FFA2"/>
<g clip-path="url(#clip1_623_631)">
<path d="M260 56.5561L265.778 50.7781L266.761 51.7613L260.983 57.5394L266.761 63.3174L265.778 64.3006L260 58.5226L254.222 64.3006L253.239 63.3174L259.017 57.5394L253.239 51.7613L254.222 50.7781L260 56.5561Z" fill="#333333"/>
</g>
<circle cx="10.6075" cy="95.2955" r="9.29547" fill="#7DED61"/>
<circle cx="70.0986" cy="133.717" r="3.71819" fill="#7DED61"/>
<path d="M69.4438 97.0254C72.4971 104.548 68.8737 113.122 61.3507 116.175C60.5208 116.512 59.6781 116.768 58.8315 116.946C54.1204 117.937 48.8591 119.284 46.3382 123.386C43.3951 128.174 45.0036 134.393 49.3496 137.957C58.015 145.064 65.0268 154.432 69.3829 165.619C82.9059 200.348 65.7149 239.464 30.9856 252.987C-3.74364 266.51 -42.8599 249.319 -56.3829 214.59C-69.9059 179.861 -52.7149 140.745 -17.9856 127.222C-2.81658 121.315 13.1894 121.268 27.5341 125.982C32.7299 127.69 38.6536 126.072 41.5174 121.413L42.5823 119.68C44.694 116.244 43.7172 111.819 42.2006 108.082C39.1473 100.559 42.7707 91.9855 50.2937 88.9322C57.8167 85.8789 66.3906 89.5024 69.4438 97.0254Z" fill="#7DED61"/>
<path d="M105.232 52.768H107.392L113.656 61H116.896L109.696 51.424L116.656 43H113.392L107.488 50.248H105.232V43H102.544V61H105.232V52.768ZM122.532 48.856C118.932 48.856 116.268 51.472 116.268 55.024C116.268 58.6 118.932 61.216 122.532 61.216C126.156 61.216 128.796 58.6 128.796 55.024C128.796 51.472 126.156 48.856 122.532 48.856ZM122.532 51.136C124.716 51.136 126.204 52.696 126.204 55.024C126.204 57.352 124.716 58.936 122.532 58.936C120.348 58.936 118.86 57.352 118.86 55.024C118.86 52.696 120.348 51.136 122.532 51.136ZM129.218 64.576H131.666V61H139.97V64.576H142.418V58.84H140.787V49.072H131.786L131.642 53.008C131.522 56.656 131.162 58.216 130.322 58.84H129.218V64.576ZM134.066 52.936L134.114 51.232H138.314V58.84H132.962C133.659 57.664 133.995 55.792 134.066 52.936ZM107.2 76.856C103.6 76.856 100.936 79.472 100.936 83.024C100.936 86.6 103.6 89.216 107.2 89.216C110.824 89.216 113.464 86.6 113.464 83.024C113.464 79.472 110.824 76.856 107.2 76.856ZM107.2 79.136C109.384 79.136 110.872 80.696 110.872 83.024C110.872 85.352 109.384 86.936 107.2 86.936C105.016 86.936 103.528 85.352 103.528 83.024C103.528 80.696 105.016 79.136 107.2 79.136ZM117.826 89H120.322V79.232H124.258V77.072H113.89V79.232H117.826V89ZM125.762 89H128.234V79.232H133.586V89H136.058V77.072H125.762V89ZM138.961 77.072V94.28H141.433V87.416C142.393 88.544 143.785 89.216 145.393 89.216C148.705 89.216 151.225 86.6 151.225 83.024C151.225 79.472 148.705 76.856 145.393 76.856C143.737 76.856 142.345 77.576 141.361 78.752L141.265 77.072H138.961ZM145.033 79.136C147.169 79.136 148.633 80.696 148.633 83.024C148.633 85.352 147.169 86.936 145.033 86.936C142.873 86.936 141.433 85.352 141.433 83.024C141.433 80.696 142.873 79.136 145.033 79.136ZM160.488 89H162.72V81.704C162.72 78.512 160.704 76.856 157.632 76.856C154.776 76.856 152.88 78.32 152.304 80.6L154.68 81.032C155.04 79.616 156.072 78.968 157.608 78.968C159.024 78.968 160.032 79.616 160.272 81.08L157.056 81.824C154.392 82.448 152.376 83.408 152.376 85.784C152.376 87.944 153.984 89.216 156.192 89.216C157.968 89.216 159.432 88.4 160.368 87.032L160.488 89ZM154.92 85.616C154.92 84.584 155.76 84.128 157.128 83.792L160.32 83V83.288C160.32 85.832 158.472 87.128 156.624 87.128C155.568 87.128 154.92 86.576 154.92 85.616ZM165.359 89H171.479C173.615 89 175.295 87.8 175.295 85.64C175.295 84.152 174.48 83.168 173.063 82.784C174.119 82.304 174.743 81.392 174.743 80.144C174.743 78.128 173.231 77.072 171.047 77.072H165.359V89ZM170.759 79.064C171.815 79.064 172.367 79.544 172.367 80.504C172.367 81.44 171.839 81.944 170.807 81.944H167.759V79.064H170.759ZM170.975 86.984H167.759V83.912H171.023C172.151 83.912 172.775 84.464 172.775 85.448C172.775 86.48 172.151 86.984 170.975 86.984ZM175.805 86.888L175.493 89.048C175.853 89.168 176.141 89.216 176.573 89.216C179.141 89.216 180.269 87.608 180.509 81.68L180.605 79.232H184.661V89H187.133V77.072H178.229L178.061 81.224C177.845 86.336 177.293 86.936 176.189 86.936C176.021 86.936 175.925 86.912 175.805 86.888ZM195.327 89.216C198.207 89.216 200.271 87.776 200.919 85.4L198.543 84.968C198.111 86.24 197.079 87.032 195.327 87.032C193.335 87.032 191.919 85.928 191.679 83.72H200.919C200.967 83.336 201.015 82.928 201.015 82.568C201.015 79.184 198.615 76.856 195.183 76.856C191.655 76.856 189.111 79.472 189.111 83.024C189.111 86.624 191.487 89.216 195.327 89.216ZM195.183 78.944C196.935 78.944 198.135 80 198.375 81.728H191.775C192.183 79.88 193.599 78.944 195.183 78.944ZM203.058 89H205.53V83.864H211.05V89H213.546V77.072H211.05V81.704H205.53V77.072H203.058V89Z" fill="#333333"/>
<path d="M103.136 110.96L107.98 116H106.692L102.1 111.254V116H101.12V106.2H102.1V110.68L106.552 106.2H107.84L103.136 110.96ZM114.338 115.118C113.62 115.818 112.752 116.168 111.734 116.168C110.698 116.168 109.826 115.818 109.116 115.118C108.407 114.409 108.052 113.536 108.052 112.5C108.052 111.464 108.407 110.596 109.116 109.896C109.826 109.187 110.698 108.832 111.734 108.832C112.761 108.832 113.629 109.187 114.338 109.896C115.057 110.596 115.416 111.464 115.416 112.5C115.416 113.527 115.057 114.399 114.338 115.118ZM109.774 114.474C110.306 115.006 110.96 115.272 111.734 115.272C112.509 115.272 113.162 115.006 113.694 114.474C114.226 113.923 114.492 113.265 114.492 112.5C114.492 111.725 114.226 111.072 113.694 110.54C113.162 109.999 112.509 109.728 111.734 109.728C110.96 109.728 110.306 109.999 109.774 110.54C109.242 111.072 108.976 111.725 108.976 112.5C108.976 113.265 109.242 113.923 109.774 114.474ZM122.569 109V115.104H123.549V117.876H122.625V116H116.913V117.876H115.989V115.104H116.843C117.319 114.469 117.557 113.587 117.557 112.458V109H122.569ZM117.963 115.104H121.645V109.896H118.481V112.458C118.481 113.541 118.308 114.423 117.963 115.104ZM131.219 114.866L133.487 109H134.467L131.471 116.644C131.191 117.353 130.799 117.899 130.295 118.282C129.8 118.674 129.249 118.847 128.643 118.8V117.932C129.483 118.035 130.122 117.549 130.561 116.476L130.743 116.042L127.607 109H128.587L131.219 114.866ZM138.572 116.168C137.517 116.168 136.64 115.818 135.94 115.118C135.24 114.399 134.89 113.527 134.89 112.5C134.89 111.464 135.24 110.596 135.94 109.896C136.64 109.187 137.517 108.832 138.572 108.832C139.263 108.832 139.883 109 140.434 109.336C140.985 109.663 141.386 110.106 141.638 110.666L140.882 111.1C140.695 110.68 140.392 110.349 139.972 110.106C139.561 109.854 139.095 109.728 138.572 109.728C137.797 109.728 137.144 109.999 136.612 110.54C136.08 111.072 135.814 111.725 135.814 112.5C135.814 113.265 136.08 113.923 136.612 114.474C137.144 115.006 137.797 115.272 138.572 115.272C139.085 115.272 139.547 115.151 139.958 114.908C140.378 114.665 140.705 114.329 140.938 113.9L141.708 114.348C141.419 114.908 140.994 115.351 140.434 115.678C139.874 116.005 139.253 116.168 138.572 116.168ZM143.035 109H148.915V116H147.991V109.896H143.959V116H143.035V109ZM154.103 108.832C155.148 108.832 155.983 109.201 156.609 109.938C157.253 110.666 157.575 111.529 157.575 112.528C157.575 112.575 157.565 112.719 157.547 112.962H151.401C151.494 113.662 151.793 114.222 152.297 114.642C152.801 115.062 153.431 115.272 154.187 115.272C155.251 115.272 156.002 114.875 156.441 114.082L157.253 114.558C156.945 115.062 156.52 115.459 155.979 115.748C155.447 116.028 154.845 116.168 154.173 116.168C153.071 116.168 152.175 115.823 151.485 115.132C150.794 114.441 150.449 113.564 150.449 112.5C150.449 111.445 150.789 110.573 151.471 109.882C152.152 109.182 153.029 108.832 154.103 108.832ZM154.103 109.728C153.375 109.728 152.763 109.943 152.269 110.372C151.783 110.801 151.494 111.366 151.401 112.066H156.623C156.52 111.319 156.235 110.745 155.769 110.344C155.283 109.933 154.728 109.728 154.103 109.728ZM167.5 115.104V109H168.424V116H159.044V109H159.968V115.104H163.272V109H164.196V115.104H167.5ZM175.334 112.052V109H176.258V116H175.334V112.948H171.302V116H170.378V109H171.302V112.052H175.334ZM184.078 115.118C183.36 115.818 182.492 116.168 181.474 116.168C180.438 116.168 179.566 115.818 178.856 115.118C178.147 114.409 177.792 113.536 177.792 112.5C177.792 111.464 178.147 110.596 178.856 109.896C179.566 109.187 180.438 108.832 181.474 108.832C182.501 108.832 183.369 109.187 184.078 109.896C184.797 110.596 185.156 111.464 185.156 112.5C185.156 113.527 184.797 114.399 184.078 115.118ZM179.514 114.474C180.046 115.006 180.7 115.272 181.474 115.272C182.249 115.272 182.902 115.006 183.434 114.474C183.966 113.923 184.232 113.265 184.232 112.5C184.232 111.725 183.966 111.072 183.434 110.54C182.902 109.999 182.249 109.728 181.474 109.728C180.7 109.728 180.046 109.999 179.514 110.54C178.982 111.072 178.716 111.725 178.716 112.5C178.716 113.265 178.982 113.923 179.514 114.474ZM196.069 115.118C195.35 115.818 194.482 116.168 193.465 116.168C192.429 116.168 191.556 115.818 190.847 115.118C190.137 114.409 189.783 113.536 189.783 112.5C189.783 111.464 190.137 110.596 190.847 109.896C191.556 109.187 192.429 108.832 193.465 108.832C194.491 108.832 195.359 109.187 196.069 109.896C196.787 110.596 197.147 111.464 197.147 112.5C197.147 113.527 196.787 114.399 196.069 115.118ZM191.505 114.474C192.037 115.006 192.69 115.272 193.465 115.272C194.239 115.272 194.893 115.006 195.425 114.474C195.957 113.923 196.223 113.265 196.223 112.5C196.223 111.725 195.957 111.072 195.425 110.54C194.893 109.999 194.239 109.728 193.465 109.728C192.69 109.728 192.037 109.999 191.505 110.54C190.973 111.072 190.707 111.725 190.707 112.5C190.707 113.265 190.973 113.923 191.505 114.474ZM197.579 109H203.459V109.896H200.981V116H200.057V109.896H197.579V109ZM204.585 109H210.465V116H209.541V109.896H205.509V116H204.585V109ZM216.171 108.832C217.17 108.832 218.019 109.187 218.719 109.896C219.429 110.605 219.783 111.473 219.783 112.5C219.783 113.527 219.429 114.395 218.719 115.104C218.019 115.813 217.17 116.168 216.171 116.168C214.93 116.168 213.987 115.655 213.343 114.628V118.8H212.419V109H213.343V110.372C213.987 109.345 214.93 108.832 216.171 108.832ZM214.141 114.474C214.673 115.006 215.327 115.272 216.101 115.272C216.876 115.272 217.529 115.006 218.061 114.474C218.593 113.923 218.859 113.265 218.859 112.5C218.859 111.725 218.593 111.072 218.061 110.54C217.529 109.999 216.876 109.728 216.101 109.728C215.327 109.728 214.673 109.999 214.141 110.54C213.609 111.072 213.343 111.725 213.343 112.5C213.343 113.265 213.609 113.923 214.141 114.474ZM227.34 110.372V109H228.264V116H227.34V114.628C226.696 115.655 225.753 116.168 224.512 116.168C223.513 116.168 222.659 115.813 221.95 115.104C221.25 114.395 220.9 113.527 220.9 112.5C220.9 111.473 221.25 110.605 221.95 109.896C222.659 109.187 223.513 108.832 224.512 108.832C225.753 108.832 226.696 109.345 227.34 110.372ZM222.622 114.474C223.154 115.006 223.807 115.272 224.582 115.272C225.357 115.272 226.01 115.006 226.542 114.474C227.074 113.923 227.34 113.265 227.34 112.5C227.34 111.725 227.074 111.072 226.542 110.54C226.01 109.999 225.357 109.728 224.582 109.728C223.807 109.728 223.154 109.999 222.622 110.54C222.09 111.072 221.824 111.725 221.824 112.5C221.824 113.265 222.09 113.923 222.622 114.474ZM234.672 112.402C235.438 112.682 235.82 113.228 235.82 114.04C235.82 114.619 235.624 115.09 235.232 115.454C234.85 115.818 234.313 116 233.622 116H230.22V109H233.342C234.014 109 234.537 109.173 234.91 109.518C235.293 109.863 235.484 110.316 235.484 110.876C235.484 111.576 235.214 112.085 234.672 112.402ZM233.342 109.896H231.144V112.024H233.342C234.154 112.024 234.56 111.66 234.56 110.932C234.56 110.605 234.453 110.353 234.238 110.176C234.033 109.989 233.734 109.896 233.342 109.896ZM231.144 115.104H233.622C234.033 115.104 234.346 115.006 234.56 114.81C234.784 114.614 234.896 114.339 234.896 113.984C234.896 113.648 234.784 113.387 234.56 113.2C234.346 113.013 234.033 112.92 233.622 112.92H231.144V115.104ZM237.675 109H242.687V116H241.763V109.896H238.599V113.018C238.599 114.185 238.375 114.987 237.927 115.426C237.488 115.865 236.881 116.056 236.107 116V115.132C236.648 115.188 237.045 115.057 237.297 114.74C237.549 114.423 237.675 113.849 237.675 113.018V109ZM247.878 108.832C248.923 108.832 249.759 109.201 250.384 109.938C251.028 110.666 251.35 111.529 251.35 112.528C251.35 112.575 251.341 112.719 251.322 112.962H245.176C245.269 113.662 245.568 114.222 246.072 114.642C246.576 115.062 247.206 115.272 247.962 115.272C249.026 115.272 249.777 114.875 250.216 114.082L251.028 114.558C250.72 115.062 250.295 115.459 249.754 115.748C249.222 116.028 248.62 116.168 247.948 116.168C246.847 116.168 245.951 115.823 245.26 115.132C244.569 114.441 244.224 113.564 244.224 112.5C244.224 111.445 244.565 110.573 245.246 109.882C245.927 109.182 246.805 108.832 247.878 108.832ZM247.878 109.728C247.15 109.728 246.539 109.943 246.044 110.372C245.559 110.801 245.269 111.366 245.176 112.066H250.398C250.295 111.319 250.011 110.745 249.544 110.344C249.059 109.933 248.503 109.728 247.878 109.728ZM257.776 112.052V109H258.7V116H257.776V112.948H253.744V116H252.82V109H253.744V112.052H257.776ZM105.936 134.052V131H106.86V138H105.936V134.948H101.904V138H100.98V131H101.904V134.052H105.936ZM114.834 132.372V131H115.758V138H114.834V136.628C114.19 137.655 113.247 138.168 112.006 138.168C111.007 138.168 110.153 137.813 109.444 137.104C108.744 136.395 108.394 135.527 108.394 134.5C108.394 133.473 108.744 132.605 109.444 131.896C110.153 131.187 111.007 130.832 112.006 130.832C113.247 130.832 114.19 131.345 114.834 132.372ZM110.116 136.474C110.648 137.006 111.301 137.272 112.076 137.272C112.851 137.272 113.504 137.006 114.036 136.474C114.568 135.923 114.834 135.265 114.834 134.5C114.834 133.725 114.568 133.072 114.036 132.54C113.504 131.999 112.851 131.728 112.076 131.728C111.301 131.728 110.648 131.999 110.116 132.54C109.584 133.072 109.318 133.725 109.318 134.5C109.318 135.265 109.584 135.923 110.116 136.474ZM125.666 134.402C126.432 134.682 126.814 135.228 126.814 136.04C126.814 136.619 126.618 137.09 126.226 137.454C125.844 137.818 125.307 138 124.616 138H121.214V131H124.336C125.008 131 125.531 131.173 125.904 131.518C126.287 131.863 126.478 132.316 126.478 132.876C126.478 133.576 126.208 134.085 125.666 134.402ZM124.336 131.896H122.138V134.024H124.336C125.148 134.024 125.554 133.66 125.554 132.932C125.554 132.605 125.447 132.353 125.232 132.176C125.027 131.989 124.728 131.896 124.336 131.896ZM122.138 137.104H124.616C125.027 137.104 125.34 137.006 125.554 136.81C125.778 136.614 125.89 136.339 125.89 135.984C125.89 135.648 125.778 135.387 125.554 135.2C125.34 135.013 125.027 134.92 124.616 134.92H122.138V137.104ZM134.234 132.372V131H135.158V138H134.234V136.628C133.59 137.655 132.648 138.168 131.406 138.168C130.408 138.168 129.554 137.813 128.844 137.104C128.144 136.395 127.794 135.527 127.794 134.5C127.794 133.473 128.144 132.605 128.844 131.896C129.554 131.187 130.408 130.832 131.406 130.832C132.648 130.832 133.59 131.345 134.234 132.372ZM129.516 136.474C130.048 137.006 130.702 137.272 131.476 137.272C132.251 137.272 132.904 137.006 133.436 136.474C133.968 135.923 134.234 135.265 134.234 134.5C134.234 133.725 133.968 133.072 133.436 132.54C132.904 131.999 132.251 131.728 131.476 131.728C130.702 131.728 130.048 131.999 129.516 132.54C128.984 133.072 128.718 133.725 128.718 134.5C128.718 135.265 128.984 135.923 129.516 136.474ZM145.571 137.104V131H146.495V138H137.115V131H138.039V137.104H141.343V131H142.267V137.104H145.571ZM151.221 136.866L153.489 131H154.469L151.473 138.644C151.193 139.353 150.801 139.899 150.297 140.282C149.802 140.674 149.251 140.847 148.645 140.8V139.932C149.485 140.035 150.124 139.549 150.563 138.476L150.745 138.042L147.609 131H148.589L151.221 136.866ZM159.085 131H164.965V138H164.041V131.896H160.009V138H159.085V131ZM172.785 137.118C172.067 137.818 171.199 138.168 170.181 138.168C169.145 138.168 168.273 137.818 167.563 137.118C166.854 136.409 166.499 135.536 166.499 134.5C166.499 133.464 166.854 132.596 167.563 131.896C168.273 131.187 169.145 130.832 170.181 130.832C171.208 130.832 172.076 131.187 172.785 131.896C173.504 132.596 173.863 133.464 173.863 134.5C173.863 135.527 173.504 136.399 172.785 137.118ZM168.221 136.474C168.753 137.006 169.407 137.272 170.181 137.272C170.956 137.272 171.609 137.006 172.141 136.474C172.673 135.923 172.939 135.265 172.939 134.5C172.939 133.725 172.673 133.072 172.141 132.54C171.609 131.999 170.956 131.728 170.181 131.728C169.407 131.728 168.753 131.999 168.221 132.54C167.689 133.072 167.423 133.725 167.423 134.5C167.423 135.265 167.689 135.923 168.221 136.474ZM179.809 134.486V131H180.733V138H179.809V135.34C179.268 135.62 178.6 135.76 177.807 135.76C176.883 135.76 176.183 135.55 175.707 135.13C175.231 134.701 174.993 134.071 174.993 133.24V131H175.917V133.24C175.917 133.819 176.066 134.239 176.365 134.5C176.673 134.761 177.144 134.892 177.779 134.892C178.488 134.892 179.165 134.757 179.809 134.486ZM181.857 131H187.737V131.896H185.259V138H184.335V131.896H181.857V131ZM191.635 136.866L193.903 131H194.883L191.887 138.644C191.607 139.353 191.215 139.899 190.711 140.282C190.216 140.674 189.665 140.847 189.059 140.8V139.932C189.899 140.035 190.538 139.549 190.977 138.476L191.159 138.042L188.023 131H189.003L191.635 136.866ZM196.98 135.34H196.28L196.07 131V128.2H197.19V131L196.98 135.34ZM197.4 137.37C197.4 137.585 197.325 137.767 197.176 137.916C197.026 138.065 196.844 138.14 196.63 138.14C196.415 138.14 196.233 138.065 196.084 137.916C195.934 137.767 195.86 137.585 195.86 137.37C195.86 137.155 195.934 136.973 196.084 136.824C196.233 136.675 196.415 136.6 196.63 136.6C196.844 136.6 197.026 136.675 197.176 136.824C197.325 136.973 197.4 137.155 197.4 137.37Z" fill="#333333"/>
</g>
<path fill-rule="evenodd" clip-rule="evenodd" d="M48.796 56.32C64.2945 56.32 76.8585 43.7123 76.8585 28.16C76.8585 12.6077 64.2945 0 48.796 0C33.2974 0 20.7334 12.6077 20.7334 28.16C20.7334 36.917 24.7168 44.7405 30.9645 49.9053C30.9745 49.9135 30.9656 49.9295 30.9533 49.9253C30.9458 49.9227 30.938 49.9283 30.938 49.9362V57.494C30.938 60.4757 34.0829 62.4092 36.7435 61.0633L45.3148 56.7276C45.9798 56.3912 46.7253 56.2544 47.4698 56.2891C47.9093 56.3096 48.3514 56.32 48.796 56.32Z" fill="#7DED61"/>
<path fill-rule="evenodd" clip-rule="evenodd" d="M60.2079 17.3463C61.2671 18.1584 61.4692 19.6744 60.6598 20.7356L48.6495 36.4829C48.226 37.0381 47.5841 37.3832 46.8885 37.4295C46.1928 37.4757 45.5111 37.2188 45.0181 36.7245L37.3951 29.0814C36.4524 28.1362 36.4524 26.6063 37.3951 25.6611C38.3414 24.7124 39.8782 24.7124 40.8245 25.6611L46.4851 31.3367L56.81 17.7994C57.6223 16.7344 59.145 16.5313 60.2079 17.3463Z" fill="white"/>
<defs>
<clipPath id="clip0_623_631">
<rect y="29" width="288" height="132" rx="32" fill="white"/>
</clipPath>
<clipPath id="clip1_623_631">
<rect width="24" height="24" fill="white" transform="translate(248 45)"/>
</clipPath>
</defs>
</svg>
