<svg width="28" height="28" viewBox="0 0 28 28" fill="none" xmlns="http://www.w3.org/2000/svg">
<path opacity="0.4" d="M19.7865 0.666397H8.2265C3.7065 0.666397 0.666504 3.83973 0.666504 8.55973V19.4531C0.666504 24.1597 3.7065 27.3331 8.2265 27.3331H19.7865C24.3065 27.3331 27.3332 24.1597 27.3332 19.4531V8.55973C27.3332 3.83973 24.3065 0.666397 19.7865 0.666397Z" fill="#EB5757"/>
<path d="M18.0206 16.3604L15.6486 13.9897L18.0193 11.6191C18.4753 11.1644 18.4753 10.4244 18.0193 9.96973C17.5633 9.51106 16.8259 9.51239 16.3699 9.96839L13.9979 12.3391L11.6259 9.96573C11.1699 9.50973 10.4313 9.51239 9.97528 9.96573C9.52061 10.4217 9.52061 11.1617 9.97528 11.6164L12.3486 13.9897L9.98061 16.3564C9.52461 16.8124 9.52461 17.5524 9.98061 18.0057C10.2086 18.2351 10.5059 18.3484 10.8046 18.3484C11.1046 18.3484 11.4019 18.2351 11.6299 18.0071L13.9979 15.6391L16.3713 18.0111C16.5993 18.2391 16.8966 18.3524 17.1953 18.3524C17.4939 18.3524 17.7926 18.2377 18.0206 18.0111C18.4766 17.5551 18.4766 16.8164 18.0206 16.3604Z" fill="#EB5757"/>
</svg>
