<svg width="438" height="174" viewBox="0 0 438 174" fill="none" xmlns="http://www.w3.org/2000/svg">
<g clip-path="url(#clip0_884_1939)">
<rect y="42" width="438" height="132" rx="32" fill="#B5FFA2"/>
<circle cx="20.607" cy="108.295" r="9.29547" fill="#7DED61"/>
<circle cx="80.099" cy="146.717" r="3.71819" fill="#7DED61"/>
<path d="M79.4438 110.025C82.4971 117.548 78.8737 126.122 71.3507 129.175C70.5208 129.512 69.6781 129.768 68.8315 129.946C64.1204 130.937 58.8591 132.284 56.3382 136.386C53.3951 141.174 55.0036 147.393 59.3496 150.957C68.015 158.064 75.0268 167.432 79.3829 178.619C92.9059 213.348 75.7149 252.464 40.9856 265.987C6.25636 279.51 -32.8599 262.319 -46.3829 227.59C-59.9059 192.861 -42.7149 153.744 -7.98562 140.221C7.18342 134.315 23.1894 134.268 37.5341 138.982C42.7299 140.69 48.6536 139.072 51.5174 134.413L52.5823 132.68C54.694 129.244 53.7172 124.819 52.2006 121.082C49.1473 113.559 52.7707 104.985 60.2937 101.932C67.8167 98.8789 76.3906 102.502 79.4438 110.025Z" fill="#7DED61"/>
<path d="M131.76 91C131.76 98.104 136.656 103.288 143.696 103.288C150.704 103.288 155.6 98.072 155.6 91C155.6 83.896 150.704 78.712 143.696 78.712C136.656 78.712 131.76 83.896 131.76 91ZM151.888 91C151.888 96.376 148.624 99.992 143.696 99.992C138.736 99.992 135.504 96.376 135.504 91C135.504 85.624 138.736 82.008 143.696 82.008C148.624 82.008 151.888 85.624 151.888 91ZM162.143 103H165.471V89.976H170.719V87.096H156.895V89.976H162.143V103ZM178.165 103.288C181.845 103.288 184.981 101.72 184.981 98.456C184.981 96.6 183.957 95.288 182.133 94.744C183.797 94.104 184.693 92.888 184.693 91.32C184.693 88.664 182.229 86.808 178.325 86.808C174.677 86.808 172.117 88.472 171.381 91.256L174.485 91.992C174.933 90.36 176.245 89.592 178.197 89.592C180.149 89.592 181.333 90.328 181.333 91.64C181.333 92.792 180.405 93.464 178.933 93.464H176.277V96.344H178.965C180.597 96.344 181.557 96.984 181.557 98.296C181.557 99.736 180.277 100.504 178.165 100.504C176.245 100.504 174.837 99.832 174.293 98.04L171.093 99C171.989 101.72 174.421 103.288 178.165 103.288ZM187.636 103H194.708C198.196 103 200.532 100.792 200.532 97.528C200.532 94.232 198.196 92.024 194.708 92.024H190.932V87.096H187.636V103ZM202.292 103H205.588V87.096H202.292V103ZM194.196 94.904C196.084 94.904 197.076 95.832 197.076 97.528C197.076 99.192 196.084 100.12 194.196 100.12H190.932V94.904H194.196ZM209.453 103H217.613C220.461 103 222.701 101.4 222.701 98.52C222.701 96.536 221.613 95.224 219.725 94.712C221.133 94.072 221.965 92.856 221.965 91.192C221.965 88.504 219.949 87.096 217.037 87.096H209.453V103ZM216.653 89.752C218.061 89.752 218.797 90.392 218.797 91.672C218.797 92.92 218.093 93.592 216.717 93.592H212.653V89.752H216.653ZM216.941 100.312H212.653V96.216H217.005C218.509 96.216 219.341 96.952 219.341 98.264C219.341 99.64 218.509 100.312 216.941 100.312ZM231.245 103H234.413L241.901 91.864V103H245.101V87.096H241.901L234.413 98.264V87.096H231.245V103ZM254.409 103.288C258.089 103.288 261.225 101.72 261.225 98.456C261.225 96.6 260.201 95.288 258.377 94.744C260.041 94.104 260.937 92.888 260.937 91.32C260.937 88.664 258.473 86.808 254.569 86.808C250.921 86.808 248.361 88.472 247.625 91.256L250.729 91.992C251.177 90.36 252.489 89.592 254.441 89.592C256.393 89.592 257.577 90.328 257.577 91.64C257.577 92.792 256.649 93.464 255.177 93.464H252.521V96.344H255.209C256.841 96.344 257.801 96.984 257.801 98.296C257.801 99.736 256.521 100.504 254.409 100.504C252.489 100.504 251.081 99.832 250.537 98.04L247.337 99C248.233 101.72 250.665 103.288 254.409 103.288ZM263.88 103H267.048V91.64L272.168 98.52H272.872L278.056 91.512V103H281.224V87.096H277.832L272.584 94.232L267.272 87.096H263.88V103ZM292.143 103.288C295.983 103.288 298.735 101.368 299.599 98.2L296.431 97.624C295.855 99.32 294.479 100.376 292.143 100.376C289.487 100.376 287.599 98.904 287.279 95.96H299.599C299.663 95.448 299.727 94.904 299.727 94.424C299.727 89.912 296.527 86.808 291.951 86.808C287.247 86.808 283.855 90.296 283.855 95.032C283.855 99.832 287.023 103.288 292.143 103.288ZM291.951 89.592C294.287 89.592 295.887 91 296.207 93.304H287.407C287.951 90.84 289.839 89.592 291.951 89.592ZM302.452 103H305.748V96.152H313.108V103H316.436V87.096H313.108V93.272H305.748V87.096H302.452V103ZM327.31 103.288C331.15 103.288 333.902 101.368 334.766 98.2L331.598 97.624C331.022 99.32 329.646 100.376 327.31 100.376C324.654 100.376 322.766 98.904 322.446 95.96H334.766C334.83 95.448 334.894 94.904 334.894 94.424C334.894 89.912 331.694 86.808 327.118 86.808C322.414 86.808 319.022 90.296 319.022 95.032C319.022 99.832 322.19 103.288 327.31 103.288ZM327.118 89.592C329.454 89.592 331.054 91 331.374 93.304H322.574C323.118 90.84 325.006 89.592 327.118 89.592ZM337.618 103H340.914V96.152H348.274V103H351.602V87.096H348.274V93.272H340.914V87.096H337.618V103Z" fill="#333333"/>
<path d="M139.226 135.698C138.246 136.678 137.047 137.168 135.628 137.168C134.209 137.168 133.01 136.678 132.03 135.698C131.05 134.699 130.56 133.5 130.56 132.1C130.56 130.691 131.05 129.496 132.03 128.516C133.01 127.527 134.209 127.032 135.628 127.032C137.047 127.032 138.246 127.527 139.226 128.516C140.206 129.496 140.696 130.691 140.696 132.1C140.696 133.5 140.206 134.699 139.226 135.698ZM131.54 132.1C131.54 133.257 131.932 134.233 132.716 135.026C133.5 135.819 134.471 136.216 135.628 136.216C136.785 136.216 137.756 135.819 138.54 135.026C139.324 134.233 139.716 133.257 139.716 132.1C139.716 130.952 139.324 129.981 138.54 129.188C137.756 128.385 136.785 127.984 135.628 127.984C134.471 127.984 133.5 128.385 132.716 129.188C131.932 129.981 131.54 130.952 131.54 132.1ZM141.392 130H147.272V130.896H144.794V137H143.87V130.896H141.392V130ZM151.737 133.402C152.549 133.71 152.955 134.27 152.955 135.082C152.955 135.67 152.726 136.165 152.269 136.566C151.83 136.967 151.186 137.168 150.337 137.168C148.918 137.168 147.994 136.608 147.565 135.488L148.349 135.026C148.647 135.857 149.31 136.272 150.337 136.272C150.869 136.272 151.284 136.16 151.583 135.936C151.881 135.703 152.031 135.399 152.031 135.026C152.031 134.69 151.909 134.424 151.667 134.228C151.424 134.023 151.097 133.92 150.687 133.92H149.665V133.024H150.407C150.808 133.024 151.121 132.926 151.345 132.73C151.578 132.525 151.695 132.245 151.695 131.89C151.695 131.554 151.555 131.279 151.275 131.064C151.004 130.84 150.645 130.728 150.197 130.728C149.329 130.728 148.745 131.078 148.447 131.778L147.677 131.33C148.143 130.331 148.983 129.832 150.197 129.832C150.943 129.832 151.531 130.028 151.961 130.42C152.399 130.803 152.619 131.274 152.619 131.834C152.619 132.553 152.325 133.075 151.737 133.402ZM155.283 132.66H157.201C157.845 132.66 158.396 132.865 158.853 133.276C159.31 133.677 159.539 134.195 159.539 134.83C159.539 135.474 159.31 135.997 158.853 136.398C158.414 136.799 157.864 137 157.201 137H154.359V130H155.283V132.66ZM160.519 137V130H161.443V137H160.519ZM155.283 136.104H157.201C157.602 136.104 157.938 135.987 158.209 135.754C158.48 135.511 158.615 135.203 158.615 134.83C158.615 134.457 158.48 134.153 158.209 133.92C157.938 133.677 157.602 133.556 157.201 133.556H155.283V136.104ZM167.862 133.402C168.627 133.682 169.01 134.228 169.01 135.04C169.01 135.619 168.814 136.09 168.422 136.454C168.039 136.818 167.502 137 166.812 137H163.41V130H166.532C167.204 130 167.726 130.173 168.1 130.518C168.482 130.863 168.674 131.316 168.674 131.876C168.674 132.576 168.403 133.085 167.862 133.402ZM166.532 130.896H164.334V133.024H166.532C167.344 133.024 167.75 132.66 167.75 131.932C167.75 131.605 167.642 131.353 167.428 131.176C167.222 130.989 166.924 130.896 166.532 130.896ZM164.334 136.104H166.812C167.222 136.104 167.535 136.006 167.75 135.81C167.974 135.614 168.086 135.339 168.086 134.984C168.086 134.648 167.974 134.387 167.75 134.2C167.535 134.013 167.222 133.92 166.812 133.92H164.334V136.104ZM176.682 135.866L178.95 130H179.93L176.934 137.644C176.654 138.353 176.262 138.899 175.758 139.282C175.263 139.674 174.712 139.847 174.106 139.8V138.932C174.946 139.035 175.585 138.549 176.024 137.476L176.206 137.042L173.07 130H174.05L176.682 135.866ZM184.035 137.168C182.98 137.168 182.103 136.818 181.403 136.118C180.703 135.399 180.353 134.527 180.353 133.5C180.353 132.464 180.703 131.596 181.403 130.896C182.103 130.187 182.98 129.832 184.035 129.832C184.726 129.832 185.346 130 185.897 130.336C186.448 130.663 186.849 131.106 187.101 131.666L186.345 132.1C186.158 131.68 185.855 131.349 185.435 131.106C185.024 130.854 184.558 130.728 184.035 130.728C183.26 130.728 182.607 130.999 182.075 131.54C181.543 132.072 181.277 132.725 181.277 133.5C181.277 134.265 181.543 134.923 182.075 135.474C182.607 136.006 183.26 136.272 184.035 136.272C184.548 136.272 185.01 136.151 185.421 135.908C185.841 135.665 186.168 135.329 186.401 134.9L187.171 135.348C186.882 135.908 186.457 136.351 185.897 136.678C185.337 137.005 184.716 137.168 184.035 137.168ZM188.498 130H194.378V137H193.454V130.896H189.422V137H188.498V130ZM199.566 129.832C200.611 129.832 201.446 130.201 202.072 130.938C202.716 131.666 203.038 132.529 203.038 133.528C203.038 133.575 203.028 133.719 203.01 133.962H196.864C196.957 134.662 197.256 135.222 197.76 135.642C198.264 136.062 198.894 136.272 199.65 136.272C200.714 136.272 201.465 135.875 201.904 135.082L202.716 135.558C202.408 136.062 201.983 136.459 201.442 136.748C200.91 137.028 200.308 137.168 199.636 137.168C198.534 137.168 197.638 136.823 196.948 136.132C196.257 135.441 195.912 134.564 195.912 133.5C195.912 132.445 196.252 131.573 196.934 130.882C197.615 130.182 198.492 129.832 199.566 129.832ZM199.566 130.728C198.838 130.728 198.226 130.943 197.732 131.372C197.246 131.801 196.957 132.366 196.864 133.066H202.086C201.983 132.319 201.698 131.745 201.232 131.344C200.746 130.933 200.191 130.728 199.566 130.728ZM212.963 136.104V130H213.887V137H204.507V130H205.431V136.104H208.735V130H209.659V136.104H212.963ZM220.797 133.052V130H221.721V137H220.797V133.948H216.765V137H215.841V130H216.765V133.052H220.797ZM229.541 136.118C228.823 136.818 227.955 137.168 226.937 137.168C225.901 137.168 225.029 136.818 224.319 136.118C223.61 135.409 223.255 134.536 223.255 133.5C223.255 132.464 223.61 131.596 224.319 130.896C225.029 130.187 225.901 129.832 226.937 129.832C227.964 129.832 228.832 130.187 229.541 130.896C230.26 131.596 230.619 132.464 230.619 133.5C230.619 134.527 230.26 135.399 229.541 136.118ZM224.977 135.474C225.509 136.006 226.163 136.272 226.937 136.272C227.712 136.272 228.365 136.006 228.897 135.474C229.429 134.923 229.695 134.265 229.695 133.5C229.695 132.725 229.429 132.072 228.897 131.54C228.365 130.999 227.712 130.728 226.937 130.728C226.163 130.728 225.509 130.999 224.977 131.54C224.445 132.072 224.179 132.725 224.179 133.5C224.179 134.265 224.445 134.923 224.977 135.474ZM241.532 136.118C240.813 136.818 239.945 137.168 238.928 137.168C237.892 137.168 237.019 136.818 236.31 136.118C235.6 135.409 235.246 134.536 235.246 133.5C235.246 132.464 235.6 131.596 236.31 130.896C237.019 130.187 237.892 129.832 238.928 129.832C239.954 129.832 240.822 130.187 241.532 130.896C242.25 131.596 242.61 132.464 242.61 133.5C242.61 134.527 242.25 135.399 241.532 136.118ZM236.968 135.474C237.5 136.006 238.153 136.272 238.928 136.272C239.702 136.272 240.356 136.006 240.888 135.474C241.42 134.923 241.686 134.265 241.686 133.5C241.686 132.725 241.42 132.072 240.888 131.54C240.356 130.999 239.702 130.728 238.928 130.728C238.153 130.728 237.5 130.999 236.968 131.54C236.436 132.072 236.17 132.725 236.17 133.5C236.17 134.265 236.436 134.923 236.968 135.474ZM243.042 130H248.922V130.896H246.444V137H245.52V130.896H243.042V130ZM253.8 129.832C254.799 129.832 255.648 130.187 256.348 130.896C257.058 131.605 257.412 132.473 257.412 133.5C257.412 134.527 257.058 135.395 256.348 136.104C255.648 136.813 254.799 137.168 253.8 137.168C252.559 137.168 251.616 136.655 250.972 135.628V139.8H250.048V130H250.972V131.372C251.616 130.345 252.559 129.832 253.8 129.832ZM251.77 135.474C252.302 136.006 252.956 136.272 253.73 136.272C254.505 136.272 255.158 136.006 255.69 135.474C256.222 134.923 256.488 134.265 256.488 133.5C256.488 132.725 256.222 132.072 255.69 131.54C255.158 130.999 254.505 130.728 253.73 130.728C252.956 130.728 252.302 130.999 251.77 131.54C251.238 132.072 250.972 132.725 250.972 133.5C250.972 134.265 251.238 134.923 251.77 135.474ZM262.183 129.832C263.228 129.832 264.063 130.201 264.689 130.938C265.333 131.666 265.655 132.529 265.655 133.528C265.655 133.575 265.645 133.719 265.627 133.962H259.481C259.574 134.662 259.873 135.222 260.377 135.642C260.881 136.062 261.511 136.272 262.267 136.272C263.331 136.272 264.082 135.875 264.521 135.082L265.333 135.558C265.025 136.062 264.6 136.459 264.059 136.748C263.527 137.028 262.925 137.168 262.253 137.168C261.151 137.168 260.255 136.823 259.565 136.132C258.874 135.441 258.529 134.564 258.529 133.5C258.529 132.445 258.869 131.573 259.551 130.882C260.232 130.182 261.109 129.832 262.183 129.832ZM262.183 130.728C261.455 130.728 260.843 130.943 260.349 131.372C259.863 131.801 259.574 132.366 259.481 133.066H264.703C264.6 132.319 264.315 131.745 263.849 131.344C263.363 130.933 262.808 130.728 262.183 130.728ZM272.731 130V136.104H273.711V138.876H272.787V137H267.075V138.876H266.151V136.104H267.005C267.481 135.469 267.719 134.587 267.719 133.458V130H272.731ZM268.125 136.104H271.807V130.896H268.643V133.458C268.643 134.541 268.47 135.423 268.125 136.104ZM280.855 131.372V130H281.779V137H280.855V135.628C280.211 136.655 279.269 137.168 278.027 137.168C277.029 137.168 276.175 136.813 275.465 136.104C274.765 135.395 274.415 134.527 274.415 133.5C274.415 132.473 274.765 131.605 275.465 130.896C276.175 130.187 277.029 129.832 278.027 129.832C279.269 129.832 280.211 130.345 280.855 131.372ZM276.137 135.474C276.669 136.006 277.323 136.272 278.097 136.272C278.872 136.272 279.525 136.006 280.057 135.474C280.589 134.923 280.855 134.265 280.855 133.5C280.855 132.725 280.589 132.072 280.057 131.54C279.525 130.999 278.872 130.728 278.097 130.728C277.323 130.728 276.669 130.999 276.137 131.54C275.605 132.072 275.339 132.725 275.339 133.5C275.339 134.265 275.605 134.923 276.137 135.474ZM285.64 133.36L289.392 137H288.16L284.66 133.626V137H283.736V130H284.66V133.094L287.992 130H289.252L285.64 133.36ZM289.814 130H295.694V130.896H293.216V137H292.292V130.896H289.814V130ZM297.744 135.39L301.916 130H302.7V137H301.776V131.61L297.604 137H296.82V130H297.744V135.39ZM308.406 129.832C309.404 129.832 310.254 130.187 310.954 130.896C311.663 131.605 312.018 132.473 312.018 133.5C312.018 134.527 311.663 135.395 310.954 136.104C310.254 136.813 309.404 137.168 308.406 137.168C307.164 137.168 306.222 136.655 305.578 135.628V139.8H304.654V130H305.578V131.372C306.222 130.345 307.164 129.832 308.406 129.832ZM306.376 135.474C306.908 136.006 307.561 136.272 308.336 136.272C309.11 136.272 309.764 136.006 310.296 135.474C310.828 134.923 311.094 134.265 311.094 133.5C311.094 132.725 310.828 132.072 310.296 131.54C309.764 130.999 309.11 130.728 308.336 130.728C307.561 130.728 306.908 130.999 306.376 131.54C305.844 132.072 305.578 132.725 305.578 133.5C305.578 134.265 305.844 134.923 306.376 135.474ZM319.42 136.118C318.702 136.818 317.834 137.168 316.816 137.168C315.78 137.168 314.908 136.818 314.198 136.118C313.489 135.409 313.134 134.536 313.134 133.5C313.134 132.464 313.489 131.596 314.198 130.896C314.908 130.187 315.78 129.832 316.816 129.832C317.843 129.832 318.711 130.187 319.42 130.896C320.139 131.596 320.498 132.464 320.498 133.5C320.498 134.527 320.139 135.399 319.42 136.118ZM314.856 135.474C315.388 136.006 316.042 136.272 316.816 136.272C317.591 136.272 318.244 136.006 318.776 135.474C319.308 134.923 319.574 134.265 319.574 133.5C319.574 132.725 319.308 132.072 318.776 131.54C318.244 130.999 317.591 130.728 316.816 130.728C316.042 130.728 315.388 130.999 314.856 131.54C314.324 132.072 314.058 132.725 314.058 133.5C314.058 134.265 314.324 134.923 314.856 135.474ZM326.496 133.402C327.262 133.682 327.644 134.228 327.644 135.04C327.644 135.619 327.448 136.09 327.056 136.454C326.674 136.818 326.137 137 325.446 137H322.044V130H325.166C325.838 130 326.361 130.173 326.734 130.518C327.117 130.863 327.308 131.316 327.308 131.876C327.308 132.576 327.038 133.085 326.496 133.402ZM325.166 130.896H322.968V133.024H325.166C325.978 133.024 326.384 132.66 326.384 131.932C326.384 131.605 326.277 131.353 326.062 131.176C325.857 130.989 325.558 130.896 325.166 130.896ZM322.968 136.104H325.446C325.857 136.104 326.17 136.006 326.384 135.81C326.608 135.614 326.72 135.339 326.72 134.984C326.72 134.648 326.608 134.387 326.384 134.2C326.17 134.013 325.857 133.92 325.446 133.92H322.968V136.104ZM335.064 131.372V130H335.988V137H335.064V135.628C334.42 136.655 333.478 137.168 332.236 137.168C331.238 137.168 330.384 136.813 329.674 136.104C328.974 135.395 328.624 134.527 328.624 133.5C328.624 132.473 328.974 131.605 329.674 130.896C330.384 130.187 331.238 129.832 332.236 129.832C333.478 129.832 334.42 130.345 335.064 131.372ZM330.346 135.474C330.878 136.006 331.532 136.272 332.306 136.272C333.081 136.272 333.734 136.006 334.266 135.474C334.798 134.923 335.064 134.265 335.064 133.5C335.064 132.725 334.798 132.072 334.266 131.54C333.734 130.999 333.081 130.728 332.306 130.728C331.532 130.728 330.878 130.999 330.346 131.54C329.814 132.072 329.548 132.725 329.548 133.5C329.548 134.265 329.814 134.923 330.346 135.474ZM342.901 133.052V130H343.825V137H342.901V133.948H338.869V137H337.945V130H338.869V133.052H342.901ZM346.759 134.34H346.059L345.849 130V127.2H346.969V130L346.759 134.34ZM347.179 136.37C347.179 136.585 347.104 136.767 346.955 136.916C346.805 137.065 346.623 137.14 346.409 137.14C346.194 137.14 346.012 137.065 345.863 136.916C345.713 136.767 345.639 136.585 345.639 136.37C345.639 136.155 345.713 135.973 345.863 135.824C346.012 135.675 346.194 135.6 346.409 135.6C346.623 135.6 346.805 135.675 346.955 135.824C347.104 135.973 347.179 136.155 347.179 136.37Z" fill="#333333"/>
<g clip-path="url(#clip1_884_1939)">
<path d="M402 77.5561L407.778 71.7781L408.761 72.7613L402.983 78.5394L408.761 84.3174L407.778 85.3006L402 79.5226L396.222 85.3006L395.239 84.3174L401.017 78.5394L395.239 72.7613L396.222 71.7781L402 77.5561Z" fill="#333333"/>
</g>
</g>
<path fill-rule="evenodd" clip-rule="evenodd" d="M58.9997 68.64C77.9541 68.64 93.3197 53.2744 93.3197 34.32C93.3197 15.3656 77.9541 0 58.9997 0C40.0453 0 24.6797 15.3656 24.6797 34.32C24.6797 44.9926 29.5513 54.5274 37.192 60.822C37.2042 60.832 37.1934 60.8515 37.1784 60.8464C37.1693 60.8433 37.1597 60.8501 37.1597 60.8598V71.5042C37.1597 74.4834 40.2999 76.4171 42.9603 75.076L54.9717 69.0212C55.6351 68.6867 56.3783 68.5494 57.1202 68.5894C57.7425 68.623 58.3691 68.64 58.9997 68.64Z" fill="#7DED61"/>
<path fill-rule="evenodd" clip-rule="evenodd" d="M70.3007 24.3463C71.3598 25.1584 71.562 26.6744 70.7526 27.7356L58.7423 43.4829C58.3188 44.0381 57.6769 44.3832 56.9812 44.4295C56.2856 44.4757 55.6039 44.2188 55.1109 43.7245L47.4879 36.0814C46.5452 35.1362 46.5452 33.6063 47.4879 32.6611C48.4342 31.7124 49.971 31.7124 50.9172 32.6611L56.5779 38.3367L66.9028 24.7994C67.7151 23.7344 69.2378 23.5313 70.3007 24.3463Z" fill="white"/>
<defs>
<clipPath id="clip0_884_1939">
<rect y="42" width="438" height="132" rx="32" fill="white"/>
</clipPath>
<clipPath id="clip1_884_1939">
<rect width="24" height="24" fill="white" transform="translate(390 66)"/>
</clipPath>
</defs>
</svg>
