<svg width="438" height="174" viewBox="0 0 438 174" fill="none" xmlns="http://www.w3.org/2000/svg">
<g clip-path="url(#clip0_886_2853)">
<rect y="42" width="438" height="132" rx="32" fill="#F64B3C"/>
<g clip-path="url(#clip1_886_2853)">
<path d="M402 77.5561L407.778 71.7781L408.761 72.7613L402.983 78.5394L408.761 84.3174L407.778 85.3006L402 79.5226L396.222 85.3006L395.239 84.3174L401.017 78.5394L395.239 72.7613L396.222 71.7781L402 77.5561Z" fill="white"/>
</g>
<path d="M140.368 78.944C142.736 78.944 144.56 78.432 146.352 77.76V88H149.936V64H146.352V74.496C144.464 75.264 142.832 75.616 140.944 75.616C137.328 75.616 135.44 74.176 135.44 70.432V64H131.856V71.36C131.856 76.192 134.704 78.944 140.368 78.944ZM158.08 88H161.408V74.976H166.656V72.096H152.832V74.976H158.08V88ZM175.579 71.808C170.779 71.808 167.227 75.296 167.227 80.032C167.227 84.8 170.779 88.288 175.579 88.288C180.411 88.288 183.931 84.8 183.931 80.032C183.931 75.296 180.411 71.808 175.579 71.808ZM175.579 74.848C178.491 74.848 180.475 76.928 180.475 80.032C180.475 83.136 178.491 85.248 175.579 85.248C172.667 85.248 170.683 83.136 170.683 80.032C170.683 76.928 172.667 74.848 175.579 74.848ZM185.326 80.672V78.176H193.07V80.672H185.326ZM199.127 88H202.455V74.976H207.703V72.096H193.879V74.976H199.127V88ZM216.625 71.808C211.825 71.808 208.273 75.296 208.273 80.032C208.273 84.8 211.825 88.288 216.625 88.288C221.457 88.288 224.977 84.8 224.977 80.032C224.977 75.296 221.457 71.808 216.625 71.808ZM216.625 74.848C219.537 74.848 221.521 76.928 221.521 80.032C221.521 83.136 219.537 85.248 216.625 85.248C213.713 85.248 211.729 83.136 211.729 80.032C211.729 76.928 213.713 74.848 216.625 74.848ZM233.5 88H236.796V81.152H244.156V88H247.484V72.096H244.156V78.272H236.796V72.096H233.5V88ZM258.357 88.288C262.197 88.288 264.949 86.368 265.813 83.2L262.645 82.624C262.069 84.32 260.693 85.376 258.357 85.376C255.701 85.376 253.813 83.904 253.493 80.96H265.813C265.877 80.448 265.941 79.904 265.941 79.424C265.941 74.912 262.741 71.808 258.165 71.808C253.461 71.808 250.069 75.296 250.069 80.032C250.069 84.832 253.237 88.288 258.357 88.288ZM258.165 74.592C260.501 74.592 262.101 76 262.421 78.304H253.621C254.165 75.84 256.053 74.592 258.165 74.592ZM277.969 88H281.297V74.976H286.545V72.096H272.721V74.976H277.969V88ZM298.279 88H301.255V78.272C301.255 74.016 298.567 71.808 294.471 71.808C290.663 71.808 288.135 73.76 287.367 76.8L290.535 77.376C291.015 75.488 292.391 74.624 294.439 74.624C296.327 74.624 297.671 75.488 297.991 77.44L293.703 78.432C290.151 79.264 287.463 80.544 287.463 83.712C287.463 86.592 289.607 88.288 292.551 88.288C294.919 88.288 296.871 87.2 298.119 85.376L298.279 88ZM290.855 83.488C290.855 82.112 291.975 81.504 293.799 81.056L298.055 80V80.384C298.055 83.776 295.591 85.504 293.127 85.504C291.719 85.504 290.855 84.768 290.855 83.488ZM304.775 72.096V88H308.071V81.344H309.959L315.335 88H319.335L312.679 79.552L318.919 72.096H314.983L310.055 78.144H308.071V72.096H304.775ZM322.346 88.32C323.69 88.32 324.65 87.424 324.65 86.08C324.65 84.704 323.69 83.808 322.346 83.808C321.002 83.808 320.01 84.704 320.01 86.08C320.01 87.424 321.002 88.32 322.346 88.32ZM329.132 88.32C330.476 88.32 331.436 87.424 331.436 86.08C331.436 84.704 330.476 83.808 329.132 83.808C327.788 83.808 326.796 84.704 326.796 86.08C326.796 87.424 327.788 88.32 329.132 88.32ZM335.918 88.32C337.262 88.32 338.222 87.424 338.222 86.08C338.222 84.704 337.262 83.808 335.918 83.808C334.574 83.808 333.582 84.704 333.582 86.08C333.582 87.424 334.574 88.32 335.918 88.32Z" fill="white"/>
<path d="M137.42 116.498V112.2H138.4V122H137.42V117.422H132.1V122H131.12V112.2H132.1V116.498H137.42ZM143.73 114.832C144.775 114.832 145.61 115.201 146.236 115.938C146.88 116.666 147.202 117.529 147.202 118.528C147.202 118.575 147.192 118.719 147.174 118.962H141.028C141.121 119.662 141.42 120.222 141.924 120.642C142.428 121.062 143.058 121.272 143.814 121.272C144.878 121.272 145.629 120.875 146.068 120.082L146.88 120.558C146.572 121.062 146.147 121.459 145.606 121.748C145.074 122.028 144.472 122.168 143.8 122.168C142.698 122.168 141.802 121.823 141.112 121.132C140.421 120.441 140.076 119.564 140.076 118.5C140.076 117.445 140.416 116.573 141.098 115.882C141.779 115.182 142.656 114.832 143.73 114.832ZM143.73 115.728C143.002 115.728 142.39 115.943 141.896 116.372C141.41 116.801 141.121 117.366 141.028 118.066H146.25C146.147 117.319 145.862 116.745 145.396 116.344C144.91 115.933 144.355 115.728 143.73 115.728ZM152.171 115H158.051V122H157.127V115.896H153.095V122H152.171V115ZM165.871 121.118C165.153 121.818 164.285 122.168 163.267 122.168C162.231 122.168 161.359 121.818 160.649 121.118C159.94 120.409 159.585 119.536 159.585 118.5C159.585 117.464 159.94 116.596 160.649 115.896C161.359 115.187 162.231 114.832 163.267 114.832C164.294 114.832 165.162 115.187 165.871 115.896C166.59 116.596 166.949 117.464 166.949 118.5C166.949 119.527 166.59 120.399 165.871 121.118ZM161.307 120.474C161.839 121.006 162.493 121.272 163.267 121.272C164.042 121.272 164.695 121.006 165.227 120.474C165.759 119.923 166.025 119.265 166.025 118.5C166.025 117.725 165.759 117.072 165.227 116.54C164.695 115.999 164.042 115.728 163.267 115.728C162.493 115.728 161.839 115.999 161.307 116.54C160.775 117.072 160.509 117.725 160.509 118.5C160.509 119.265 160.775 119.923 161.307 120.474ZM168.95 115H173.962V122H173.038V115.896H169.874V119.018C169.874 120.185 169.65 120.987 169.202 121.426C168.764 121.865 168.157 122.056 167.382 122V121.132C167.924 121.188 168.32 121.057 168.572 120.74C168.824 120.423 168.95 119.849 168.95 119.018V115ZM178.691 120.866L180.959 115H181.939L178.943 122.644C178.663 123.353 178.271 123.899 177.767 124.282C177.273 124.674 176.722 124.847 176.115 124.8V123.932C176.955 124.035 177.595 123.549 178.033 122.476L178.215 122.042L175.079 115H176.059L178.691 120.866ZM187.592 118.486V115H188.516V122H187.592V119.34C187.051 119.62 186.384 119.76 185.59 119.76C184.666 119.76 183.966 119.55 183.49 119.13C183.014 118.701 182.776 118.071 182.776 117.24V115H183.7V117.24C183.7 117.819 183.85 118.239 184.148 118.5C184.456 118.761 184.928 118.892 185.562 118.892C186.272 118.892 186.948 118.757 187.592 118.486ZM191.404 120.39L195.576 115H196.36V122H195.436V116.61L191.264 122H190.48V115H191.404V120.39ZM199.042 115H204.054V122H203.13V115.896H199.966V119.018C199.966 120.185 199.742 120.987 199.294 121.426C198.855 121.865 198.249 122.056 197.474 122V121.132C198.015 121.188 198.412 121.057 198.664 120.74C198.916 120.423 199.042 119.849 199.042 119.018V115ZM211.877 121.118C211.159 121.818 210.291 122.168 209.273 122.168C208.237 122.168 207.365 121.818 206.655 121.118C205.946 120.409 205.591 119.536 205.591 118.5C205.591 117.464 205.946 116.596 206.655 115.896C207.365 115.187 208.237 114.832 209.273 114.832C210.3 114.832 211.168 115.187 211.877 115.896C212.596 116.596 212.955 117.464 212.955 118.5C212.955 119.527 212.596 120.399 211.877 121.118ZM207.313 120.474C207.845 121.006 208.499 121.272 209.273 121.272C210.048 121.272 210.701 121.006 211.233 120.474C211.765 119.923 212.031 119.265 212.031 118.5C212.031 117.725 211.765 117.072 211.233 116.54C210.701 115.999 210.048 115.728 209.273 115.728C208.499 115.728 207.845 115.999 207.313 116.54C206.781 117.072 206.515 117.725 206.515 118.5C206.515 119.265 206.781 119.923 207.313 120.474ZM217.763 122.168C216.709 122.168 215.831 121.818 215.131 121.118C214.431 120.399 214.081 119.527 214.081 118.5C214.081 117.464 214.431 116.596 215.131 115.896C215.831 115.187 216.709 114.832 217.763 114.832C218.454 114.832 219.075 115 219.625 115.336C220.176 115.663 220.577 116.106 220.829 116.666L220.073 117.1C219.887 116.68 219.583 116.349 219.163 116.106C218.753 115.854 218.286 115.728 217.763 115.728C216.989 115.728 216.335 115.999 215.803 116.54C215.271 117.072 215.005 117.725 215.005 118.5C215.005 119.265 215.271 119.923 215.803 120.474C216.335 121.006 216.989 121.272 217.763 121.272C218.277 121.272 218.739 121.151 219.149 120.908C219.569 120.665 219.896 120.329 220.129 119.9L220.899 120.348C220.61 120.908 220.185 121.351 219.625 121.678C219.065 122.005 218.445 122.168 217.763 122.168ZM223.15 117.66H225.068C225.712 117.66 226.263 117.865 226.72 118.276C227.177 118.677 227.406 119.195 227.406 119.83C227.406 120.474 227.177 120.997 226.72 121.398C226.281 121.799 225.731 122 225.068 122H222.226V115H223.15V117.66ZM223.15 121.104H225.068C225.469 121.104 225.805 120.987 226.076 120.754C226.347 120.511 226.482 120.203 226.482 119.83C226.482 119.457 226.347 119.153 226.076 118.92C225.805 118.677 225.469 118.556 225.068 118.556H223.15V121.104ZM238.168 121.118C237.45 121.818 236.582 122.168 235.564 122.168C234.528 122.168 233.656 121.818 232.946 121.118C232.237 120.409 231.882 119.536 231.882 118.5C231.882 117.464 232.237 116.596 232.946 115.896C233.656 115.187 234.528 114.832 235.564 114.832C236.591 114.832 237.459 115.187 238.168 115.896C238.887 116.596 239.246 117.464 239.246 118.5C239.246 119.527 238.887 120.399 238.168 121.118ZM233.604 120.474C234.136 121.006 234.79 121.272 235.564 121.272C236.339 121.272 236.992 121.006 237.524 120.474C238.056 119.923 238.322 119.265 238.322 118.5C238.322 117.725 238.056 117.072 237.524 116.54C236.992 115.999 236.339 115.728 235.564 115.728C234.79 115.728 234.136 115.999 233.604 116.54C233.072 117.072 232.806 117.725 232.806 118.5C232.806 119.265 233.072 119.923 233.604 120.474ZM239.679 115H245.559V115.896H243.081V122H242.157V115.896H239.679V115ZM250.437 114.832C251.436 114.832 252.285 115.187 252.985 115.896C253.694 116.605 254.049 117.473 254.049 118.5C254.049 119.527 253.694 120.395 252.985 121.104C252.285 121.813 251.436 122.168 250.437 122.168C249.196 122.168 248.253 121.655 247.609 120.628V124.8H246.685V115H247.609V116.372C248.253 115.345 249.196 114.832 250.437 114.832ZM248.407 120.474C248.939 121.006 249.592 121.272 250.367 121.272C251.142 121.272 251.795 121.006 252.327 120.474C252.859 119.923 253.125 119.265 253.125 118.5C253.125 117.725 252.859 117.072 252.327 116.54C251.795 115.999 251.142 115.728 250.367 115.728C249.592 115.728 248.939 115.999 248.407 116.54C247.875 117.072 247.609 117.725 247.609 118.5C247.609 119.265 247.875 119.923 248.407 120.474ZM258.819 114.832C259.865 114.832 260.7 115.201 261.325 115.938C261.969 116.666 262.291 117.529 262.291 118.528C262.291 118.575 262.282 118.719 262.263 118.962H256.117C256.211 119.662 256.509 120.222 257.013 120.642C257.517 121.062 258.147 121.272 258.903 121.272C259.967 121.272 260.719 120.875 261.157 120.082L261.969 120.558C261.661 121.062 261.237 121.459 260.695 121.748C260.163 122.028 259.561 122.168 258.889 122.168C257.788 122.168 256.892 121.823 256.201 121.132C255.511 120.441 255.165 119.564 255.165 118.5C255.165 117.445 255.506 116.573 256.187 115.882C256.869 115.182 257.746 114.832 258.819 114.832ZM258.819 115.728C258.091 115.728 257.48 115.943 256.985 116.372C256.5 116.801 256.211 117.366 256.117 118.066H261.339C261.237 117.319 260.952 116.745 260.485 116.344C260 115.933 259.445 115.728 258.819 115.728ZM269.368 115V121.104H270.348V123.876H269.424V122H263.712V123.876H262.788V121.104H263.642C264.118 120.469 264.356 119.587 264.356 118.458V115H269.368ZM264.762 121.104H268.444V115.896H265.28V118.458C265.28 119.541 265.107 120.423 264.762 121.104ZM277.492 116.372V115H278.416V122H277.492V120.628C276.848 121.655 275.906 122.168 274.664 122.168C273.666 122.168 272.812 121.813 272.102 121.104C271.402 120.395 271.052 119.527 271.052 118.5C271.052 117.473 271.402 116.605 272.102 115.896C272.812 115.187 273.666 114.832 274.664 114.832C275.906 114.832 276.848 115.345 277.492 116.372ZM272.774 120.474C273.306 121.006 273.96 121.272 274.734 121.272C275.509 121.272 276.162 121.006 276.694 120.474C277.226 119.923 277.492 119.265 277.492 118.5C277.492 117.725 277.226 117.072 276.694 116.54C276.162 115.999 275.509 115.728 274.734 115.728C273.96 115.728 273.306 115.999 272.774 116.54C272.242 117.072 271.976 117.725 271.976 118.5C271.976 119.265 272.242 119.923 272.774 120.474ZM282.277 118.36L286.029 122H284.797L281.297 118.626V122H280.373V115H281.297V118.094L284.629 115H285.889L282.277 118.36ZM286.451 115H292.331V115.896H289.853V122H288.929V115.896H286.451V115ZM294.381 120.39L298.553 115H299.337V122H298.413V116.61L294.241 122H293.457V115H294.381V120.39ZM305.043 114.832C306.041 114.832 306.891 115.187 307.591 115.896C308.3 116.605 308.655 117.473 308.655 118.5C308.655 119.527 308.3 120.395 307.591 121.104C306.891 121.813 306.041 122.168 305.043 122.168C303.801 122.168 302.859 121.655 302.215 120.628V124.8H301.291V115H302.215V116.372C302.859 115.345 303.801 114.832 305.043 114.832ZM303.013 120.474C303.545 121.006 304.198 121.272 304.973 121.272C305.747 121.272 306.401 121.006 306.933 120.474C307.465 119.923 307.731 119.265 307.731 118.5C307.731 117.725 307.465 117.072 306.933 116.54C306.401 115.999 305.747 115.728 304.973 115.728C304.198 115.728 303.545 115.999 303.013 116.54C302.481 117.072 302.215 117.725 302.215 118.5C302.215 119.265 302.481 119.923 303.013 120.474ZM316.057 121.118C315.338 121.818 314.47 122.168 313.453 122.168C312.417 122.168 311.544 121.818 310.835 121.118C310.126 120.409 309.771 119.536 309.771 118.5C309.771 117.464 310.126 116.596 310.835 115.896C311.544 115.187 312.417 114.832 313.453 114.832C314.48 114.832 315.348 115.187 316.057 115.896C316.776 116.596 317.135 117.464 317.135 118.5C317.135 119.527 316.776 120.399 316.057 121.118ZM311.493 120.474C312.025 121.006 312.678 121.272 313.453 121.272C314.228 121.272 314.881 121.006 315.413 120.474C315.945 119.923 316.211 119.265 316.211 118.5C316.211 117.725 315.945 117.072 315.413 116.54C314.881 115.999 314.228 115.728 313.453 115.728C312.678 115.728 312.025 115.999 311.493 116.54C310.961 117.072 310.695 117.725 310.695 118.5C310.695 119.265 310.961 119.923 311.493 120.474ZM323.133 118.402C323.899 118.682 324.281 119.228 324.281 120.04C324.281 120.619 324.085 121.09 323.693 121.454C323.311 121.818 322.774 122 322.083 122H318.681V115H321.803C322.475 115 322.998 115.173 323.371 115.518C323.754 115.863 323.945 116.316 323.945 116.876C323.945 117.576 323.675 118.085 323.133 118.402ZM321.803 115.896H319.605V118.024H321.803C322.615 118.024 323.021 117.66 323.021 116.932C323.021 116.605 322.914 116.353 322.699 116.176C322.494 115.989 322.195 115.896 321.803 115.896ZM319.605 121.104H322.083C322.494 121.104 322.807 121.006 323.021 120.81C323.245 120.614 323.357 120.339 323.357 119.984C323.357 119.648 323.245 119.387 323.021 119.2C322.807 119.013 322.494 118.92 322.083 118.92H319.605V121.104ZM331.701 116.372V115H332.625V122H331.701V120.628C331.057 121.655 330.115 122.168 328.873 122.168C327.875 122.168 327.021 121.813 326.311 121.104C325.611 120.395 325.261 119.527 325.261 118.5C325.261 117.473 325.611 116.605 326.311 115.896C327.021 115.187 327.875 114.832 328.873 114.832C330.115 114.832 331.057 115.345 331.701 116.372ZM326.983 120.474C327.515 121.006 328.169 121.272 328.943 121.272C329.718 121.272 330.371 121.006 330.903 120.474C331.435 119.923 331.701 119.265 331.701 118.5C331.701 117.725 331.435 117.072 330.903 116.54C330.371 115.999 329.718 115.728 328.943 115.728C328.169 115.728 327.515 115.999 326.983 116.54C326.451 117.072 326.185 117.725 326.185 118.5C326.185 119.265 326.451 119.923 326.983 120.474ZM333.742 115H339.622V115.896H337.144V122H336.22V115.896H333.742V115ZM341.672 117.66H343.59C344.234 117.66 344.784 117.865 345.242 118.276C345.699 118.677 345.928 119.195 345.928 119.83C345.928 120.474 345.699 120.997 345.242 121.398C344.803 121.799 344.252 122 343.59 122H340.748V115H341.672V117.66ZM341.672 121.104H343.59C343.991 121.104 344.327 120.987 344.598 120.754C344.868 120.511 345.004 120.203 345.004 119.83C345.004 119.457 344.868 119.153 344.598 118.92C344.327 118.677 343.991 118.556 343.59 118.556H341.672V121.104ZM136.86 137V143.104H137.84V145.876H136.916V144H131.204V145.876H130.28V143.104H131.134C131.61 142.469 131.848 141.587 131.848 140.458V137H136.86ZM132.254 143.104H135.936V137.896H132.772V140.458C132.772 141.541 132.599 142.423 132.254 143.104ZM144.984 138.372V137H145.908V144H144.984V142.628C144.34 143.655 143.398 144.168 142.156 144.168C141.158 144.168 140.304 143.813 139.594 143.104C138.894 142.395 138.544 141.527 138.544 140.5C138.544 139.473 138.894 138.605 139.594 137.896C140.304 137.187 141.158 136.832 142.156 136.832C143.398 136.832 144.34 137.345 144.984 138.372ZM140.266 142.474C140.798 143.006 141.452 143.272 142.226 143.272C143.001 143.272 143.654 143.006 144.186 142.474C144.718 141.923 144.984 141.265 144.984 140.5C144.984 139.725 144.718 139.072 144.186 138.54C143.654 137.999 143.001 137.728 142.226 137.728C141.452 137.728 140.798 137.999 140.266 138.54C139.734 139.072 139.468 139.725 139.468 140.5C139.468 141.265 139.734 141.923 140.266 142.474ZM152.821 140.052V137H153.745V144H152.821V140.948H148.789V144H147.865V137H148.789V140.052H152.821ZM160.655 140.052V137H161.579V144H160.655V140.948H156.623V144H155.699V137H156.623V140.052H160.655ZM164.457 139.66H166.375C167.019 139.66 167.569 139.865 168.027 140.276C168.484 140.677 168.713 141.195 168.713 141.83C168.713 142.474 168.484 142.997 168.027 143.398C167.588 143.799 167.037 144 166.375 144H163.533V137H164.457V139.66ZM169.693 144V137H170.617V144H169.693ZM164.457 143.104H166.375C166.776 143.104 167.112 142.987 167.383 142.754C167.653 142.511 167.789 142.203 167.789 141.83C167.789 141.457 167.653 141.153 167.383 140.92C167.112 140.677 166.776 140.556 166.375 140.556H164.457V143.104ZM175.818 136.832C176.863 136.832 177.698 137.201 178.324 137.938C178.968 138.666 179.29 139.529 179.29 140.528C179.29 140.575 179.28 140.719 179.262 140.962H173.116C173.209 141.662 173.508 142.222 174.012 142.642C174.516 143.062 175.146 143.272 175.902 143.272C176.966 143.272 177.717 142.875 178.156 142.082L178.968 142.558C178.66 143.062 178.235 143.459 177.694 143.748C177.162 144.028 176.56 144.168 175.888 144.168C174.786 144.168 173.89 143.823 173.2 143.132C172.509 142.441 172.164 141.564 172.164 140.5C172.164 139.445 172.504 138.573 173.186 137.882C173.867 137.182 174.744 136.832 175.818 136.832ZM175.818 137.728C175.09 137.728 174.478 137.943 173.984 138.372C173.498 138.801 173.209 139.366 173.116 140.066H178.338C178.235 139.319 177.95 138.745 177.484 138.344C176.998 137.933 176.443 137.728 175.818 137.728ZM181.599 143.37C181.599 143.585 181.524 143.767 181.375 143.916C181.225 144.065 181.043 144.14 180.829 144.14C180.614 144.14 180.432 144.065 180.283 143.916C180.133 143.767 180.059 143.585 180.059 143.37C180.059 143.155 180.133 142.973 180.283 142.824C180.432 142.675 180.614 142.6 180.829 142.6C181.043 142.6 181.225 142.675 181.375 142.824C181.524 142.973 181.599 143.155 181.599 143.37ZM187.065 134.2H194.065V144H193.085V135.124H188.045V144H187.065V134.2ZM202.034 143.118C201.315 143.818 200.447 144.168 199.43 144.168C198.394 144.168 197.521 143.818 196.812 143.118C196.102 142.409 195.748 141.536 195.748 140.5C195.748 139.464 196.102 138.596 196.812 137.896C197.521 137.187 198.394 136.832 199.43 136.832C200.456 136.832 201.324 137.187 202.034 137.896C202.752 138.596 203.112 139.464 203.112 140.5C203.112 141.527 202.752 142.399 202.034 143.118ZM197.47 142.474C198.002 143.006 198.655 143.272 199.43 143.272C200.204 143.272 200.858 143.006 201.39 142.474C201.922 141.923 202.188 141.265 202.188 140.5C202.188 139.725 201.922 139.072 201.39 138.54C200.858 137.999 200.204 137.728 199.43 137.728C198.655 137.728 198.002 137.999 197.47 138.54C196.938 139.072 196.672 139.725 196.672 140.5C196.672 141.265 196.938 141.923 197.47 142.474ZM204.658 137H210.538V144H209.614V137.896H205.582V144H204.658V137ZM216.244 136.832C217.242 136.832 218.092 137.187 218.792 137.896C219.501 138.605 219.856 139.473 219.856 140.5C219.856 141.527 219.501 142.395 218.792 143.104C218.092 143.813 217.242 144.168 216.244 144.168C215.002 144.168 214.06 143.655 213.416 142.628V146.8H212.492V137H213.416V138.372C214.06 137.345 215.002 136.832 216.244 136.832ZM214.214 142.474C214.746 143.006 215.399 143.272 216.174 143.272C216.948 143.272 217.602 143.006 218.134 142.474C218.666 141.923 218.932 141.265 218.932 140.5C218.932 139.725 218.666 139.072 218.134 138.54C217.602 137.999 216.948 137.728 216.174 137.728C215.399 137.728 214.746 137.999 214.214 138.54C213.682 139.072 213.416 139.725 213.416 140.5C213.416 141.265 213.682 141.923 214.214 142.474ZM227.258 143.118C226.539 143.818 225.671 144.168 224.654 144.168C223.618 144.168 222.745 143.818 222.036 143.118C221.327 142.409 220.972 141.536 220.972 140.5C220.972 139.464 221.327 138.596 222.036 137.896C222.745 137.187 223.618 136.832 224.654 136.832C225.681 136.832 226.549 137.187 227.258 137.896C227.977 138.596 228.336 139.464 228.336 140.5C228.336 141.527 227.977 142.399 227.258 143.118ZM222.694 142.474C223.226 143.006 223.879 143.272 224.654 143.272C225.429 143.272 226.082 143.006 226.614 142.474C227.146 141.923 227.412 141.265 227.412 140.5C227.412 139.725 227.146 139.072 226.614 138.54C226.082 137.999 225.429 137.728 224.654 137.728C223.879 137.728 223.226 137.999 222.694 138.54C222.162 139.072 221.896 139.725 221.896 140.5C221.896 141.265 222.162 141.923 222.694 142.474ZM232.99 144.168C231.992 144.168 231.152 143.837 230.47 143.174C229.798 142.502 229.462 141.634 229.462 140.57C229.462 139.375 229.64 138.461 229.994 137.826C230.349 137.182 231.068 136.599 232.15 136.076C232.496 135.917 232.766 135.796 232.962 135.712C233.289 135.581 233.546 135.469 233.732 135.376C234.544 135.003 234.955 134.541 234.964 133.99L235.692 134.41C235.646 134.643 235.571 134.853 235.468 135.04C235.347 135.245 235.226 135.409 235.104 135.53C234.992 135.651 234.815 135.782 234.572 135.922C234.414 136.015 234.222 136.118 233.998 136.23L233.298 136.524L232.64 136.804C231.996 137.084 231.516 137.378 231.198 137.686C230.89 137.985 230.671 138.377 230.54 138.862C230.839 138.461 231.231 138.157 231.716 137.952C232.202 137.737 232.692 137.63 233.186 137.63C234.12 137.63 234.89 137.938 235.496 138.554C236.112 139.161 236.42 139.94 236.42 140.892C236.42 141.835 236.094 142.619 235.44 143.244C234.796 143.86 233.98 144.168 232.99 144.168ZM231.17 142.558C231.656 143.015 232.262 143.244 232.99 143.244C233.718 143.244 234.316 143.025 234.782 142.586C235.258 142.138 235.496 141.573 235.496 140.892C235.496 140.201 235.272 139.637 234.824 139.198C234.386 138.75 233.798 138.526 233.06 138.526C232.398 138.526 231.796 138.736 231.254 139.156C230.713 139.557 230.442 140.108 230.442 140.808C230.442 141.517 230.685 142.101 231.17 142.558ZM240.324 142.866L242.592 137H243.572L240.576 144.644C240.296 145.353 239.904 145.899 239.4 146.282C238.906 146.674 238.355 146.847 237.748 146.8V145.932C238.588 146.035 239.228 145.549 239.666 144.476L239.848 144.042L236.712 137H237.692L240.324 142.866ZM249.449 135.88H245.809V135.068H249.449V135.88ZM245.613 142.39L249.785 137H250.569V144H249.645V138.61L245.473 144H244.689V137H245.613V142.39ZM251.683 137H257.563V137.896H255.085V144H254.161V137.896H251.683V137ZM261.65 136.832C262.695 136.832 263.53 137.201 264.156 137.938C264.8 138.666 265.122 139.529 265.122 140.528C265.122 140.575 265.112 140.719 265.094 140.962H258.948C259.041 141.662 259.34 142.222 259.844 142.642C260.348 143.062 260.978 143.272 261.734 143.272C262.798 143.272 263.549 142.875 263.988 142.082L264.8 142.558C264.492 143.062 264.067 143.459 263.526 143.748C262.994 144.028 262.392 144.168 261.72 144.168C260.618 144.168 259.722 143.823 259.032 143.132C258.341 142.441 257.996 141.564 257.996 140.5C257.996 139.445 258.336 138.573 259.018 137.882C259.699 137.182 260.576 136.832 261.65 136.832ZM261.65 137.728C260.922 137.728 260.31 137.943 259.816 138.372C259.33 138.801 259.041 139.366 258.948 140.066H264.17C264.067 139.319 263.782 138.745 263.316 138.344C262.83 137.933 262.275 137.728 261.65 137.728ZM273.325 136.832C274.371 136.832 275.206 137.201 275.831 137.938C276.475 138.666 276.797 139.529 276.797 140.528C276.797 140.575 276.788 140.719 276.769 140.962H270.623C270.717 141.662 271.015 142.222 271.519 142.642C272.023 143.062 272.653 143.272 273.409 143.272C274.473 143.272 275.225 142.875 275.663 142.082L276.475 142.558C276.167 143.062 275.743 143.459 275.201 143.748C274.669 144.028 274.067 144.168 273.395 144.168C272.294 144.168 271.398 143.823 270.707 143.132C270.017 142.441 269.671 141.564 269.671 140.5C269.671 139.445 270.012 138.573 270.693 137.882C271.375 137.182 272.252 136.832 273.325 136.832ZM273.325 137.728C272.597 137.728 271.986 137.943 271.491 138.372C271.006 138.801 270.717 139.366 270.623 140.066H275.845C275.743 139.319 275.458 138.745 274.991 138.344C274.506 137.933 273.951 137.728 273.325 137.728ZM287.647 137V143.104H288.627V145.876H287.703V144H278.267V137H279.191V143.104H282.495V137H283.419V143.104H286.723V137H287.647ZM292.985 136.832C294.031 136.832 294.866 137.201 295.491 137.938C296.135 138.666 296.457 139.529 296.457 140.528C296.457 140.575 296.448 140.719 296.429 140.962H290.283C290.377 141.662 290.675 142.222 291.179 142.642C291.683 143.062 292.313 143.272 293.069 143.272C294.133 143.272 294.885 142.875 295.323 142.082L296.135 142.558C295.827 143.062 295.403 143.459 294.861 143.748C294.329 144.028 293.727 144.168 293.055 144.168C291.954 144.168 291.058 143.823 290.367 143.132C289.677 142.441 289.331 141.564 289.331 140.5C289.331 139.445 289.672 138.573 290.353 137.882C291.035 137.182 291.912 136.832 292.985 136.832ZM292.985 137.728C292.257 137.728 291.646 137.943 291.151 138.372C290.666 138.801 290.377 139.366 290.283 140.066H295.505C295.403 139.319 295.118 138.745 294.651 138.344C294.166 137.933 293.611 137.728 292.985 137.728ZM305.179 136.832C306.178 136.832 307.027 137.187 307.727 137.896C308.437 138.605 308.791 139.473 308.791 140.5C308.791 141.527 308.437 142.395 307.727 143.104C307.027 143.813 306.178 144.168 305.179 144.168C303.938 144.168 302.995 143.655 302.351 142.628V146.8H301.427V137H302.351V138.372C302.995 137.345 303.938 136.832 305.179 136.832ZM303.149 142.474C303.681 143.006 304.335 143.272 305.109 143.272C305.884 143.272 306.537 143.006 307.069 142.474C307.601 141.923 307.867 141.265 307.867 140.5C307.867 139.725 307.601 139.072 307.069 138.54C306.537 137.999 305.884 137.728 305.109 137.728C304.335 137.728 303.681 137.999 303.149 138.54C302.617 139.072 302.351 139.725 302.351 140.5C302.351 141.265 302.617 141.923 303.149 142.474ZM316.348 138.372V137H317.272V144H316.348V142.628C315.704 143.655 314.761 144.168 313.52 144.168C312.521 144.168 311.667 143.813 310.958 143.104C310.258 142.395 309.908 141.527 309.908 140.5C309.908 139.473 310.258 138.605 310.958 137.896C311.667 137.187 312.521 136.832 313.52 136.832C314.761 136.832 315.704 137.345 316.348 138.372ZM311.63 142.474C312.162 143.006 312.815 143.272 313.59 143.272C314.364 143.272 315.018 143.006 315.55 142.474C316.082 141.923 316.348 141.265 316.348 140.5C316.348 139.725 316.082 139.072 315.55 138.54C315.018 137.999 314.364 137.728 313.59 137.728C312.815 137.728 312.162 137.999 311.63 138.54C311.098 139.072 310.832 139.725 310.832 140.5C310.832 141.265 311.098 141.923 311.63 142.474ZM322.84 140.402C323.652 140.71 324.058 141.27 324.058 142.082C324.058 142.67 323.829 143.165 323.372 143.566C322.933 143.967 322.289 144.168 321.44 144.168C320.021 144.168 319.097 143.608 318.668 142.488L319.452 142.026C319.751 142.857 320.413 143.272 321.44 143.272C321.972 143.272 322.387 143.16 322.686 142.936C322.985 142.703 323.134 142.399 323.134 142.026C323.134 141.69 323.013 141.424 322.77 141.228C322.527 141.023 322.201 140.92 321.79 140.92H320.768V140.024H321.51C321.911 140.024 322.224 139.926 322.448 139.73C322.681 139.525 322.798 139.245 322.798 138.89C322.798 138.554 322.658 138.279 322.378 138.064C322.107 137.84 321.748 137.728 321.3 137.728C320.432 137.728 319.849 138.078 319.55 138.778L318.78 138.33C319.247 137.331 320.087 136.832 321.3 136.832C322.047 136.832 322.635 137.028 323.064 137.42C323.503 137.803 323.722 138.274 323.722 138.834C323.722 139.553 323.428 140.075 322.84 140.402ZM326.442 141.34H325.742L325.532 137V134.2H326.652V137L326.442 141.34ZM326.862 143.37C326.862 143.585 326.788 143.767 326.638 143.916C326.489 144.065 326.307 144.14 326.092 144.14C325.878 144.14 325.696 144.065 325.546 143.916C325.397 143.767 325.322 143.585 325.322 143.37C325.322 143.155 325.397 142.973 325.546 142.824C325.696 142.675 325.878 142.6 326.092 142.6C326.307 142.6 326.489 142.675 326.638 142.824C326.788 142.973 326.862 143.155 326.862 143.37Z" fill="white"/>
<circle cx="33.9425" cy="123.829" r="6.82918" fill="#C81912"/>
<circle cx="79" cy="114" r="13" fill="#C81912"/>
<path fill-rule="evenodd" clip-rule="evenodd" d="M32.5511 136.439C32.4191 135.778 31.9357 135.243 31.2918 135.044C30.5686 134.821 29.7827 135.065 29.3124 135.658L26.6097 139.065C24.7585 141.398 21.7904 142.502 18.8235 142.237C11.5519 141.589 4.04597 142.17 -3.42021 144.141C-37.9518 153.255 -58.5567 188.637 -49.4425 223.169C-40.3282 257.7 -4.9463 278.305 29.5853 269.191C64.1169 260.077 84.7218 224.695 75.6076 190.163C70.3813 170.362 56.5177 155.14 39.13 147.475C36.2342 146.198 34.0008 143.697 33.3809 140.593L32.5511 136.439Z" fill="#C81912"/>
<circle cx="21.5475" cy="91.5474" r="3.49096" transform="rotate(-22.0902 21.5475 91.5474)" fill="#C81912"/>
</g>
<path fill-rule="evenodd" clip-rule="evenodd" d="M67.8052 67.6794C68.1341 67.4706 68.4931 67.3124 68.8662 67.2006C83.0115 62.9621 93.3197 49.8448 93.3197 34.32C93.3197 15.3656 77.9541 0 58.9997 0C40.0453 0 24.6797 15.3656 24.6797 34.32C24.6797 47.8227 32.4775 59.5042 43.8155 65.1068C43.8284 65.1132 43.8231 65.1326 43.8089 65.1315C43.7997 65.1308 43.7927 65.1396 43.7955 65.1483L46.9035 74.9903C47.6944 77.4949 50.6435 78.5705 52.8611 77.1631L67.8052 67.6794Z" fill="#C81912"/>
<path d="M68.8137 27.6381C69.6421 26.8097 69.6421 25.4666 68.8137 24.6382L68.3622 24.1867C67.5338 23.3583 66.1907 23.3583 65.3623 24.1867L59.0002 30.5488L52.6381 24.1867C51.8097 23.3583 50.4666 23.3583 49.6382 24.1867L49.1867 24.6382C48.3583 25.4666 48.3583 26.8097 49.1867 27.6381L55.5488 34.0002L49.1867 40.3623C48.3583 41.1907 48.3583 42.5338 49.1867 43.3622L49.6382 43.8137C50.4666 44.6421 51.8097 44.6421 52.6381 43.8137L59.0002 37.4516L65.3623 43.8137C66.1907 44.6421 67.5338 44.6421 68.3622 43.8137L68.8137 43.3622C69.6421 42.5338 69.6421 41.1907 68.8137 40.3623L62.4516 34.0002L68.8137 27.6381Z" fill="white"/>
<defs>
<clipPath id="clip0_886_2853">
<rect y="42" width="438" height="132" rx="32" fill="white"/>
</clipPath>
<clipPath id="clip1_886_2853">
<rect width="24" height="24" fill="white" transform="translate(390 66)"/>
</clipPath>
</defs>
</svg>
