<svg width="438" height="174" viewBox="0 0 438 174" fill="none" xmlns="http://www.w3.org/2000/svg">
<g clip-path="url(#clip0_886_2548)">
<rect y="42" width="438" height="132" rx="32" fill="#B5FFA2"/>
<circle cx="20.607" cy="108.295" r="9.29547" fill="#7DED61"/>
<circle cx="80.099" cy="146.717" r="3.71819" fill="#7DED61"/>
<path d="M79.4438 110.025C82.4971 117.548 78.8737 126.122 71.3507 129.175C70.5208 129.512 69.6781 129.768 68.8315 129.946C64.1204 130.937 58.8591 132.284 56.3382 136.386C53.3951 141.174 55.0036 147.393 59.3496 150.957C68.015 158.064 75.0268 167.432 79.3829 178.619C92.9059 213.348 75.7149 252.464 40.9856 265.987C6.25636 279.51 -32.8599 262.319 -46.3829 227.59C-59.9059 192.861 -42.7149 153.744 -7.98562 140.221C7.18342 134.315 23.1894 134.268 37.5341 138.982C42.7299 140.69 48.6536 139.072 51.5174 134.413L52.5823 132.68C54.694 129.244 53.7172 124.819 52.2006 121.082C49.1473 113.559 52.7707 104.985 60.2937 101.932C67.8167 98.8789 76.3906 102.502 79.4438 110.025Z" fill="#7DED61"/>
<path d="M131.76 92.5C131.76 99.412 136.208 104.788 143.472 104.788C149.008 104.788 152.976 101.844 154.32 96.788L150.704 95.828C150 99.188 147.408 101.492 143.472 101.492C138.32 101.492 135.504 97.364 135.504 92.5C135.504 87.668 138.416 83.508 143.504 83.508C147.312 83.508 149.648 85.748 150.448 89.172L154.064 88.18C152.944 83.316 148.944 80.212 143.504 80.212C136.496 80.212 131.76 85.652 131.76 92.5ZM163.699 88.308C158.899 88.308 155.347 91.796 155.347 96.532C155.347 101.3 158.899 104.788 163.699 104.788C168.531 104.788 172.051 101.3 172.051 96.532C172.051 91.796 168.531 88.308 163.699 88.308ZM163.699 91.348C166.611 91.348 168.595 93.428 168.595 96.532C168.595 99.636 166.611 101.748 163.699 101.748C160.787 101.748 158.803 99.636 158.803 96.532C158.803 93.428 160.787 91.348 163.699 91.348ZM175.918 88.596H171.982L177.422 96.244L172.046 104.5H175.63L179.278 98.836L183.31 104.5H187.214L181.486 96.404L186.83 88.596H183.15L179.662 93.844L175.918 88.596ZM188.73 88.596V111.54H192.026V102.388C193.306 103.892 195.162 104.788 197.306 104.788C201.722 104.788 205.082 101.3 205.082 96.532C205.082 91.796 201.722 88.308 197.306 88.308C195.098 88.308 193.242 89.268 191.93 90.836L191.802 88.596H188.73ZM196.826 91.348C199.674 91.348 201.626 93.428 201.626 96.532C201.626 99.636 199.674 101.748 196.826 101.748C193.946 101.748 192.026 99.636 192.026 96.532C192.026 93.428 193.946 91.348 196.826 91.348ZM217.431 104.5H220.407V94.772C220.407 90.516 217.719 88.308 213.623 88.308C209.815 88.308 207.287 90.26 206.519 93.3L209.687 93.876C210.167 91.988 211.543 91.124 213.591 91.124C215.479 91.124 216.823 91.988 217.143 93.94L212.855 94.932C209.303 95.764 206.615 97.044 206.615 100.212C206.615 103.092 208.759 104.788 211.703 104.788C214.071 104.788 216.023 103.7 217.271 101.876L217.431 104.5ZM210.007 99.988C210.007 98.612 211.127 98.004 212.951 97.556L217.207 96.5V96.884C217.207 100.276 214.743 102.004 212.279 102.004C210.871 102.004 210.007 101.268 210.007 99.988ZM223.927 104.5H227.223V97.652H234.583V104.5H237.911V88.596H234.583V94.772H227.223V88.596H223.927V104.5ZM248.785 104.788C252.625 104.788 255.377 102.868 256.241 99.7L253.073 99.124C252.497 100.82 251.121 101.876 248.785 101.876C246.129 101.876 244.241 100.404 243.921 97.46H256.241C256.305 96.948 256.369 96.404 256.369 95.924C256.369 91.412 253.169 88.308 248.593 88.308C243.889 88.308 240.497 91.796 240.497 96.532C240.497 101.332 243.665 104.788 248.785 104.788ZM248.593 91.092C250.929 91.092 252.529 92.5 252.849 94.804H244.049C244.593 92.34 246.481 91.092 248.593 91.092ZM259.094 104.5H262.39V97.652H269.75V104.5H273.078V88.596H269.75V94.772H262.39V88.596H259.094V104.5ZM284.015 88.308C279.215 88.308 275.663 91.796 275.663 96.532C275.663 101.3 279.215 104.788 284.015 104.788C288.847 104.788 292.367 101.3 292.367 96.532C292.367 91.796 288.847 88.308 284.015 88.308ZM284.015 91.348C286.927 91.348 288.911 93.428 288.911 96.532C288.911 99.636 286.927 101.748 284.015 101.748C281.103 101.748 279.119 99.636 279.119 96.532C279.119 93.428 281.103 91.348 284.015 91.348Z" fill="#333333"/>
<path d="M138.12 123.7V132.576H139.17V135.376H138.19V133.5H131.19V135.376H130.21V132.576H131.008C131.652 131.82 131.974 130.653 131.974 129.076V123.7H138.12ZM132.17 132.576H137.14V124.624H132.954V129.104C132.954 130.644 132.693 131.801 132.17 132.576ZM146.393 127.872V126.5H147.317V133.5H146.393V132.128C145.749 133.155 144.806 133.668 143.565 133.668C142.566 133.668 141.712 133.313 141.003 132.604C140.303 131.895 139.953 131.027 139.953 130C139.953 128.973 140.303 128.105 141.003 127.396C141.712 126.687 142.566 126.332 143.565 126.332C144.806 126.332 145.749 126.845 146.393 127.872ZM141.675 131.974C142.207 132.506 142.86 132.772 143.635 132.772C144.409 132.772 145.063 132.506 145.595 131.974C146.127 131.423 146.393 130.765 146.393 130C146.393 129.225 146.127 128.572 145.595 128.04C145.063 127.499 144.409 127.228 143.635 127.228C142.86 127.228 142.207 127.499 141.675 128.04C141.143 128.572 140.877 129.225 140.877 130C140.877 130.765 141.143 131.423 141.675 131.974ZM154.229 129.552V126.5H155.153V133.5H154.229V130.448H150.197V133.5H149.273V126.5H150.197V129.552H154.229ZM162.063 129.552V126.5H162.987V133.5H162.063V130.448H158.031V133.5H157.107V126.5H158.031V129.552H162.063ZM165.865 129.16H167.783C168.427 129.16 168.978 129.365 169.435 129.776C169.892 130.177 170.121 130.695 170.121 131.33C170.121 131.974 169.892 132.497 169.435 132.898C168.996 133.299 168.446 133.5 167.783 133.5H164.941V126.5H165.865V129.16ZM171.101 133.5V126.5H172.025V133.5H171.101ZM165.865 132.604H167.783C168.184 132.604 168.52 132.487 168.791 132.254C169.062 132.011 169.197 131.703 169.197 131.33C169.197 130.957 169.062 130.653 168.791 130.42C168.52 130.177 168.184 130.056 167.783 130.056H165.865V132.604ZM177.226 126.332C178.271 126.332 179.106 126.701 179.732 127.438C180.376 128.166 180.698 129.029 180.698 130.028C180.698 130.075 180.688 130.219 180.67 130.462H174.524C174.617 131.162 174.916 131.722 175.42 132.142C175.924 132.562 176.554 132.772 177.31 132.772C178.374 132.772 179.125 132.375 179.564 131.582L180.376 132.058C180.068 132.562 179.643 132.959 179.102 133.248C178.57 133.528 177.968 133.668 177.296 133.668C176.194 133.668 175.298 133.323 174.608 132.632C173.917 131.941 173.572 131.064 173.572 130C173.572 128.945 173.912 128.073 174.594 127.382C175.275 126.682 176.152 126.332 177.226 126.332ZM177.226 127.228C176.498 127.228 175.886 127.443 175.392 127.872C174.906 128.301 174.617 128.866 174.524 129.566H179.746C179.643 128.819 179.358 128.245 178.892 127.844C178.406 127.433 177.851 127.228 177.226 127.228ZM188.44 132.366L190.708 126.5H191.688L188.692 134.144C188.412 134.853 188.02 135.399 187.516 135.782C187.021 136.174 186.47 136.347 185.864 136.3V135.432C186.704 135.535 187.343 135.049 187.782 133.976L187.964 133.542L184.828 126.5H185.808L188.44 132.366ZM195.793 133.668C194.738 133.668 193.861 133.318 193.161 132.618C192.461 131.899 192.111 131.027 192.111 130C192.111 128.964 192.461 128.096 193.161 127.396C193.861 126.687 194.738 126.332 195.793 126.332C196.483 126.332 197.104 126.5 197.655 126.836C198.205 127.163 198.607 127.606 198.859 128.166L198.103 128.6C197.916 128.18 197.613 127.849 197.193 127.606C196.782 127.354 196.315 127.228 195.793 127.228C195.018 127.228 194.365 127.499 193.833 128.04C193.301 128.572 193.035 129.225 193.035 130C193.035 130.765 193.301 131.423 193.833 131.974C194.365 132.506 195.018 132.772 195.793 132.772C196.306 132.772 196.768 132.651 197.179 132.408C197.599 132.165 197.925 131.829 198.159 131.4L198.929 131.848C198.639 132.408 198.215 132.851 197.655 133.178C197.095 133.505 196.474 133.668 195.793 133.668ZM200.255 126.5H206.135V133.5H205.211V127.396H201.179V133.5H200.255V126.5ZM211.323 126.332C212.369 126.332 213.204 126.701 213.829 127.438C214.473 128.166 214.795 129.029 214.795 130.028C214.795 130.075 214.786 130.219 214.767 130.462H208.621C208.715 131.162 209.013 131.722 209.517 132.142C210.021 132.562 210.651 132.772 211.407 132.772C212.471 132.772 213.223 132.375 213.661 131.582L214.473 132.058C214.165 132.562 213.741 132.959 213.199 133.248C212.667 133.528 212.065 133.668 211.393 133.668C210.292 133.668 209.396 133.323 208.705 132.632C208.015 131.941 207.669 131.064 207.669 130C207.669 128.945 208.01 128.073 208.691 127.382C209.373 126.682 210.25 126.332 211.323 126.332ZM211.323 127.228C210.595 127.228 209.984 127.443 209.489 127.872C209.004 128.301 208.715 128.866 208.621 129.566H213.843C213.741 128.819 213.456 128.245 212.989 127.844C212.504 127.433 211.949 127.228 211.323 127.228ZM224.721 132.604V126.5H225.645V133.5H216.265V126.5H217.189V132.604H220.493V126.5H221.417V132.604H224.721ZM232.555 129.552V126.5H233.479V133.5H232.555V130.448H228.523V133.5H227.599V126.5H228.523V129.552H232.555ZM241.299 132.618C240.58 133.318 239.712 133.668 238.695 133.668C237.659 133.668 236.786 133.318 236.077 132.618C235.368 131.909 235.013 131.036 235.013 130C235.013 128.964 235.368 128.096 236.077 127.396C236.786 126.687 237.659 126.332 238.695 126.332C239.722 126.332 240.59 126.687 241.299 127.396C242.018 128.096 242.377 128.964 242.377 130C242.377 131.027 242.018 131.899 241.299 132.618ZM236.735 131.974C237.267 132.506 237.92 132.772 238.695 132.772C239.47 132.772 240.123 132.506 240.655 131.974C241.187 131.423 241.453 130.765 241.453 130C241.453 129.225 241.187 128.572 240.655 128.04C240.123 127.499 239.47 127.228 238.695 127.228C237.92 127.228 237.267 127.499 236.735 128.04C236.203 128.572 235.937 129.225 235.937 130C235.937 130.765 236.203 131.423 236.735 131.974ZM253.289 132.618C252.571 133.318 251.703 133.668 250.685 133.668C249.649 133.668 248.777 133.318 248.067 132.618C247.358 131.909 247.003 131.036 247.003 130C247.003 128.964 247.358 128.096 248.067 127.396C248.777 126.687 249.649 126.332 250.685 126.332C251.712 126.332 252.58 126.687 253.289 127.396C254.008 128.096 254.367 128.964 254.367 130C254.367 131.027 254.008 131.899 253.289 132.618ZM248.725 131.974C249.257 132.506 249.911 132.772 250.685 132.772C251.46 132.772 252.113 132.506 252.645 131.974C253.177 131.423 253.443 130.765 253.443 130C253.443 129.225 253.177 128.572 252.645 128.04C252.113 127.499 251.46 127.228 250.685 127.228C249.911 127.228 249.257 127.499 248.725 128.04C248.193 128.572 247.927 129.225 247.927 130C247.927 130.765 248.193 131.423 248.725 131.974ZM254.8 126.5H260.68V127.396H258.202V133.5H257.278V127.396H254.8V126.5ZM265.558 126.332C266.557 126.332 267.406 126.687 268.106 127.396C268.816 128.105 269.17 128.973 269.17 130C269.17 131.027 268.816 131.895 268.106 132.604C267.406 133.313 266.557 133.668 265.558 133.668C264.317 133.668 263.374 133.155 262.73 132.128V136.3H261.806V126.5H262.73V127.872C263.374 126.845 264.317 126.332 265.558 126.332ZM263.528 131.974C264.06 132.506 264.714 132.772 265.488 132.772C266.263 132.772 266.916 132.506 267.448 131.974C267.98 131.423 268.246 130.765 268.246 130C268.246 129.225 267.98 128.572 267.448 128.04C266.916 127.499 266.263 127.228 265.488 127.228C264.714 127.228 264.06 127.499 263.528 128.04C262.996 128.572 262.73 129.225 262.73 130C262.73 130.765 262.996 131.423 263.528 131.974ZM273.941 126.332C274.986 126.332 275.821 126.701 276.447 127.438C277.091 128.166 277.413 129.029 277.413 130.028C277.413 130.075 277.403 130.219 277.385 130.462H271.239C271.332 131.162 271.631 131.722 272.135 132.142C272.639 132.562 273.269 132.772 274.025 132.772C275.089 132.772 275.84 132.375 276.279 131.582L277.091 132.058C276.783 132.562 276.358 132.959 275.817 133.248C275.285 133.528 274.683 133.668 274.011 133.668C272.909 133.668 272.013 133.323 271.323 132.632C270.632 131.941 270.287 131.064 270.287 130C270.287 128.945 270.627 128.073 271.309 127.382C271.99 126.682 272.867 126.332 273.941 126.332ZM273.941 127.228C273.213 127.228 272.601 127.443 272.107 127.872C271.621 128.301 271.332 128.866 271.239 129.566H276.461C276.358 128.819 276.073 128.245 275.607 127.844C275.121 127.433 274.566 127.228 273.941 127.228ZM284.489 126.5V132.604H285.469V135.376H284.545V133.5H278.833V135.376H277.909V132.604H278.763C279.239 131.969 279.477 131.087 279.477 129.958V126.5H284.489ZM279.883 132.604H283.565V127.396H280.401V129.958C280.401 131.041 280.228 131.923 279.883 132.604ZM292.613 127.872V126.5H293.537V133.5H292.613V132.128C291.969 133.155 291.027 133.668 289.785 133.668C288.787 133.668 287.933 133.313 287.223 132.604C286.523 131.895 286.173 131.027 286.173 130C286.173 128.973 286.523 128.105 287.223 127.396C287.933 126.687 288.787 126.332 289.785 126.332C291.027 126.332 291.969 126.845 292.613 127.872ZM287.895 131.974C288.427 132.506 289.081 132.772 289.855 132.772C290.63 132.772 291.283 132.506 291.815 131.974C292.347 131.423 292.613 130.765 292.613 130C292.613 129.225 292.347 128.572 291.815 128.04C291.283 127.499 290.63 127.228 289.855 127.228C289.081 127.228 288.427 127.499 287.895 128.04C287.363 128.572 287.097 129.225 287.097 130C287.097 130.765 287.363 131.423 287.895 131.974ZM297.398 129.86L301.15 133.5H299.918L296.418 130.126V133.5H295.494V126.5H296.418V129.594L299.75 126.5H301.01L297.398 129.86ZM301.572 126.5H307.452V127.396H304.974V133.5H304.05V127.396H301.572V126.5ZM309.502 131.89L313.674 126.5H314.458V133.5H313.534V128.11L309.362 133.5H308.578V126.5H309.502V131.89ZM320.164 126.332C321.162 126.332 322.012 126.687 322.712 127.396C323.421 128.105 323.776 128.973 323.776 130C323.776 131.027 323.421 131.895 322.712 132.604C322.012 133.313 321.162 133.668 320.164 133.668C318.922 133.668 317.98 133.155 317.336 132.128V136.3H316.412V126.5H317.336V127.872C317.98 126.845 318.922 126.332 320.164 126.332ZM318.134 131.974C318.666 132.506 319.319 132.772 320.094 132.772C320.868 132.772 321.522 132.506 322.054 131.974C322.586 131.423 322.852 130.765 322.852 130C322.852 129.225 322.586 128.572 322.054 128.04C321.522 127.499 320.868 127.228 320.094 127.228C319.319 127.228 318.666 127.499 318.134 128.04C317.602 128.572 317.336 129.225 317.336 130C317.336 130.765 317.602 131.423 318.134 131.974ZM331.178 132.618C330.459 133.318 329.591 133.668 328.574 133.668C327.538 133.668 326.665 133.318 325.956 132.618C325.247 131.909 324.892 131.036 324.892 130C324.892 128.964 325.247 128.096 325.956 127.396C326.665 126.687 327.538 126.332 328.574 126.332C329.601 126.332 330.469 126.687 331.178 127.396C331.897 128.096 332.256 128.964 332.256 130C332.256 131.027 331.897 131.899 331.178 132.618ZM326.614 131.974C327.146 132.506 327.799 132.772 328.574 132.772C329.349 132.772 330.002 132.506 330.534 131.974C331.066 131.423 331.332 130.765 331.332 130C331.332 129.225 331.066 128.572 330.534 128.04C330.002 127.499 329.349 127.228 328.574 127.228C327.799 127.228 327.146 127.499 326.614 128.04C326.082 128.572 325.816 129.225 325.816 130C325.816 130.765 326.082 131.423 326.614 131.974ZM338.254 129.902C339.02 130.182 339.402 130.728 339.402 131.54C339.402 132.119 339.206 132.59 338.814 132.954C338.432 133.318 337.895 133.5 337.204 133.5H333.802V126.5H336.924C337.596 126.5 338.119 126.673 338.492 127.018C338.875 127.363 339.066 127.816 339.066 128.376C339.066 129.076 338.796 129.585 338.254 129.902ZM336.924 127.396H334.726V129.524H336.924C337.736 129.524 338.142 129.16 338.142 128.432C338.142 128.105 338.035 127.853 337.82 127.676C337.615 127.489 337.316 127.396 336.924 127.396ZM334.726 132.604H337.204C337.615 132.604 337.928 132.506 338.142 132.31C338.366 132.114 338.478 131.839 338.478 131.484C338.478 131.148 338.366 130.887 338.142 130.7C337.928 130.513 337.615 130.42 337.204 130.42H334.726V132.604ZM346.822 127.872V126.5H347.746V133.5H346.822V132.128C346.178 133.155 345.236 133.668 343.994 133.668C342.996 133.668 342.142 133.313 341.432 132.604C340.732 131.895 340.382 131.027 340.382 130C340.382 128.973 340.732 128.105 341.432 127.396C342.142 126.687 342.996 126.332 343.994 126.332C345.236 126.332 346.178 126.845 346.822 127.872ZM342.104 131.974C342.636 132.506 343.29 132.772 344.064 132.772C344.839 132.772 345.492 132.506 346.024 131.974C346.556 131.423 346.822 130.765 346.822 130C346.822 129.225 346.556 128.572 346.024 128.04C345.492 127.499 344.839 127.228 344.064 127.228C343.29 127.228 342.636 127.499 342.104 128.04C341.572 128.572 341.306 129.225 341.306 130C341.306 130.765 341.572 131.423 342.104 131.974ZM354.659 129.552V126.5H355.583V133.5H354.659V130.448H350.627V133.5H349.703V126.5H350.627V129.552H354.659ZM358.461 129.16H360.379C361.023 129.16 361.573 129.365 362.031 129.776C362.488 130.177 362.717 130.695 362.717 131.33C362.717 131.974 362.488 132.497 362.031 132.898C361.592 133.299 361.041 133.5 360.379 133.5H357.537V126.5H358.461V129.16ZM363.697 133.5V126.5H364.621V133.5H363.697ZM358.461 132.604H360.379C360.78 132.604 361.116 132.487 361.387 132.254C361.657 132.011 361.793 131.703 361.793 131.33C361.793 130.957 361.657 130.653 361.387 130.42C361.116 130.177 360.78 130.056 360.379 130.056H358.461V132.604ZM367.567 130.84H366.867L366.657 126.5V123.7H367.777V126.5L367.567 130.84ZM367.987 132.87C367.987 133.085 367.913 133.267 367.763 133.416C367.614 133.565 367.432 133.64 367.217 133.64C367.003 133.64 366.821 133.565 366.671 133.416C366.522 133.267 366.447 133.085 366.447 132.87C366.447 132.655 366.522 132.473 366.671 132.324C366.821 132.175 367.003 132.1 367.217 132.1C367.432 132.1 367.614 132.175 367.763 132.324C367.913 132.473 367.987 132.655 367.987 132.87Z" fill="#333333"/>
<g clip-path="url(#clip1_886_2548)">
<path d="M402 77.5561L407.778 71.7781L408.761 72.7613L402.983 78.5394L408.761 84.3174L407.778 85.3006L402 79.5226L396.222 85.3006L395.239 84.3174L401.017 78.5394L395.239 72.7613L396.222 71.7781L402 77.5561Z" fill="#333333"/>
</g>
</g>
<path fill-rule="evenodd" clip-rule="evenodd" d="M58.9997 68.64C77.9541 68.64 93.3197 53.2744 93.3197 34.32C93.3197 15.3656 77.9541 0 58.9997 0C40.0453 0 24.6797 15.3656 24.6797 34.32C24.6797 44.9926 29.5513 54.5274 37.192 60.822C37.2042 60.832 37.1934 60.8515 37.1784 60.8464C37.1693 60.8433 37.1597 60.8501 37.1597 60.8598V71.5042C37.1597 74.4834 40.2999 76.4171 42.9603 75.076L54.9717 69.0212C55.6351 68.6867 56.3783 68.5494 57.1202 68.5894C57.7425 68.623 58.3691 68.64 58.9997 68.64Z" fill="#7DED61"/>
<path fill-rule="evenodd" clip-rule="evenodd" d="M70.3007 24.3464C71.3598 25.1585 71.562 26.6745 70.7526 27.7357L58.7423 43.4829C58.3188 44.0382 57.6769 44.3832 56.9812 44.4295C56.2856 44.4758 55.6039 44.2189 55.1109 43.7246L47.4879 36.0815C46.5452 35.1363 46.5452 33.6064 47.4879 32.6612C48.4342 31.7124 49.971 31.7124 50.9172 32.6612L56.5779 38.3368L66.9028 24.7994C67.7151 23.7344 69.2378 23.5314 70.3007 24.3464Z" fill="white"/>
<defs>
<clipPath id="clip0_886_2548">
<rect y="42" width="438" height="132" rx="32" fill="white"/>
</clipPath>
<clipPath id="clip1_886_2548">
<rect width="24" height="24" fill="white" transform="translate(390 66)"/>
</clipPath>
</defs>
</svg>
